<?xml version="1.0" encoding="UTF-8" standalone="no"?>
<svg xmlns:sketch="http://www.bohemiancoding.com/sketch/ns" xmlns="http://www.w3.org/2000/svg" height="60px" width="60px" version="1.1" xmlns:xlink="http://www.w3.org/1999/xlink" viewBox="0 0 60 60"><!-- Generator: Sketch 3.2.2 (9983) - http://www.bohemiancoding.com/sketch -->
 <title>icon-tag-clojure</title>
 <desc>Created with Sketch.</desc>
 <g id="Page-1" fill-rule="evenodd" sketch:type="MSPage" fill="none">
  <g id="comunity-tags-icons" transform="translate(-842 -2069)" sketch:type="MSArtboardGroup">
   <g id="icon-tag-clojure" transform="translate(842 2069)" sketch:type="MSLayerGroup">
    <ellipse id="Oval-1" rx="30" sketch:type="MSShapeGroup" ry="30" cy="30" cx="30" fill="#5881D8"/>
    <g id="clojure-1-2" sketch:type="MSShapeGroup" fill="#fff" transform="translate(14 14)">
     <path id="Shape" d="m10.493 1.1312c3.546-1.3932 7.578-1.4875 11.188-0.27291 2.295 0.76171 4.415 2.0444 6.158 3.7193 2.698 2.5617 4.482 6.0674 4.945 9.7604 0.145 1.138 0.2 2.294 0.084 3.439-0.017 0.889-0.314 1.743-0.701 2.534-0.589 1.198-1.557 2.214-2.755 2.811-1.717 0.866-3.707 0.991-5.591 0.793 1.496-1.482 2.541-3.418 2.927-5.49 0.412-2.164 0.125-4.457-0.827-6.445-1.047-2.2132-2.898-4.0322-5.13-5.0398-2.667-1.2263-5.85-1.238-8.533-0.0504-0.917-0.6418-2.005-0.9944-3.0985-1.1883-2.0722-0.3805-4.2768 0.0336-6.0563 1.1648 1.8505-2.5631 4.44-4.5907 7.3898-5.7351z"/>
     <path id="Shape" d="m13.736 8.2054c1.769-0.5927 3.728-0.5891 5.495 0.008 2.018 0.6695 3.762 2.1116 4.808 3.9606 1.012 1.768 1.369 3.897 0.986 5.898-0.394 2.154-1.649 4.121-3.41 5.417-0.345-0.101-0.709-0.197-0.987-0.437-0.537-0.451-0.925-1.045-1.279-1.642-0.718-1.232-1.259-2.558-1.749-3.895-0.199-0.564-0.399-1.13-0.545-1.712-0.341-1.284-0.705-2.565-1.174-3.809-0.517-1.361-1.188-2.6816-2.145-3.7886z"/>
     <path id="Shape" d="m3.5166 9.6637c1.7488-1.1854 4.0083-1.5615 6.0549-1.0596-1.661 1.4579-2.8515 3.4469-3.3205 5.6089-0.4873 2.209-0.2422 4.577 0.7112 6.631 1.0258 2.243 2.8749 4.093 5.1148 5.124 2.827 1.327 6.246 1.273 9.039-0.122 0.952 0.329 1.951 0.484 2.947 0.611 1.964 0.216 3.951-0.05 5.861-0.517-1.596 2.267-3.771 4.123-6.266 5.335-2.275 1.112-4.811 1.677-7.342 1.653-3.306-0.03-6.6004-1.075-9.3004-2.989-1.7905-1.256-3.3271-2.874-4.4897-4.727-1.2498-1.984-2.0627-4.24-2.3693-6.564-0.16611-1.338-0.21806-2.7-0.02636-4.037 0.5561-1.95 1.6815-3.802 3.3864-4.9473z"/>
     <path id="Shape" d="m8.5024 12.961c0.6359-1.442 1.6736-2.702 2.9616-3.609 0.699 0.4068 1.345 0.934 1.79 1.617 0.864 1.293 1.45 2.746 1.993 4.196-0.652 1.319-1.33 2.624-2.01 3.928-0.728 1.426-1.492 2.857-1.874 4.423-1.6335-1.184-2.8408-2.946-3.3325-4.904-0.48-1.866-0.311-3.89 0.4719-5.651z"/>
     <path id="Shape" d="m13.748 21.851c0.536-1.747 1.284-3.42 2.036-5.083 0.475 1.649 0.92 3.311 1.537 4.914 0.443 1.114 0.993 2.229 1.892 3.049-1.853 0.622-3.912 0.59-5.745-0.088-0.079-0.937-0.009-1.893 0.28-2.792z"/>
    </g>
   </g>
  </g>
 </g>
</svg>
