<?xml version="1.0" encoding="UTF-8" standalone="no"?>
<svg xmlns:sketch="http://www.bohemiancoding.com/sketch/ns" xmlns="http://www.w3.org/2000/svg" height="60px" width="60px" version="1.1" xmlns:xlink="http://www.w3.org/1999/xlink" viewBox="0 0 60 60"><!-- Generator: Sketch 3.2.2 (9983) - http://www.bohemiancoding.com/sketch -->
 <title>icon-tag-placeholder</title>
 <desc>Created with Sketch.</desc>
 <g id="Page-1" fill-rule="evenodd" sketch:type="MSPage" fill="none">
  <g id="comunity-tags-icons" transform="translate(-842 -249)" sketch:type="MSArtboardGroup">
   <g id="icon-tag-placeholder" transform="translate(842 249)" sketch:type="MSLayerGroup">
    <ellipse id="Oval-3" rx="30" sketch:type="MSShapeGroup" ry="30" cy="30" cx="30" fill="#8EB43F"/>
    <g id="Fill-19-+-Fill-21-2" sketch:type="MSShapeGroup" fill="#fff" transform="translate(18 18)">
     <path id="Fill-19" d="m15.263 10.572c0.733 1.873-0.176 3.992-2.03 4.732-1.032 0.412-2.138 0.309-3.043-0.183l-4.1923 4.233c-0.0231 0.188-0.0953 0.692-0.0953 0.692l-0.4479 2.401c0.5196 0.463 0.9191 0.767 1.589 1.06 0.7176 0.314 1.2599 0.409 1.9985 0.464l1.384-2.015-0.075-0.031c1 0.159 2.032 0.166 3.063 0.007l-0.064 0.026 1.365 2.018c0.69-0.044 1.186-0.114 1.865-0.385 0.727-0.29 1.177-0.611 1.738-1.099l-0.433-2.412-0.076 0.031c0.844-0.618 1.572-1.36 2.173-2.186l-0.027 0.068 2.378 0.452c0.458-0.525 0.759-0.928 1.049-1.604 0.311-0.725 0.405-1.273 0.459-2.019l-1.994-1.397-0.031 0.073c0.158-1.002 0.167-2.036 0.016-3.068l0.016 0.042 1.999-1.3786c-0.044-0.6975-0.113-1.198-0.381-1.8837-0.288-0.7349-0.605-1.1888-1.089-1.7552l-2.389 0.4364s-0.585 0.095-0.776 0.1181l-4.132 4.173c0.067 0.125 0.129 0.254 0.183 0.39"/>
     <path id="Fill-21" d="m13.273 8.6693c-1.854-0.7409-3.9521 0.1769-4.6854 2.0497-0.4078 1.042-0.3063 2.158 0.1816 3.073l-4.1925 4.234c-0.1858 0.023-0.6843 0.096-0.6843 0.096l-2.378 0.452c-0.4578-0.524-0.75948-0.928-1.0493-1.604-0.31089-0.725-0.40456-1.273-0.4592-2.019l1.9947-1.397 0.0312 0.076c-0.1578-1.011-0.1643-2.053-0.0069-3.094l-0.0261 0.065-1.9988-1.3783c0.043887-0.6976 0.11345-1.1985 0.38215-1.884 0.28708-0.7345 0.60453-1.1887 1.0882-1.7551l2.3884 0.4367-0.0316 0.0776c0.6128-0.8521 1.3469-1.5875 2.1652-2.1954l-0.067 0.0281-0.4482-2.4016c0.52-0.4623 0.9194-0.76661 1.5891-1.0595 0.7176-0.31411 1.2599-0.40889 1.9983-0.46407l1.3844 2.0146-0.073 0.0309c0.992-0.1596 2.016-0.1691 3.038-0.0158l-0.042-0.017 1.365-2.0181c0.691 0.044321 1.187 0.11439 1.866 0.3854 0.727 0.29028 1.177 0.61086 1.738 1.0989l-0.432 2.4125s-0.094 0.5914-0.118 0.7836l-4.131 4.1728c-0.124-0.0674-0.252-0.1303-0.387-0.1839"/>
    </g>
   </g>
  </g>
 </g>
</svg>
