<?xml version="1.0" encoding="UTF-8" standalone="no"?>
<svg width="60px" height="60px" viewBox="0 0 60 60" version="1.1" xmlns="http://www.w3.org/2000/svg" xmlns:xlink="http://www.w3.org/1999/xlink" xmlns:sketch="http://www.bohemiancoding.com/sketch/ns">
    <!-- Generator: Sketch 3.2.2 (9983) - http://www.bohemiancoding.com/sketch -->
    <title>icon-tag-python</title>
    <desc>Created with Sketch.</desc>
    <defs></defs>
    <g id="Page-1" stroke="none" stroke-width="1" fill="none" fill-rule="evenodd" sketch:type="MSPage">
        <g id="comunity-tags-icons" sketch:type="MSArtboardGroup" transform="translate(-842.000000, -1289.000000)">
            <g id="icon-tag-python" sketch:type="MSLayerGroup" transform="translate(842.000000, 1289.000000)">
                <ellipse id="Oval-1" fill="#346F9F" sketch:type="MSShapeGroup" cx="30" cy="30" rx="30" ry="30"></ellipse>
                <g id="g2303" transform="translate(14.000000, 13.000000)" fill="#FFFFFF" sketch:type="MSShapeGroup">
                    <path d="M16.355671,0.119744058 C15.0051303,0.126152396 13.7153943,0.243774163 12.5805594,0.448836979 C9.23747786,1.05196202 8.63050385,2.31435442 8.63050355,4.64242108 L8.63050355,7.71708922 L16.5306152,7.71708922 L16.5306152,8.7419786 L8.63050355,8.7419786 L5.6656598,8.7419786 C3.36966742,8.7419786 1.35923075,10.1512386 0.730391888,12.8321335 C0.00503420893,15.9050613 -0.0271393473,17.8226183 0.730391888,21.0312485 C1.29196005,23.4196288 2.63306087,25.1214028 4.92905266,25.1214034 L7.6452915,25.1214034 L7.6452915,21.4355627 C7.6452915,18.7727603 9.90141429,16.4239482 12.5805594,16.4239476 L20.4714634,16.4239476 C22.6680114,16.4239476 24.4215201,14.5770664 24.4215192,12.3243901 L24.4215192,4.64242108 C24.4215192,2.45608899 22.6153644,0.813726965 20.4714634,0.448836979 C19.1143422,0.218140871 17.7062116,0.11333572 16.355671,0.119744058 L16.355671,0.119744058 Z M12.0833495,2.59264232 C12.8993768,2.59264232 13.5657714,3.28427032 13.5657714,4.13467772 C13.5657708,4.98207085 12.8993768,5.66731046 12.0833495,5.66731046 C11.2643968,5.66731016 10.6009277,4.98207055 10.6009277,4.13467772 C10.6009274,3.28427062 11.2643968,2.59264232 12.0833495,2.59264232 L12.0833495,2.59264232 Z" id="path1948"></path>
                    <path d="M25.4067312,8.7419786 L25.4067312,12.3243901 C25.4067312,15.1017854 23.1008872,17.4394341 20.4714634,17.4394344 L12.5805594,17.4394344 C10.4191086,17.4394344 8.63050385,19.3285354 8.63050355,21.5389919 L8.63050355,29.22096 C8.63050355,31.4072924 10.4922304,32.6932687 12.5805594,33.3205175 C15.0812908,34.071409 17.4793613,34.2071142 20.4714634,33.3205175 C22.4603483,32.732471 24.4215201,31.5490242 24.4215192,29.22096 L24.4215192,26.1462928 L16.5306152,26.1462928 L16.5306152,25.1214034 L24.4215192,25.1214034 L28.3715762,25.1214034 C30.6675688,25.1214034 31.5231498,23.4859709 32.321629,21.0312485 C33.1464316,18.5041501 33.1113367,16.0739354 32.321629,12.8321335 C31.7542117,10.4980362 30.6704887,8.7419786 28.3715762,8.7419786 L25.4067312,8.7419786 L25.4067312,8.7419786 Z M20.9686732,28.1960715 C21.7876265,28.1960724 22.4510951,28.881312 22.4510951,29.7287034 C22.4510945,30.5791096 21.7876257,31.2707388 20.9686732,31.2707388 C20.1526451,31.2707388 19.4862513,30.5791096 19.4862513,29.7287034 C19.4862519,28.881312 20.1526442,28.1960715 20.9686732,28.1960715 L20.9686732,28.1960715 Z" id="path1950"></path>
                </g>
            </g>
        </g>
    </g>
</svg>