<?xml version="1.0" encoding="UTF-8" standalone="no"?>
<svg width="60px" height="60px" viewBox="0 0 60 60" version="1.1" xmlns="http://www.w3.org/2000/svg" xmlns:xlink="http://www.w3.org/1999/xlink" xmlns:sketch="http://www.bohemiancoding.com/sketch/ns">
    <!-- Generator: Sketch 3.2.2 (9983) - http://www.bohemiancoding.com/sketch -->
    <title>icon-tag-node-js</title>
    <desc>Created with Sketch.</desc>
    <defs></defs>
    <g id="Page-1" stroke="none" stroke-width="1" fill="none" fill-rule="evenodd" sketch:type="MSPage">
        <g id="comunity-tags-icons" sketch:type="MSArtboardGroup" transform="translate(-852.000000, -769.000000)">
            <g id="icon-tag-node-js" sketch:type="MSLayerGroup" transform="translate(852.000000, 769.000000)">
                <ellipse id="Oval-2" fill="#78B743" sketch:type="MSShapeGroup" cx="30" cy="30" rx="30" ry="30"></ellipse>
                <g id="nodejs-light-2" transform="translate(16.000000, 14.000000)" fill="#FFFFFF" sketch:type="MSShapeGroup">
                    <path d="M14.371,32.736 C13.941,32.736 13.514,32.624 13.138,32.406 L9.211,30.083 C8.625,29.755 8.911,29.639 9.104,29.571 C9.887,29.3 10.045,29.237 10.88,28.764 C10.967,28.715 11.082,28.733 11.172,28.786 L14.188,30.577 C14.298,30.638 14.452,30.638 14.553,30.577 L26.313,23.789 C26.423,23.726 26.493,23.601 26.493,23.471 L26.493,9.898 C26.493,9.766 26.423,9.641 26.311,9.574 L14.555,2.792 C14.446,2.728 14.302,2.728 14.192,2.792 L2.439,9.576 C2.325,9.641 2.253,9.769 2.253,9.898 L2.253,23.471 C2.253,23.601 2.325,23.723 2.438,23.785 L5.66,25.646 C7.408,26.52 8.479,25.491 8.479,24.457 L8.479,11.056 C8.479,10.867 8.631,10.718 8.82,10.718 L10.312,10.718 C10.498,10.718 10.652,10.867 10.652,11.056 L10.652,24.457 C10.652,26.79 9.382,28.128 7.17,28.128 C6.49,28.128 5.955,28.128 4.461,27.392 L1.377,25.616 C0.615,25.176 0.144,24.352 0.144,23.471 L0.144,9.898 C0.144,9.017 0.615,8.193 1.377,7.755 L13.138,0.959 C13.882,0.538 14.871,0.538 15.609,0.959 L27.369,7.755 C28.131,8.195 28.604,9.017 28.604,9.898 L28.604,23.471 C28.604,24.352 28.131,25.173 27.369,25.616 L15.609,32.406 C15.233,32.624 14.807,32.736 14.371,32.736" id="Fill-7"></path>
                    <path d="M18.004,23.386 C12.857,23.386 11.779,21.023 11.779,19.042 C11.779,18.853 11.931,18.703 12.119,18.703 L13.64,18.703 C13.81,18.703 13.951,18.825 13.978,18.991 C14.207,20.539 14.892,21.32 18.004,21.32 C20.481,21.32 21.536,20.76 21.536,19.445 C21.536,18.687 21.237,18.125 17.387,17.748 C14.169,17.43 12.179,16.719 12.179,14.144 C12.179,11.771 14.179,10.356 17.532,10.356 C21.3,10.356 23.164,11.664 23.4,14.47 C23.409,14.566 23.375,14.659 23.311,14.731 C23.246,14.799 23.156,14.84 23.062,14.84 L21.535,14.84 C21.377,14.84 21.237,14.727 21.205,14.574 C20.839,12.945 19.948,12.425 17.532,12.425 C14.827,12.425 14.513,13.367 14.513,14.073 C14.513,14.929 14.884,15.178 18.536,15.661 C22.15,16.139 23.867,16.815 23.867,19.355 C23.867,21.918 21.73,23.386 18.004,23.386" id="Fill-8"></path>
                </g>
            </g>
        </g>
    </g>
</svg>