<?xml version="1.0" encoding="UTF-8" standalone="no"?>
<svg xmlns:sketch="http://www.bohemiancoding.com/sketch/ns" xmlns="http://www.w3.org/2000/svg" height="60px" width="60px" version="1.1" xmlns:xlink="http://www.w3.org/1999/xlink" viewBox="0 0 60 60"><!-- Generator: Sketch 3.2.2 (9983) - http://www.bohemiancoding.com/sketch -->
 <title>icon-tag-node-js</title>
 <desc>Created with Sketch.</desc>
 <g id="Page-1" fill-rule="evenodd" sketch:type="MSPage" fill="none">
  <g id="comunity-tags-icons" transform="translate(-852 -769)" sketch:type="MSArtboardGroup">
   <g id="icon-tag-node-js" transform="translate(852 769)" sketch:type="MSLayerGroup">
    <ellipse id="Oval-2" rx="30" sketch:type="MSShapeGroup" ry="30" cy="30" cx="30" fill="#78B743"/>
    <g id="nodejs-light-2" sketch:type="MSShapeGroup" fill="#fff" transform="translate(16 14)">
     <path id="Fill-7" d="m14.371 32.736c-0.43 0-0.857-0.112-1.233-0.33l-3.927-2.323c-0.586-0.328-0.3-0.444-0.107-0.512 0.783-0.271 0.941-0.334 1.776-0.807 0.087-0.049 0.202-0.031 0.292 0.022l3.016 1.791c0.11 0.061 0.264 0.061 0.365 0l11.76-6.788c0.11-0.063 0.18-0.188 0.18-0.318v-13.573c0-0.132-0.07-0.257-0.182-0.324l-11.756-6.782c-0.109-0.064-0.253-0.064-0.363 0l-11.753 6.784c-0.114 0.065-0.186 0.193-0.186 0.322v13.573c0 0.13 0.072 0.252 0.185 0.314l3.222 1.861c1.748 0.874 2.819-0.155 2.819-1.189v-13.401c0-0.189 0.152-0.338 0.341-0.338h1.492c0.186 0 0.34 0.149 0.34 0.338v13.401c0 2.333-1.27 3.671-3.482 3.671-0.68 0-1.215 0-2.709-0.736l-3.084-1.776c-0.762-0.44-1.233-1.264-1.233-2.145v-13.573c0-0.881 0.471-1.705 1.233-2.143l11.761-6.796c0.744-0.421 1.733-0.421 2.471 0l11.76 6.796c0.762 0.44 1.235 1.262 1.235 2.143v13.573c0 0.881-0.473 1.702-1.235 2.145l-11.76 6.79c-0.376 0.218-0.802 0.33-1.238 0.33"/>
     <path id="Fill-8" d="m18.004 23.386c-5.147 0-6.225-2.363-6.225-4.344 0-0.189 0.152-0.339 0.34-0.339h1.521c0.17 0 0.311 0.122 0.338 0.288 0.229 1.548 0.914 2.329 4.026 2.329 2.477 0 3.532-0.56 3.532-1.875 0-0.758-0.299-1.32-4.149-1.697-3.218-0.318-5.208-1.029-5.208-3.604 0-2.373 2-3.788 5.353-3.788 3.768 0 5.632 1.308 5.868 4.114 0.009 0.096-0.025 0.189-0.089 0.261-0.065 0.068-0.155 0.109-0.249 0.109h-1.527c-0.158 0-0.298-0.113-0.33-0.266-0.366-1.629-1.257-2.149-3.673-2.149-2.705 0-3.019 0.942-3.019 1.648 0 0.856 0.371 1.105 4.023 1.588 3.614 0.478 5.331 1.154 5.331 3.694 0 2.563-2.137 4.031-5.863 4.031"/>
    </g>
   </g>
  </g>
 </g>
</svg>
