<?xml version="1.0" encoding="UTF-8" standalone="no"?>
<svg width="60px" height="60px" viewBox="0 0 60 60" version="1.1" xmlns="http://www.w3.org/2000/svg" xmlns:xlink="http://www.w3.org/1999/xlink" xmlns:sketch="http://www.bohemiancoding.com/sketch/ns">
    <!-- Generator: Sketch 3.2.2 (9983) - http://www.bohemiancoding.com/sketch -->
    <title>icon-tag-placeholder</title>
    <desc>Created with Sketch.</desc>
    <defs></defs>
    <g id="Page-1" stroke="none" stroke-width="1" fill="none" fill-rule="evenodd" sketch:type="MSPage">
        <g id="comunity-tags-icons" sketch:type="MSArtboardGroup" transform="translate(-842.000000, -249.000000)">
            <g id="icon-tag-placeholder" sketch:type="MSLayerGroup" transform="translate(842.000000, 249.000000)">
                <ellipse id="Oval-3" fill="#8EB43F" sketch:type="MSShapeGroup" cx="30" cy="30" rx="30" ry="30"></ellipse>
                <g id="Fill-19-+-Fill-21-2" transform="translate(18.000000, 18.000000)" fill="#FFFFFF" sketch:type="MSShapeGroup">
                    <path d="M15.2626662,10.5719761 C15.9960809,12.444852 15.087292,14.5635089 13.2327658,15.3041805 C12.2013363,15.7158593 11.0954899,15.6132024 10.1899967,15.1205893 L5.9976678,19.3543995 C5.97459682,19.5421951 5.90243493,20.0456696 5.90243493,20.0456696 L5.45454545,22.447071 C5.97407645,22.9095527 6.37356889,23.2140199 7.04349502,23.5071002 C7.76112431,23.820852 8.30337938,23.9158009 9.04199804,23.9706331 L10.4255637,21.9563849 L10.3506264,21.924852 C11.3511789,22.0842681 12.3833023,22.0905747 13.4136909,21.9316841 L13.3500289,21.9581367 L14.7145133,23.9764141 C15.4050819,23.9322681 15.9013684,23.8621951 16.5801413,23.5910126 C17.3073112,23.3007352 17.7571089,22.9801513 18.3177513,22.4917425 L17.8854738,20.0796549 L17.8086283,20.111363 C18.6525409,19.4927936 19.3807517,18.7514213 19.9823321,17.9249104 L19.9545776,17.9925309 L22.3327979,18.4452024 C22.7907484,17.9201805 23.0920591,17.5169104 23.3822679,16.840706 C23.6931191,16.1158009 23.7867909,15.5680053 23.8414327,14.8222535 L21.8467459,13.4246476 L21.8162158,13.4980491 C21.97407,12.4956549 21.9834372,11.4624286 21.8318278,10.4304286 L21.8484806,10.4719469 L23.8468101,9.09343598 C23.8029232,8.39585935 23.7337102,7.89536296 23.4655316,7.20969873 C23.1777513,6.4748082 22.8606553,6.02091044 22.3768583,5.45454545 L19.9884034,5.89092502 C19.9884034,5.89092502 19.4027818,5.98587393 19.2123161,6.00899798 L15.0803533,10.1816696 C15.1474847,10.3071002 15.2094121,10.4362097 15.2626662,10.5719761" id="Fill-19"></path>
                    <path d="M13.2734533,8.6692555 C11.4187536,7.92840877 9.32085447,8.84618977 8.58761324,10.7192409 C8.17979444,11.7607007 8.28127211,12.877489 8.76923225,13.7917664 L4.57672984,18.0257518 C4.39094764,18.0490511 3.89240604,18.121927 3.89240604,18.121927 L1.51435914,18.5742482 C1.05658208,18.0495766 0.75492451,17.6461314 0.465062641,16.9697518 C0.154211372,16.2448467 0.0605396727,15.6974015 0.00589784782,14.9511241 L2.00058465,13.5543942 L2.03180854,13.6298978 C1.87395438,12.6194453 1.86753614,11.5769343 2.0248699,10.5363504 L1.99884999,10.6008175 L0,9.22265693 C0.0438869258,8.5250803 0.113446836,8.02423357 0.38214584,7.33874453 C0.669232253,6.60420441 0.986675235,6.14995619 1.47029875,5.58359126 L3.85875362,6.02032117 L3.82718278,6.09792702 C4.44003855,5.24583942 5.17414713,4.51042336 5.99238676,3.90254015 L5.92542884,3.93056934 L5.4771924,1.5289927 C5.99724382,1.06668613 6.3965628,0.76239416 7.06631547,0.469489051 C7.78394476,0.155386864 8.32619978,0.0606131384 9.06464504,0.00543065673 L10.4487311,2.02002919 L10.3760488,2.05086131 C11.3684485,1.89127007 12.3915515,1.88181022 13.4136139,2.03509489 L13.3723289,2.01810219 L14.7373337,0 C15.4280758,0.0443211676 15.9240154,0.11439416 16.6027883,0.385401462 C17.3303052,0.675678833 17.7799293,0.996262771 18.3405718,1.48432117 L17.9086412,3.89675913 C17.9086412,3.89675913 17.814796,4.48817518 17.7913781,4.68035037 L13.6597623,8.85319706 C13.535734,8.78575182 13.407716,8.7228613 13.2734533,8.6692555" id="Fill-21"></path>
                </g>
            </g>
        </g>
    </g>
</svg>