<?xml version="1.0" encoding="UTF-8" standalone="no"?>
<svg width="60px" height="60px" viewBox="0 0 60 60" version="1.1" xmlns="http://www.w3.org/2000/svg" xmlns:xlink="http://www.w3.org/1999/xlink" xmlns:sketch="http://www.bohemiancoding.com/sketch/ns">
    <!-- Generator: Sketch 3.2.2 (9983) - http://www.bohemiancoding.com/sketch -->
    <title>icon-tag-deployment</title>
    <desc>Created with Sketch.</desc>
    <defs></defs>
    <g id="Page-1" stroke="none" stroke-width="1" fill="none" fill-rule="evenodd" sketch:type="MSPage">
        <g id="comunity-tags-icons" sketch:type="MSArtboardGroup" transform="translate(-842.000000, -2590.000000)">
            <g id="icon-tag-deployment" sketch:type="MSLayerGroup" transform="translate(842.000000, 2590.000000)">
                <ellipse id="Oval-1" fill="#8EB43F" sketch:type="MSShapeGroup" cx="30" cy="30" rx="30" ry="30"></ellipse>
                <g id="icon-tag-deploy" transform="translate(16.000000, 9.000000)" sketch:type="MSShapeGroup">
                    <path d="M13.6299459,16.25 C21.1574054,16.25 27.2598919,14.40275 27.2598919,12.125 C27.2598919,9.84725 21.1574054,8 13.6299459,8 C6.10248649,8 0,9.84725 0,12.125 C0,14.40275 6.10172973,16.25 13.6299459,16.25 L13.6299459,16.25 Z M13.6299459,9.506 C20.3196757,9.506 25.7425946,10.67825 25.7425946,12.125 C25.7425946,13.57175 20.3196757,14.744 13.6299459,14.744 C6.94021622,14.744 1.51805405,13.57175 1.51805405,12.125 C1.51805405,10.67825 6.94021622,9.506 13.6299459,9.506 L13.6299459,9.506 Z M27.2591351,15.5 C27.2591351,15.23675 27.1766486,14.981 27.0457297,14.72975 C26.6665946,14.99825 26.2261622,15.25175 25.7395676,15.4925 C25.7395676,15.4955 25.7410811,15.49775 25.7410811,15.50075 L25.7372973,15.50075 L25.7372973,15.52025 C25.6934054,17.16425 20.2916757,18.494 13.6291892,18.494 C6.9667027,18.494 1.56497297,17.165 1.52108108,15.52025 L1.52108108,15.5 L1.51805405,15.5 C1.51805405,15.497 1.51956757,15.49475 1.51956757,15.49175 C1.03297297,15.25175 0.592540541,14.99825 0.213405405,14.729 C0.0824864865,14.981 0,15.23675 0,15.5 C0,15.518 0.00756756757,15.53525 0.00832432432,15.55325 L0.00832432432,19.95575 C0.00756756757,19.97075 0,19.985 0,20 C0,22.48475 6.10172973,24.5 13.6299459,24.5 C21.1581622,24.5 27.2598919,22.48475 27.2598919,20 C27.2598919,19.985 27.2523243,19.97075 27.2515676,19.95575 L27.2515676,15.55325 C27.2523243,15.536 27.2591351,15.518 27.2591351,15.5 L27.2591351,15.5 Z M13.6299459,22.99325 C6.94021622,22.99325 1.51805405,21.653 1.51805405,20 L1.52183784,20 L1.52183784,19.9805 L1.52183784,17.93975 L1.52183784,17.56025 C2.07275676,17.91275 2.76216216,18.23525 3.56205405,18.5255 C3.60443243,18.54125 3.64454054,18.55625 3.68691892,18.57125 C4.47394595,18.84875 5.36313514,19.09325 6.34010811,19.298 C6.42789189,19.31675 6.51794595,19.334 6.608,19.352 C7.02875676,19.43525 7.46162162,19.5125 7.90962162,19.58075 C7.99059459,19.5935 8.07005405,19.607 8.15254054,19.61975 C8.66713514,19.69475 9.19762162,19.75925 9.74324324,19.8125 C9.84918919,19.823 9.95740541,19.82975 10.0641081,19.8395 C10.5098378,19.88 10.9631351,19.91225 11.4262703,19.937 C11.5806486,19.94525 11.7342703,19.9535 11.8901622,19.9595 C12.4615135,19.98425 13.0396757,20.00075 13.6307027,20.00075 C14.2217297,20.00075 14.7998919,19.985 15.3712432,19.9595 C15.5278919,19.9535 15.6807568,19.9445 15.8351351,19.937 C16.2975135,19.91225 16.7515676,19.88 17.1972973,19.8395 C17.304,19.82975 17.4122162,19.823 17.5181622,19.8125 C18.0637838,19.75925 18.5942703,19.69475 19.1088649,19.61975 C19.1913514,19.607 19.2708108,19.5935 19.3517838,19.58075 C19.7997838,19.5125 20.2326486,19.436 20.6534054,19.352 C20.7427027,19.334 20.8327568,19.31675 20.9212973,19.298 C21.8982703,19.094 22.7874595,18.84875 23.5744865,18.57125 C23.6168649,18.55625 23.656973,18.54125 23.6993514,18.5255 C24.5,18.23525 25.1894054,17.91275 25.7395676,17.56025 L25.7395676,17.93975 L25.7395676,19.9805 L25.7395676,20 L25.7433514,20 L25.7441081,20 C25.7425946,21.653 20.3196757,22.99325 13.6299459,22.99325 L13.6299459,22.99325 Z M27.2591351,23.75 C27.2591351,23.48675 27.1766486,23.231 27.0457297,22.97975 C26.6665946,23.24825 26.2261622,23.50175 25.7395676,23.7425 C25.7395676,23.7455 25.7410811,23.74775 25.7410811,23.75075 L25.7372973,23.75075 L25.7372973,23.77025 C25.6934054,25.41425 20.2916757,26.744 13.6291892,26.744 C6.9667027,26.744 1.56497297,25.415 1.52108108,23.77025 L1.52108108,23.75 L1.51805405,23.75 C1.51805405,23.747 1.51956757,23.74475 1.51956757,23.74175 C1.03297297,23.50175 0.592540541,23.24825 0.213405405,22.979 C0.0824864865,23.231 0,23.48675 0,23.75 C0,23.768 0.00756756757,23.78525 0.00832432432,23.80325 L0.00832432432,28.20575 C0.00756756757,28.2215 0,28.235 0,28.25 C0,30.73475 6.10172973,32.75 13.6299459,32.75 C21.1581622,32.75 27.2598919,30.73475 27.2598919,28.25 C27.2598919,28.235 27.2523243,28.22075 27.2515676,28.20575 L27.2515676,23.80325 C27.2523243,23.786 27.2591351,23.768 27.2591351,23.75 L27.2591351,23.75 Z M13.6299459,31.24325 C6.94021622,31.24325 1.51805405,29.903 1.51805405,28.25 L1.52183784,28.25 L1.52183784,28.2305 L1.52183784,26.18975 L1.52183784,25.81025 C2.07275676,26.16275 2.76216216,26.48525 3.56205405,26.7755 C3.60443243,26.79125 3.64454054,26.80625 3.68691892,26.82125 C4.47394595,27.09875 5.36313514,27.34325 6.34010811,27.548 C6.42789189,27.56675 6.51794595,27.584 6.608,27.602 C7.02875676,27.68525 7.46162162,27.76175 7.90962162,27.83075 C7.99059459,27.8435 8.07005405,27.85775 8.15254054,27.86975 C8.66713514,27.94475 9.19762162,28.00925 9.74324324,28.0625 C9.84918919,28.073 9.95740541,28.07975 10.0641081,28.0895 C10.5098378,28.13 10.9631351,28.16225 11.4262703,28.187 C11.5806486,28.19525 11.7342703,28.2035 11.8901622,28.2095 C12.4615135,28.2335 13.0396757,28.25075 13.6307027,28.25075 C14.2217297,28.25075 14.7998919,28.23425 15.3712432,28.2095 C15.5278919,28.2035 15.6807568,28.1945 15.8351351,28.187 C16.2975135,28.16225 16.7515676,28.13 17.1972973,28.0895 C17.304,28.07975 17.4122162,28.073 17.5181622,28.0625 C18.0637838,28.00925 18.5942703,27.94475 19.1088649,27.86975 C19.1913514,27.85775 19.2708108,27.8435 19.3517838,27.83075 C19.7997838,27.76175 20.2326486,27.686 20.6534054,27.602 C20.7427027,27.584 20.8327568,27.56675 20.9212973,27.548 C21.8982703,27.344 22.7874595,27.09875 23.5744865,26.82125 C23.6168649,26.80625 23.656973,26.79125 23.6993514,26.7755 C24.5,26.48525 25.1894054,26.16275 25.7395676,25.81025 L25.7395676,26.18975 L25.7395676,28.2305 L25.7395676,28.25 L25.7433514,28.25 L25.7441081,28.25 C25.7425946,29.903 20.3196757,31.24325 13.6299459,31.24325 L13.6299459,31.24325 Z M27.2591351,32 C27.2591351,31.73675 27.1766486,31.48025 27.0457297,31.22975 C26.6665946,31.49825 26.2261622,31.75175 25.7395676,31.9925 C25.7395676,31.9955 25.7410811,31.99775 25.7410811,32.00075 L25.7372973,32.00075 L25.7372973,32.02025 C25.6934054,33.66425 20.2916757,34.994 13.6291892,34.994 C6.9667027,34.994 1.56497297,33.665 1.52108108,32.02025 L1.52108108,32 L1.51805405,32 C1.51805405,31.997 1.51956757,31.99475 1.51956757,31.99175 C1.03297297,31.75175 0.592540541,31.49825 0.213405405,31.229 C0.0824864865,31.48025 0,31.73675 0,32 C0,32.018 0.00756756757,32.03525 0.00832432432,32.05325 L0.00832432432,36.45575 C0.00756756757,36.47075 0,36.485 0,36.5 C0,38.98475 6.10172973,41 13.6299459,41 C21.1581622,41 27.2598919,38.98475 27.2598919,36.5 C27.2598919,36.485 27.2523243,36.47075 27.2515676,36.45575 L27.2515676,32.05325 C27.2523243,32.03525 27.2591351,32.018 27.2591351,32 L27.2591351,32 Z M13.6299459,39.49325 C6.94021622,39.49325 1.51805405,38.153 1.51805405,36.5 L1.52183784,36.5 L1.52183784,36.4805 L1.52183784,34.43975 L1.52183784,34.06025 C2.07275676,34.41275 2.76216216,34.73525 3.56205405,35.0255 C3.60443243,35.04125 3.64454054,35.05625 3.68691892,35.07125 C4.47394595,35.34875 5.36313514,35.59325 6.34010811,35.798 C6.42789189,35.81675 6.51794595,35.834 6.608,35.852 C7.02875676,35.93525 7.46162162,36.01175 7.90962162,36.08075 C7.99059459,36.0935 8.07005405,36.107 8.15254054,36.11975 C8.66713514,36.19475 9.19762162,36.25925 9.74324324,36.3125 C9.84918919,36.323 9.95740541,36.32975 10.0641081,36.3395 C10.5098378,36.38 10.9631351,36.41225 11.4262703,36.437 C11.5806486,36.44525 11.7342703,36.4535 11.8901622,36.4595 C12.4615135,36.48425 13.0396757,36.50075 13.6307027,36.50075 C14.2217297,36.50075 14.7998919,36.485 15.3712432,36.4595 C15.5278919,36.4535 15.6807568,36.4445 15.8351351,36.437 C16.2975135,36.41225 16.7515676,36.38 17.1972973,36.3395 C17.304,36.32975 17.4122162,36.323 17.5181622,36.3125 C18.0637838,36.25925 18.5942703,36.19475 19.1088649,36.11975 C19.1913514,36.107 19.2708108,36.0935 19.3517838,36.08075 C19.7997838,36.01175 20.2326486,35.936 20.6534054,35.852 C20.7427027,35.834 20.8327568,35.81675 20.9212973,35.798 C21.8982703,35.594 22.7874595,35.34875 23.5744865,35.07125 C23.6168649,35.05625 23.656973,35.04125 23.6993514,35.0255 C24.5,34.73525 25.1894054,34.41275 25.7395676,34.06025 L25.7395676,34.43975 L25.7395676,36.4805 L25.7395676,36.5 L25.7433514,36.5 L25.7441081,36.5 C25.7425946,38.153 20.3196757,39.49325 13.6299459,39.49325 L13.6299459,39.49325 Z" id="Shape" stroke="#FFFFFF" stroke-width="0.5" fill="#FFFFFF"></path>
                    <polygon id="Triangle-2" fill="#8EB43F" transform="translate(14.000000, 10.000000) scale(1, -1) translate(-14.000000, -10.000000) " points="14 7 19 13 9 13 "></polygon>
                    <rect id="Rectangle-9" fill="#FFFFFF" x="13" y="0" width="2" height="6"></rect>
                    <polygon id="Triangle-1" fill="#FFFFFF" transform="translate(14.000000, 8.000000) scale(1, -1) translate(-14.000000, -8.000000) " points="14 6 18 10 10 10 "></polygon>
                </g>
            </g>
        </g>
    </g>
</svg>