<?xml version="1.0" encoding="UTF-8" standalone="no"?>
<svg xmlns:sketch="http://www.bohemiancoding.com/sketch/ns" xmlns="http://www.w3.org/2000/svg" height="60px" width="60px" version="1.1" xmlns:xlink="http://www.w3.org/1999/xlink" viewBox="0 0 60 60"><!-- Generator: Sketch 3.2.2 (9983) - http://www.bohemiancoding.com/sketch -->
 <title>icon-tag-deployment</title>
 <desc>Created with Sketch.</desc>
 <g id="Page-1" fill-rule="evenodd" sketch:type="MSPage" fill="none">
  <g id="comunity-tags-icons" transform="translate(-842 -2590)" sketch:type="MSArtboardGroup">
   <g id="icon-tag-deployment" transform="translate(842 2590)" sketch:type="MSLayerGroup">
    <ellipse id="Oval-1" rx="30" sketch:type="MSShapeGroup" ry="30" cy="30" cx="30" fill="#8EB43F"/>
    <g id="icon-tag-deploy" sketch:type="MSShapeGroup" transform="translate(16 9)">
     <path id="Shape" stroke="#fff" stroke-width=".5" fill="#fff" d="m13.63 16.25c7.527 0 13.63-1.847 13.63-4.125 0-2.2778-6.103-4.125-13.63-4.125-7.5275 0-13.63 1.8472-13.63 4.125 0 2.278 6.1017 4.125 13.63 4.125zm0-6.744c6.69 0 12.113 1.172 12.113 2.619s-5.423 2.619-12.113 2.619c-6.6898 0-12.112-1.172-12.112-2.619 0.0001-1.447 5.4222-2.619 12.112-2.619zm13.629 5.994c0-0.263-0.082-0.519-0.213-0.77-0.379 0.268-0.82 0.522-1.306 0.762 0 0.004 0.001 0.006 0.001 0.009h-0.004v0.019c-0.044 1.644-5.445 2.974-12.108 2.974-6.6623 0-12.064-1.329-12.108-2.974l0.0001-0.02h-0.003c0-0.003 0.0015-0.005 0.0015-0.008-0.4866-0.24-0.92706-0.494-1.3062-0.763-0.13091 0.252-0.2134 0.508-0.2134 0.771 0 0.018 0.0075676 0.035 0.0083243 0.053v4.403c-0.0007567 0.015-0.0083243 0.029-0.0083243 0.044 0 2.485 6.1017 4.5 13.63 4.5 7.528 0 13.63-2.015 13.63-4.5 0-0.015-0.008-0.029-0.008-0.044v-4.403c0-0.017 0.007-0.035 0.007-0.053zm-13.629 7.493c-6.6898 0-12.112-1.34-12.112-2.993h0.0038v-0.02-2.04-0.38c0.551 0.353 1.2404 0.675 2.0403 0.966 0.0423 0.015 0.0824 0.03 0.1248 0.045 0.787 0.278 1.6762 0.522 2.6532 0.727 0.0878 0.019 0.1778 0.036 0.2679 0.054 0.4208 0.083 0.8536 0.16 1.3016 0.229 0.081 0.013 0.1605 0.026 0.2429 0.039 0.5146 0.075 1.0451 0.139 1.5907 0.192 0.106 0.011 0.2142 0.018 0.3208 0.028 0.446 0.04 0.899 0.072 1.362 0.097 0.155 0.008 0.308 0.017 0.464 0.023 0.572 0.024 1.15 0.041 1.741 0.041s1.169-0.016 1.74-0.041c0.157-0.006 0.31-0.016 0.464-0.023 0.463-0.025 0.917-0.057 1.362-0.097 0.107-0.01 0.215-0.017 0.321-0.028 0.546-0.053 1.076-0.117 1.591-0.192 0.082-0.013 0.162-0.026 0.243-0.039 0.448-0.069 0.881-0.145 1.301-0.229 0.09-0.018 0.18-0.035 0.268-0.054 0.977-0.204 1.866-0.449 2.653-0.727 0.043-0.015 0.083-0.03 0.125-0.045 0.801-0.291 1.49-0.613 2.041-0.966v0.38 2.04 0.02h0.003 0.001c-0.001 1.653-5.424 2.993-12.114 2.993zm13.629 0.757c0-0.263-0.082-0.519-0.213-0.77-0.379 0.268-0.82 0.522-1.306 0.762 0 0.004 0.001 0.006 0.001 0.009h-0.004v0.019c-0.044 1.644-5.445 2.974-12.108 2.974-6.6623 0-12.064-1.329-12.108-2.974l0.0001-0.02h-0.003c0-0.003 0.0015-0.005 0.0015-0.008-0.4866-0.24-0.92706-0.494-1.3062-0.763-0.13091 0.252-0.2134 0.508-0.2134 0.771 0 0.018 0.0075676 0.035 0.0083243 0.053v4.403c-0.0007567 0.016-0.0083243 0.029-0.0083243 0.044 0 2.485 6.1017 4.5 13.63 4.5 7.528 0 13.63-2.015 13.63-4.5 0-0.015-0.008-0.029-0.008-0.044v-4.403c0-0.017 0.007-0.035 0.007-0.053zm-13.629 7.493c-6.6898 0-12.112-1.34-12.112-2.993h0.0038v-0.02-2.04-0.38c0.551 0.353 1.2404 0.675 2.0403 0.966 0.0423 0.015 0.0824 0.03 0.1248 0.045 0.787 0.278 1.6762 0.522 2.6532 0.727 0.0878 0.019 0.1778 0.036 0.2679 0.054 0.4208 0.083 0.8536 0.16 1.3016 0.229 0.081 0.013 0.1605 0.027 0.2429 0.039 0.5146 0.075 1.0451 0.139 1.5907 0.192 0.106 0.011 0.2142 0.018 0.3208 0.028 0.446 0.04 0.899 0.072 1.362 0.097 0.155 0.008 0.308 0.017 0.464 0.023 0.572 0.024 1.15 0.041 1.741 0.041s1.169-0.017 1.74-0.041c0.157-0.006 0.31-0.016 0.464-0.023 0.463-0.025 0.917-0.057 1.362-0.097 0.107-0.01 0.215-0.017 0.321-0.028 0.546-0.053 1.076-0.117 1.591-0.192 0.082-0.012 0.162-0.026 0.243-0.039 0.448-0.069 0.881-0.145 1.301-0.229 0.09-0.018 0.18-0.035 0.268-0.054 0.977-0.204 1.866-0.449 2.653-0.727 0.043-0.015 0.083-0.03 0.125-0.045 0.801-0.291 1.49-0.613 2.041-0.966v0.38 2.04 0.02h0.003 0.001c-0.001 1.653-5.424 2.993-12.114 2.993zm13.629 0.757c0-0.263-0.082-0.52-0.213-0.77-0.379 0.268-0.82 0.522-1.306 0.762 0 0.004 0.001 0.006 0.001 0.009h-0.004v0.019c-0.044 1.644-5.445 2.974-12.108 2.974-6.6623 0-12.064-1.329-12.108-2.974l0.0001-0.02h-0.003c0-0.003 0.0015-0.005 0.0015-0.008-0.4866-0.24-0.92706-0.494-1.3062-0.763-0.13091 0.251-0.2134 0.508-0.2134 0.771 0 0.018 0.0075676 0.035 0.0083243 0.053v4.403c-0.0007567 0.015-0.0083243 0.029-0.0083243 0.044 0 2.485 6.1017 4.5 13.63 4.5 7.528 0 13.63-2.015 13.63-4.5 0-0.015-0.008-0.029-0.008-0.044v-4.403c0-0.018 0.007-0.035 0.007-0.053zm-13.629 7.493c-6.6898 0-12.112-1.34-12.112-2.993h0.0038v-0.02-2.04-0.38c0.551 0.353 1.2404 0.675 2.0403 0.966 0.0423 0.015 0.0824 0.03 0.1248 0.045 0.787 0.278 1.6762 0.522 2.6532 0.727 0.0878 0.019 0.1778 0.036 0.2679 0.054 0.4208 0.083 0.8536 0.16 1.3016 0.229 0.081 0.013 0.1605 0.026 0.2429 0.039 0.5146 0.075 1.0451 0.139 1.5907 0.192 0.106 0.011 0.2142 0.018 0.3208 0.028 0.446 0.04 0.899 0.072 1.362 0.097 0.155 0.008 0.308 0.017 0.464 0.023 0.572 0.024 1.15 0.041 1.741 0.041s1.169-0.016 1.74-0.041c0.157-0.006 0.31-0.016 0.464-0.023 0.463-0.025 0.917-0.057 1.362-0.097 0.107-0.01 0.215-0.017 0.321-0.028 0.546-0.053 1.076-0.117 1.591-0.192 0.082-0.013 0.162-0.026 0.243-0.039 0.448-0.069 0.881-0.145 1.301-0.229 0.09-0.018 0.18-0.035 0.268-0.054 0.977-0.204 1.866-0.449 2.653-0.727 0.043-0.015 0.083-0.03 0.125-0.045 0.801-0.291 1.49-0.613 2.041-0.966v0.38 2.04 0.02h0.003 0.001c-0.001 1.653-5.424 2.993-12.114 2.993z"/>
     <polygon id="Triangle-2" transform="translate(14 10) scale(1 -1) translate(-14 -10)" points="14 7 19 13 9 13" fill="#8EB43F"/>
     <rect id="Rectangle-9" height="6" width="2" y="0" x="13" fill="#fff"/>
     <polygon id="Triangle-1" transform="translate(14 8) scale(1 -1) translate(-14 -8)" points="14 6 18 10 10 10" fill="#fff"/>
    </g>
   </g>
  </g>
 </g>
</svg>
