<?xml version="1.0" encoding="UTF-8" standalone="no"?>
<svg width="60px" height="60px" viewBox="0 0 60 60" version="1.1" xmlns="http://www.w3.org/2000/svg" xmlns:xlink="http://www.w3.org/1999/xlink" xmlns:sketch="http://www.bohemiancoding.com/sketch/ns">
    <!-- Generator: Sketch 3.2.2 (9983) - http://www.bohemiancoding.com/sketch -->
    <title>icon-tag-clojure</title>
    <desc>Created with Sketch.</desc>
    <defs></defs>
    <g id="Page-1" stroke="none" stroke-width="1" fill="none" fill-rule="evenodd" sketch:type="MSPage">
        <g id="comunity-tags-icons" sketch:type="MSArtboardGroup" transform="translate(-842.000000, -2069.000000)">
            <g id="icon-tag-clojure" sketch:type="MSLayerGroup" transform="translate(842.000000, 2069.000000)">
                <ellipse id="Oval-1" fill="#5881D8" sketch:type="MSShapeGroup" cx="30" cy="30" rx="30" ry="30"></ellipse>
                <g id="clojure-1-2" transform="translate(14.000000, 14.000000)" fill="#FFFFFF" sketch:type="MSShapeGroup">
                    <path d="M10.4934146,1.13121951 C14.0392683,-0.26195122 18.0709756,-0.356341463 21.6812195,0.858292683 C23.9758537,1.62 26.0956098,2.90268293 27.8392683,4.57756098 C30.5370732,7.13926829 32.3209756,10.644878 32.7841463,14.3378049 C32.9290244,15.4763415 32.9839024,16.632439 32.8682927,17.7768293 C32.8514634,18.6658537 32.5543902,19.5204878 32.1665854,20.3114634 C31.5782927,21.5092683 30.6095122,22.524878 29.4117073,23.1219512 C27.695122,23.987561 25.704878,24.1134146 23.8207317,23.915122 C25.3170732,22.4326829 26.3619512,20.4973171 26.747561,18.425122 C27.1595122,16.2607317 26.8726829,13.9682927 25.9207317,11.9802439 C24.8736585,9.76682927 23.0231707,7.94780488 20.7914634,6.9402439 C18.1243902,5.71390244 14.9407317,5.70219512 12.257561,6.8897561 C11.3407317,6.24804878 10.2526829,5.89536585 9.1595122,5.70146341 C7.08731707,5.32097561 4.88268293,5.73512195 3.10317073,6.86634146 C4.95365854,4.30317073 7.54317073,2.27560976 10.4934146,1.13121951 L10.4934146,1.13121951 Z" id="Shape"></path>
                    <path d="M13.7356098,8.20536585 C15.504878,7.61268293 17.4643902,7.61634146 19.2314634,8.21341463 C21.2487805,8.88292683 22.9931707,10.325122 24.0387805,12.1741463 C25.0514634,13.9419512 25.4078049,16.0712195 25.025122,18.072439 C24.6314634,20.2258537 23.3758537,22.1934146 21.6153659,23.4885366 C21.27,23.387561 20.9063415,23.292439 20.627561,23.0517073 C20.0912195,22.6009756 19.7034146,22.0068293 19.3485366,21.4104878 C18.6314634,20.177561 18.09,18.8517073 17.6004878,17.514878 C17.4007317,16.9507317 17.2009756,16.385122 17.0546341,15.8034146 C16.7136585,14.5192683 16.35,13.2380488 15.8809756,11.9941463 C15.3643902,10.6331707 14.6926829,9.31243902 13.7356098,8.20536585 L13.7356098,8.20536585 Z" id="Shape"></path>
                    <path d="M3.51658537,9.66365854 C5.26536585,8.47829268 7.52487805,8.10219512 9.57146341,8.60414634 C7.9104878,10.062439 6.72,12.0512195 6.25097561,14.2134146 C5.76365854,16.422439 6.00878049,18.7902439 6.96219512,20.8441463 C7.98804878,23.0868293 9.83707317,24.9373171 12.0768293,25.9682927 C14.9041463,27.294878 18.3234146,27.2414634 21.1156098,25.8460976 C22.067561,26.1753659 23.0670732,26.3304878 24.0629268,26.4570732 C26.0268293,26.6729268 28.0141463,26.4073171 29.9239024,25.9397561 C28.3280488,28.2073171 26.1526829,30.0629268 23.6582927,31.2746341 C21.3834146,32.3868293 18.8465854,32.9517073 16.3163415,32.9282927 C13.0104878,32.897561 9.71560976,31.8534146 7.01560976,29.9392683 C5.22512195,28.6829268 3.68853659,27.065122 2.52585366,25.2117073 C1.27609756,23.2280488 0.463170732,20.9721951 0.156585366,18.647561 C-0.00951219512,17.31 -0.0614634146,15.947561 0.130243902,14.6107317 C0.686341463,12.6614634 1.81170732,10.8087805 3.51658537,9.66365854 L3.51658537,9.66365854 Z" id="Shape"></path>
                    <path d="M8.50243902,12.9614634 C9.13829268,11.5185366 10.1758537,10.2592683 11.4643902,9.35195122 C12.1631707,9.75878049 12.8085366,10.2863415 13.2541463,10.9690244 C14.1182927,12.2619512 14.7036585,13.715122 15.2465854,15.1653659 C14.5946341,16.4839024 13.9170732,17.7892683 13.2365854,19.0931707 C12.5092683,20.5192683 11.7446341,21.9504878 11.3634146,23.5156098 C9.7295122,22.3317073 8.52219512,20.5704878 8.0304878,18.6117073 C7.5504878,16.7458537 7.7195122,14.7219512 8.50243902,12.9614634 L8.50243902,12.9614634 Z" id="Shape"></path>
                    <path d="M13.7480488,21.8509756 C14.2843902,20.1036585 15.0321951,18.4309756 15.7836585,16.7678049 C16.2585366,18.4170732 16.7041463,20.0787805 17.3209756,21.6819512 C17.7636585,22.7963415 18.3139024,23.9114634 19.2131707,24.7309756 C17.3604878,25.3529268 15.3007317,25.3207317 13.4678049,24.6431707 C13.3887805,23.7058537 13.4590244,22.7502439 13.7480488,21.8509756 L13.7480488,21.8509756 Z" id="Shape"></path>
                </g>
            </g>
        </g>
    </g>
</svg>