<?xml version="1.0" encoding="UTF-8" standalone="no"?>
<svg width="60px" height="60px" viewBox="0 0 60 60" version="1.1" xmlns="http://www.w3.org/2000/svg" xmlns:xlink="http://www.w3.org/1999/xlink" xmlns:sketch="http://www.bohemiancoding.com/sketch/ns">
    <!-- Generator: Sketch 3.2.2 (9983) - http://www.bohemiancoding.com/sketch -->
    <title>icon-tag-php</title>
    <desc>Created with Sketch.</desc>
    <defs></defs>
    <g id="Page-1" stroke="none" stroke-width="1" fill="none" fill-rule="evenodd" sketch:type="MSPage">
        <g id="comunity-tags-icons" sketch:type="MSArtboardGroup" transform="translate(-842.000000, -1029.000000)">
            <g id="icon-tag-php" sketch:type="MSLayerGroup" transform="translate(842.000000, 1029.000000)">
                <ellipse id="Oval-1" fill="#6C7EBB" sketch:type="MSShapeGroup" cx="30" cy="30" rx="30" ry="30"></ellipse>
                <g id="PHP-logo" transform="translate(9.000000, 21.000000)" fill="#FFFFFF" sketch:type="MSShapeGroup">
                    <path d="M0,20 L3.03317536,4.11764706 L10.0473934,4.11764706 C13.0805687,4.31372549 14.5971564,5.88235294 14.5971564,8.62745098 C14.5971564,13.3333333 10.9952607,16.0784314 7.77251185,15.8823529 L4.36018957,15.8823529 L3.60189573,20 L0,20 L0,20 Z M5.11848341,12.9411765 L6.06635071,7.05882353 L8.53080569,7.05882353 C9.85781991,7.05882353 10.8056872,7.64705882 10.8056872,8.82352941 C10.6161137,12.1568627 9.09952607,12.745098 7.39336493,12.9411765 L5.11848341,12.9411765 L5.11848341,12.9411765 Z" id="p"></path>
                    <path d="M14.4597156,15.8823529 L17.492891,0 L21.0947867,0 L20.3364929,4.11764706 L23.7488152,4.11764706 C26.7819905,4.31372549 27.9194313,5.88235294 27.5402844,7.84313725 L26.2132701,15.8823529 L22.4218009,15.8823529 L23.7488152,8.62745098 C23.9383886,7.64705882 23.9383886,7.05882353 22.6113744,7.05882353 L19.7677725,7.05882353 L18.0616114,15.8823529 L14.4597156,15.8823529 L14.4597156,15.8823529 Z" id="h"></path>
                    <g id="p2" transform="translate(26.402844, 4.117647)">
                        <path d="M0,15.8823529 L3.03317536,0 L10.0473934,0 C13.0805687,0.196078431 14.5971564,1.76470588 14.5971564,4.50980392 C14.5971564,9.21568627 10.9952607,11.9607843 7.77251185,11.7647059 L4.36018957,11.7647059 L3.60189573,15.8823529 L0,15.8823529 L0,15.8823529 Z M5.11848341,8.82352941 L6.06635071,2.94117647 L8.53080569,2.94117647 C9.85781991,2.94117647 10.8056872,3.52941176 10.8056872,4.70588235 C10.6161137,8.03921569 9.09952607,8.62745098 7.39336493,8.82352941 L5.11848341,8.82352941 L5.11848341,8.82352941 Z" id="p"></path>
                    </g>
                </g>
            </g>
        </g>
    </g>
</svg>