<?xml version="1.0" encoding="UTF-8" standalone="no"?>
<svg xmlns:sketch="http://www.bohemiancoding.com/sketch/ns" xmlns="http://www.w3.org/2000/svg" height="60px" width="60px" version="1.1" xmlns:xlink="http://www.w3.org/1999/xlink" viewBox="0 0 60 60"><!-- Generator: Sketch 3.2.2 (9983) - http://www.bohemiancoding.com/sketch -->
 <title>icon-tag-infrastructure</title>
 <desc>Created with Sketch.</desc>
 <g id="Page-1" fill-rule="evenodd" sketch:type="MSPage" fill="none">
  <g id="comunity-tags-icons" transform="translate(-842 -2851)" sketch:type="MSArtboardGroup">
   <g id="icon-tag-infrastructure" transform="translate(842 2851)" sketch:type="MSLayerGroup">
    <ellipse id="Oval-1" rx="30" sketch:type="MSShapeGroup" ry="30" cy="30" cx="30" fill="#8EB43F"/>
    <g id="1056-org-chart-toolbar@2x" sketch:type="MSShapeGroup" fill="#fff" transform="translate(10 7)">
     <g id="_x31_056-org-chart-toolbar_x40_2x.png">
      <path id="Shape" d="m15.455 10.909h9.09c0.503 0 0.91-0.406 0.91-0.909v-9.0909c0-0.50274-0.407-0.9091-0.91-0.9091h-9.09c-0.503 0-0.91 0.40636-0.91 0.90909v9.0909c0 0.503 0.407 0.909 0.91 0.909zm0.909-9.0908h7.272v7.2727h-7.272v-7.2727zm-10 19.091h12.727v6.364h1.818v-6.364h12.727v6.364h1.819v-7.273c0-0.502-0.407-0.909-0.91-0.909h-13.636v-6.364h-1.818v6.364h-13.636c-0.5032 0-0.9095 0.407-0.9095 0.909v7.273h1.8181v-6.364zm3.6364 8.182h-9.0909c-0.50274 0-0.9091 0.406-0.9091 0.909v9.091c0 0.503 0.40636 0.909 0.90909 0.909h9.0909c0.503 0 0.909-0.406 0.909-0.909v-9.091c0-0.503-0.406-0.909-0.909-0.909zm-0.9091 9.091h-7.2727v-7.273h7.2727v7.273zm15.454-9.091h-9.09c-0.503 0-0.91 0.406-0.91 0.909v9.091c0 0.503 0.407 0.909 0.91 0.909h9.09c0.503 0 0.91-0.406 0.91-0.909v-9.091c0-0.503-0.407-0.909-0.91-0.909zm-0.909 9.091h-7.272v-7.273h7.272v7.273zm15.455-9.091h-9.091c-0.503 0-0.909 0.406-0.909 0.909v9.091c0 0.503 0.406 0.909 0.909 0.909h9.091c0.503 0 0.909-0.406 0.909-0.909v-9.091c0-0.503-0.406-0.909-0.909-0.909zm-0.909 9.091h-7.273v-7.273h7.273v7.273z"/>
     </g>
    </g>
   </g>
  </g>
 </g>
</svg>
