<?xml version="1.0" encoding="UTF-8" standalone="no"?>
<svg xmlns:sketch="http://www.bohemiancoding.com/sketch/ns" xmlns="http://www.w3.org/2000/svg" height="60px" width="60px" version="1.1" xmlns:xlink="http://www.w3.org/1999/xlink" viewBox="0 0 60 60"><!-- Generator: Sketch 3.2.2 (9983) - http://www.bohemiancoding.com/sketch -->
 <title>icon-tag-ruby</title>
 <desc>Created with Sketch.</desc>
 <defs>
  <rect id="path-1" rx="44" height="60" width="60" y="0" x="0"/>
 </defs>
 <g id="Page-1" fill-rule="evenodd" sketch:type="MSPage" fill="none">
  <g id="comunity-tags-icons" transform="translate(-842 -1549)" sketch:type="MSArtboardGroup">
   <g id="icon-tag-ruby" transform="translate(842 1549)" sketch:type="MSLayerGroup">
    <g id="icon-ruby">
     <g id="Page-1">
      <g id="listing---tutorials">
       <g id="thread-9">
        <g id="icon">
         <g id="mask-2" sketch:type="MSShapeGroup" fill="#fff">
          <rect id="path-1" rx="44" height="60" width="60" y="0" x="0"/>
         </g>
         <g id="Rectangle-33" sketch:type="MSShapeGroup" fill="#E6261B">
          <rect id="path-1" rx="44" height="60" width="60" y="0" x="0"/>
         </g>
         <g id="logo-Clipped">
          <mask id="mask-2" sketch:name="path-1" fill="white">
           <use xlink:href="#path-1"/>
          </mask>
         </g>
        </g>
       </g>
      </g>
     </g>
    </g>
    <g id="logo" sketch:type="MSShapeGroup" transform="translate(14 19)">
     <g id="Shape" transform="translate(.48276 .31034)">
      <path d="m20.764 9.3461c-0.009 0.0399-0.019 0.0904-0.026 0.1238l-0.301 1.4091 0.317-1.4845 0.01-0.0484" fill="#5DA3C2"/>
      <path d="m11.744 10.289l-0.166 0.589 0.166-0.589" fill="#5DA3C2"/>
      <path d="m2.1393 8.5605l12.641 13.294-6.0461-13.294-6.5946 0.0005zm8.2617 0l5.787 13.156 5.787-13.156-11.574 0.0005zm19.417 0h-6.176l-6.029 13.294 12.205-13.294v0.0005zm-18.698-1.5255h10.38l-5.19-5.4207-5.19 5.4207zm14.115-5.8844h-7.559l5.179 5.4096 2.38-5.4096zm-18.094 0l2.4565 5.5839 5.3467-5.5839h-7.8032zm22.693 5.8844l-3.326-4.9886-2.195 4.9886h5.521zm-27.212 0h5.4407l-2.1455-4.8772-3.2952 4.8772zm3.0043-6.7562h21.14l5.231 7.8458-15.91 16.999-15.909-16.781 5.4483-8.0642v0.00003z" fill="#fff"/>
      <path stroke="#fff" d="m2.1393 8.5605l12.641 13.294-6.0461-13.294-6.5946 0.0005zm8.2617 0l5.787 13.156 5.787-13.156-11.574 0.0005zm19.417 0h-6.176l-6.029 13.294 12.205-13.294v0.0005zm-18.698-1.5255h10.38l-5.19-5.4207-5.19 5.4207zm14.115-5.8844h-7.559l5.179 5.4096 2.38-5.4096zm-18.094 0l2.4565 5.5839 5.3467-5.5839h-7.8032zm22.693 5.8844l-3.326-4.9886-2.195 4.9886h5.521zm-27.212 0h5.4407l-2.1455-4.8772-3.2952 4.8772zm3.0043-6.7562h21.14l5.231 7.8458-15.91 16.999-15.909-16.781 5.4483-8.0642v0.00003z"/>
     </g>
    </g>
   </g>
  </g>
 </g>
</svg>
