<?xml version="1.0" encoding="UTF-8" standalone="no"?>
<svg width="60px" height="60px" viewBox="0 0 60 60" version="1.1" xmlns="http://www.w3.org/2000/svg" xmlns:xlink="http://www.w3.org/1999/xlink" xmlns:sketch="http://www.bohemiancoding.com/sketch/ns">
    <!-- Generator: Sketch 3.2.2 (9983) - http://www.bohemiancoding.com/sketch -->
    <title>icon-tag-general-practice</title>
    <desc>Created with Sketch.</desc>
    <defs></defs>
    <g id="Page-1" stroke="none" stroke-width="1" fill="none" fill-rule="evenodd" sketch:type="MSPage">
        <g id="comunity-tags-icons" sketch:type="MSArtboardGroup" transform="translate(-842.000000, -3113.000000)">
            <g id="icon-tag-general-practice" sketch:type="MSLayerGroup" transform="translate(842.000000, 3113.000000)">
                <ellipse id="Oval-1" fill="#8EB43F" sketch:type="MSShapeGroup" cx="30" cy="30" rx="30" ry="30"></ellipse>
                <path d="M50,23 C50,22.6872727 49.8042857,22.4261818 49.5321429,22.3229091 L49.5342857,22.3178182 L30.2485714,15.0450909 L30.2464286,15.0501818 C30.1685714,15.0210909 30.0871429,15 30,15 C29.9128571,15 29.8314286,15.0210909 29.7535714,15.0501818 L29.7514286,15.0450909 L10.4657143,22.3178182 L10.4678571,22.3229091 C10.1957143,22.4261818 10,22.6872727 10,23 C10,23.3127273 10.1957143,23.5738182 10.4678571,23.6770909 L10.4657143,23.6821818 L14.1235714,25.0618182 C13.5071429,26.12 12.7328571,27.7338182 12.3628571,29.6094545 C11.4185714,29.8370909 10.7142857,30.696 10.7142857,31.7272727 C10.7142857,32.6552727 11.2864286,33.4429091 12.0892857,33.7585455 C11.7821429,39.6829091 10.3407143,44.9985455 10.06,45.9847273 C10.0557143,45.9949091 10.055,46.0050909 10.0507143,46.016 C10.0257143,46.104 10.0071429,46.1650909 10.0071429,46.1650909 L10.0207143,46.1672727 C10.015,46.2029091 10,46.2349091 10,46.2727273 C10,46.6749091 10.3192857,47 10.7142857,47 C11.0721429,47 11.355,46.728 11.4078571,46.3789091 L11.4214286,46.3810909 C11.4214286,46.3810909 12.4357143,42.5410909 13.0671429,38.0487273 L14.2942857,46.3810909 L14.3078571,46.3789091 C14.3592857,46.728 14.6421429,47 15,47 C15.395,47 15.7142857,46.6749091 15.7142857,46.2727273 C15.7142857,46.2349091 15.6992857,46.2029091 15.6935714,46.1665455 L15.7071429,46.1643636 L13.8578571,33.6174545 C14.5285714,33.2501818 15,32.5578182 15,31.7272727 C15,30.8705455 14.5107143,30.1367273 13.8057143,29.7796364 C14.1514286,28.2123636 14.8221429,26.6756364 15.4,25.5425455 L19.245,26.9927273 L17.8607143,40.3781818 L17.8778571,40.3803636 C17.8757143,40.4072727 17.8571429,40.4276364 17.8571429,40.4545455 C17.8571429,40.8567273 18.1764286,41.1818182 18.5714286,41.1818182 C18.6864286,41.1818182 18.7914286,41.1476364 18.8871429,41.0989091 L18.8907143,41.1054545 L24.21,38.3970909 L29.5714286,42.4909091 L29.5785714,42.4807273 C29.6978571,42.5723636 29.8392857,42.6363636 30,42.6363636 C30.1614286,42.6363636 30.3021429,42.5723636 30.4214286,42.4807273 L30.4285714,42.4909091 L35.79,38.3970909 L41.1092857,41.1054545 L41.1128571,41.0989091 C41.2085714,41.1476364 41.3135714,41.1818182 41.4285714,41.1818182 C41.8235714,41.1818182 42.1428571,40.8567273 42.1428571,40.4545455 C42.1428571,40.4276364 42.1242857,40.4072727 42.1214286,40.3803636 L42.1385714,40.3781818 L40.755,26.9927273 L49.5342857,23.6814545 L49.5321429,23.6763636 C49.8042857,23.5738182 50,23.3127273 50,23 L50,23 Z M12.8571429,32.4545455 C12.4621429,32.4545455 12.1428571,32.1294545 12.1428571,31.7272727 C12.1428571,31.3258182 12.4621429,31 12.8571429,31 C13.2521429,31 13.5714286,31.3258182 13.5714286,31.7272727 C13.5714286,32.1294545 13.2521429,32.4545455 12.8571429,32.4545455 L12.8571429,32.4545455 Z M36.0335714,36.8945455 L36.03,36.9010909 C35.9342857,36.8523636 35.8292857,36.8181818 35.7142857,36.8181818 C35.5528571,36.8181818 35.4121429,36.8821818 35.2928571,36.9738182 L35.2857143,36.9636364 L30,41 L24.7142857,36.9636364 L24.7071429,36.9738182 C24.5878571,36.8821818 24.4471429,36.8181818 24.2857143,36.8181818 C24.1707143,36.8181818 24.0657143,36.8523636 23.97,36.9010909 L23.9664286,36.8945455 L19.4185714,39.2101818 L20.6278571,27.5141818 L29.7514286,30.9541818 L29.7535714,30.9490909 C29.8314286,30.9789091 29.9128571,31 30,31 C30.0871429,31 30.1685714,30.9789091 30.2464286,30.9498182 L30.2485714,30.9549091 L39.3721429,27.5149091 L40.5814286,39.2109091 L36.0335714,36.8945455 L36.0335714,36.8945455 Z M30,29.4974545 L12.7714286,23 L30,16.5025455 L47.2285714,23 L30,29.4974545 L30,29.4974545 Z" id="Shape-2" stroke="#FFFFFF" stroke-width="0.5" fill="#FFFFFF" sketch:type="MSShapeGroup"></path>
            </g>
        </g>
    </g>
</svg>