<?xml version="1.0" encoding="UTF-8" standalone="no"?>
<svg xmlns:sketch="http://www.bohemiancoding.com/sketch/ns" xmlns="http://www.w3.org/2000/svg" height="60px" width="60px" version="1.1" xmlns:xlink="http://www.w3.org/1999/xlink" viewBox="0 0 60 60"><!-- Generator: Sketch 3.2.2 (9983) - http://www.bohemiancoding.com/sketch -->
 <title>icon-tag-php</title>
 <desc>Created with Sketch.</desc>
 <g id="Page-1" fill-rule="evenodd" sketch:type="MSPage" fill="none">
  <g id="comunity-tags-icons" transform="translate(-842 -1029)" sketch:type="MSArtboardGroup">
   <g id="icon-tag-php" transform="translate(842 1029)" sketch:type="MSLayerGroup">
    <ellipse id="Oval-1" rx="30" sketch:type="MSShapeGroup" ry="30" cy="30" cx="30" fill="#6C7EBB"/>
    <g id="PHP-logo" sketch:type="MSShapeGroup" fill="#fff" transform="translate(9 21)">
     <path id="p" d="m0 20l3.0332-15.882 7.0138-0.0004c3.034 0.1961 4.55 1.7648 4.55 4.5099 0 4.7055-3.602 7.4505-6.8245 7.2545h-3.4123l-0.7583 4.118h-3.6019zm5.1185-7.059l0.9479-5.8822h2.4644c1.327 0 2.2752 0.5883 2.2752 1.7647-0.19 3.3335-1.7065 3.9215-3.4126 4.1175h-2.2749z"/>
     <path id="h" d="m14.46 15.882l3.033-15.882h3.602l-0.759 4.1176h3.413c3.033 0.1961 4.17 1.7648 3.791 3.7255l-1.327 8.0389h-3.791l1.327-7.2545c0.189-0.9804 0.189-1.5687-1.138-1.5687h-2.843l-1.706 8.8232h-3.602z"/>
     <g id="p2" transform="translate(26.403 4.1176)">
      <path id="p" d="m0 15.882l3.0332-15.882h7.0138c3.034 0.19608 4.55 1.7647 4.55 4.5098 0 4.7059-3.602 7.4512-6.8245 7.2552h-3.4123l-0.7583 4.117h-3.6019zm5.1185-7.0585l0.9479-5.8823h2.4644c1.327 0 2.2752 0.5882 2.2752 1.7647-0.19 3.3333-1.7065 3.9216-3.4126 4.1176h-2.2749z"/>
     </g>
    </g>
   </g>
  </g>
 </g>
</svg>
