<?xml version="1.0" encoding="UTF-8" standalone="no"?>
<svg xmlns:sketch="http://www.bohemiancoding.com/sketch/ns" xmlns="http://www.w3.org/2000/svg" height="60px" width="60px" version="1.1" xmlns:xlink="http://www.w3.org/1999/xlink" viewBox="0 0 60 60"><!-- Generator: Sketch 3.2.2 (9983) - http://www.bohemiancoding.com/sketch -->
 <title>icon-tag-general-practice</title>
 <desc>Created with Sketch.</desc>
 <g id="Page-1" fill-rule="evenodd" sketch:type="MSPage" fill="none">
  <g id="comunity-tags-icons" transform="translate(-842 -3113)" sketch:type="MSArtboardGroup">
   <g id="icon-tag-general-practice" transform="translate(842 3113)" sketch:type="MSLayerGroup">
    <ellipse id="Oval-1" rx="30" sketch:type="MSShapeGroup" ry="30" cy="30" cx="30" fill="#8EB43F"/>
    <path id="Shape-2" d="m50 23c0-0.313-0.196-0.574-0.468-0.677l0.002-0.005-19.285-7.273-0.003 0.005c-0.077-0.029-0.159-0.05-0.246-0.05s-0.169 0.021-0.246 0.05l-0.003-0.005-19.285 7.273 0.002 0.005c-0.272 0.103-0.468 0.364-0.468 0.677s0.196 0.574 0.468 0.677l-0.002 0.005 3.658 1.38c-0.617 1.058-1.391 2.672-1.761 4.547-0.944 0.228-1.649 1.087-1.649 2.118 0 0.928 0.572 1.716 1.375 2.032-0.307 5.924-1.748 11.24-2.029 12.226-0.004 0.01-0.005 0.02-0.009 0.031-0.025 0.088-0.044 0.149-0.044 0.149l0.014 0.002c-0.006 0.036-0.021 0.068-0.021 0.106 0 0.402 0.319 0.727 0.714 0.727 0.358 0 0.641-0.272 0.694-0.621l0.013 0.002s1.015-3.84 1.646-8.332l1.227 8.332 0.014-0.002c0.051 0.349 0.334 0.621 0.692 0.621 0.395 0 0.714-0.325 0.714-0.727 0-0.038-0.015-0.07-0.02-0.106l0.013-0.003-1.849-12.547c0.671-0.367 1.142-1.059 1.142-1.89 0-0.856-0.489-1.59-1.194-1.947 0.345-1.568 1.016-3.104 1.594-4.237l3.845 1.45-1.384 13.385 0.017 0.002c-0.002 0.027-0.021 0.048-0.021 0.075 0 0.402 0.319 0.727 0.714 0.727 0.115 0 0.22-0.034 0.316-0.083l0.004 0.006 5.319-2.708 5.361 4.094 0.008-0.01c0.119 0.091 0.26 0.155 0.421 0.155s0.302-0.064 0.421-0.155l0.008 0.01 5.361-4.094 5.319 2.708 0.004-0.006c0.096 0.049 0.201 0.083 0.316 0.083 0.395 0 0.714-0.325 0.714-0.727 0-0.027-0.019-0.048-0.022-0.075l0.018-0.002-1.384-13.385 8.779-3.312-0.002-0.005c0.272-0.102 0.468-0.363 0.468-0.676zm-37.143 9.455c-0.395 0-0.714-0.326-0.714-0.728 0-0.401 0.319-0.727 0.714-0.727s0.714 0.326 0.714 0.727c0 0.402-0.319 0.728-0.714 0.728zm23.177 4.44l-0.004 0.006c-0.096-0.049-0.201-0.083-0.316-0.083-0.161 0-0.302 0.064-0.421 0.156l-0.007-0.01-5.286 4.036-5.286-4.036-0.007 0.01c-0.119-0.092-0.26-0.156-0.421-0.156-0.115 0-0.22 0.034-0.316 0.083l-0.004-0.006-4.547 2.315 1.209-11.696 9.123 3.44 0.003-0.005c0.077 0.03 0.159 0.051 0.246 0.051s0.169-0.021 0.246-0.05l0.003 0.005 9.123-3.44 1.209 11.696-4.547-2.316zm-6.034-7.398l-17.229-6.497 17.229-6.497 17.229 6.497-17.229 6.497z" sketch:type="MSShapeGroup" stroke="#fff" stroke-width=".5" fill="#fff"/>
   </g>
  </g>
 </g>
</svg>
