<?xml version="1.0" encoding="UTF-8" standalone="no"?>
<svg width="60px" height="60px" viewBox="0 0 60 60" version="1.1" xmlns="http://www.w3.org/2000/svg" xmlns:xlink="http://www.w3.org/1999/xlink" xmlns:sketch="http://www.bohemiancoding.com/sketch/ns">
    <!-- Generator: Sketch 3.2.2 (9983) - http://www.bohemiancoding.com/sketch -->
    <title>icon-tag-ruby</title>
    <desc>Created with Sketch.</desc>
    <defs>
        <rect id="path-1" x="0" y="0" width="60" height="60" rx="44"></rect>
    </defs>
    <g id="Page-1" stroke="none" stroke-width="1" fill="none" fill-rule="evenodd" sketch:type="MSPage">
        <g id="comunity-tags-icons" sketch:type="MSArtboardGroup" transform="translate(-842.000000, -1549.000000)">
            <g id="icon-tag-ruby" sketch:type="MSLayerGroup" transform="translate(842.000000, 1549.000000)">
                <g id="icon-ruby">
                    <g id="Page-1">
                        <g id="listing---tutorials">
                            <g id="thread-9">
                                <g id="icon">
                                    <g id="mask-2" fill="#FFFFFF" sketch:type="MSShapeGroup">
                                        <rect id="path-1" x="0" y="0" width="60" height="60" rx="44"></rect>
                                    </g>
                                    <g id="Rectangle-33" fill="#E6261B" sketch:type="MSShapeGroup">
                                        <rect id="path-1" x="0" y="0" width="60" height="60" rx="44"></rect>
                                    </g>
                                    <g id="logo-Clipped">
                                        <mask id="mask-2" sketch:name="path-1" fill="white">
                                            <use xlink:href="#path-1"></use>
                                        </mask>
                                        <g id="path-1"></g>
                                    </g>
                                </g>
                            </g>
                        </g>
                    </g>
                </g>
                <g id="logo" transform="translate(14.000000, 19.000000)" sketch:type="MSShapeGroup">
                    <g id="Shape" transform="translate(0.482759, 0.310345)">
                        <path fill="#5DA3C2" d="M20.7639682,9.34614089 C20.7552667,9.38598464 20.7449623,9.43647629 20.7378637,9.46990841 L20.4368602,10.8788658 L20.7535493,9.39445717 L20.7639682,9.34614089"></path>
                        <path fill="#5DA3C2" d="M11.7439386,10.2891096 L11.577694,10.8778354 L11.7439386,10.2893386 L11.7439386,10.2891096"></path>
                        <path d="M2.13930496,8.56048626 L14.7795057,21.854903 L8.73390356,8.56048626 L2.13930496,8.56048626 L2.13930496,8.56048626 Z M10.4005859,8.56048626 L16.1880051,21.7162513 L21.9754243,8.56048626 L10.4005859,8.56048626 L10.4005859,8.56048626 Z M29.8176589,8.56048626 L23.6421067,8.56048626 L17.6128772,21.854903 L29.8176589,8.56048626 L29.8176589,8.56048626 Z M11.1199488,7.03497441 L21.4995892,7.03497441 L16.3098262,1.61427802 L11.1199488,7.03497441 L11.1199488,7.03497441 Z M25.2351697,1.1505792 L17.6763066,1.1505792 L22.8553071,6.56016972 L25.2351697,1.1505792 L25.2351697,1.1505792 Z M7.14084052,1.1505792 L9.5972993,6.73454337 L14.9435749,1.1505792 L7.14084052,1.1505792 L7.14084052,1.1505792 Z M29.8335735,7.03497441 L26.5077654,2.04637662 L24.3132678,7.03497441 L29.8335735,7.03497441 L29.8335735,7.03497441 Z M2.6220097,7.03497441 L8.06274246,7.03497441 L5.91724811,2.15777883 L2.6220097,7.03497441 L2.6220097,7.03497441 Z M5.62632004,0.278825431 L26.7664063,0.278825431 L31.9969289,8.12460938 L16.0873653,25.1239224 L0.177801724,8.34260506 L5.62632004,0.278825431 L5.62632004,0.278825431 Z" fill="#FFFFFF"></path>
                        <path d="M2.13930496,8.56048626 L14.7795057,21.854903 L8.73390356,8.56048626 L2.13930496,8.56048626 L2.13930496,8.56048626 Z M10.4005859,8.56048626 L16.1880051,21.7162513 L21.9754243,8.56048626 L10.4005859,8.56048626 L10.4005859,8.56048626 Z M29.8176589,8.56048626 L23.6421067,8.56048626 L17.6128772,21.854903 L29.8176589,8.56048626 L29.8176589,8.56048626 Z M11.1199488,7.03497441 L21.4995892,7.03497441 L16.3098262,1.61427802 L11.1199488,7.03497441 L11.1199488,7.03497441 Z M25.2351697,1.1505792 L17.6763066,1.1505792 L22.8553071,6.56016972 L25.2351697,1.1505792 L25.2351697,1.1505792 Z M7.14084052,1.1505792 L9.5972993,6.73454337 L14.9435749,1.1505792 L7.14084052,1.1505792 L7.14084052,1.1505792 Z M29.8335735,7.03497441 L26.5077654,2.04637662 L24.3132678,7.03497441 L29.8335735,7.03497441 L29.8335735,7.03497441 Z M2.6220097,7.03497441 L8.06274246,7.03497441 L5.91724811,2.15777883 L2.6220097,7.03497441 L2.6220097,7.03497441 Z M5.62632004,0.278825431 L26.7664063,0.278825431 L31.9969289,8.12460938 L16.0873653,25.1239224 L0.177801724,8.34260506 L5.62632004,0.278825431 L5.62632004,0.278825431 Z" stroke="#FFFFFF"></path>
                    </g>
                </g>
            </g>
        </g>
    </g>
</svg>