<?xml version="1.0" encoding="UTF-8" standalone="no"?>
<svg width="60px" height="60px" viewBox="0 0 60 60" version="1.1" xmlns="http://www.w3.org/2000/svg" xmlns:xlink="http://www.w3.org/1999/xlink" xmlns:sketch="http://www.bohemiancoding.com/sketch/ns">
    <!-- Generator: Sketch 3.2.2 (9983) - http://www.bohemiancoding.com/sketch -->
    <title>icon-tag-java</title>
    <desc>Created with Sketch.</desc>
    <defs></defs>
    <g id="Page-1" stroke="none" stroke-width="1" fill="none" fill-rule="evenodd" sketch:type="MSPage">
        <g id="comunity-tags-icons" sketch:type="MSArtboardGroup" transform="translate(-842.000000, -509.000000)">
            <g id="icon-tag-java" sketch:type="MSLayerGroup" transform="translate(842.000000, 509.000000)">
                <ellipse id="Oval-1" fill="#D63033" sketch:type="MSShapeGroup" cx="30" cy="30" rx="30" ry="30"></ellipse>
                <g id="Java" transform="translate(15.000000, 10.000000)" sketch:type="MSShapeGroup">
                    <path d="M18.9491861,0.0237001062 C19.8549689,1.06300804 20.1539409,2.54912126 19.8935211,3.88953711 C19.614018,5.39507664 18.7851467,6.72577933 17.8118012,7.87193201 C17.0311202,8.79468205 16.1346862,9.61058734 15.1998929,10.3682137 C14.1107946,11.2521111 13.0409724,12.2040006 12.3566717,13.4472849 C11.7783894,14.4574533 11.6434568,15.7007376 12.0386164,16.7983245 C12.684365,18.6826772 14.1878989,20.081372 15.0071321,21.85888 C14.1011566,21.0526878 13.2144571,20.2173562 12.3855858,19.3334588 C11.5181623,18.4009956 10.6989291,17.4102535 10.159199,16.2446745 C9.79295352,15.4287692 9.62910688,14.4768796 9.90860998,13.6124086 C10.1881131,12.7285112 10.8145856,12.0194506 11.441058,11.3589558 C13.1855429,9.60087418 15.3349218,8.30902413 17.0407582,6.52180301 C17.9853823,5.54077402 18.765967,4.36548186 19.0357357,3.01535286 C19.257507,2.02461071 19.1514885,1.00472909 18.9491861,0.0237001062" id="Fill-1" fill="#FFFFFF"></path>
                    <path d="M18.9491861,0.0237001062 C19.8549689,1.06300804 20.1539409,2.54912126 19.8935211,3.88953711 C19.614018,5.39507664 18.7851467,6.72577933 17.8118012,7.87193201 C17.0311202,8.79468205 16.1346862,9.61058734 15.1998929,10.3682137 C14.1107946,11.2521111 13.0409724,12.2040006 12.3566717,13.4472849 C11.7783894,14.4574533 11.6434568,15.7007376 12.0386164,16.7983245 C12.684365,18.6826772 14.1878989,20.081372 15.0071321,21.85888 C14.1011566,21.0526878 13.2144571,20.2173562 12.3855858,19.3334588 C11.5181623,18.4009956 10.6989291,17.4102535 10.159199,16.2446745 C9.79295352,15.4287692 9.62910688,14.4768796 9.90860998,13.6124086 C10.1881131,12.7285112 10.8145856,12.0194506 11.441058,11.3589558 C13.1855429,9.60087418 15.3349218,8.30902413 17.0407582,6.52180301 C17.9853823,5.54077402 18.765967,4.36548186 19.0357357,3.01535286 C19.257507,2.02461071 19.1514885,1.00472909 18.9491861,0.0237001062 L18.9491861,0.0237001062 Z" id="Stroke-2" stroke="#FFFFFF" stroke-width="0.094"></path>
                    <path d="M17.5226601,11.0869874 C19.3924395,9.69800577 21.5801778,8.81410836 23.7969265,8.17303992 C22.0429,9.29976628 20.2116727,10.3293611 18.6984044,11.7766216 C18.1491326,12.3108453 17.6285821,12.9227743 17.3876312,13.6706875 C17.2045085,14.2243375 17.2817091,14.8362665 17.5034804,15.3607771 C17.9081816,16.2932402 18.5923859,17.0508666 19.1129364,17.9056245 C19.5561898,18.6341114 19.6333904,19.5665746 19.2960591,20.3533404 C18.7851467,21.5092063 17.7827907,22.354251 16.741979,23.0244589 C16.6070465,23.1021642 16.4914864,23.2478616 16.327447,23.2672879 C17.0215785,22.6359326 17.5612123,21.7423221 17.5418398,20.7807194 C17.5226601,20.0619457 17.1275005,19.4305904 16.6647783,18.915793 C15.7106126,17.7696403 14.9107518,16.3126666 15.0745984,14.7682744 C15.2385414,13.2238822 16.337085,11.980598 17.5226601,11.0869874" id="Fill-4" fill="#FFFFFF"></path>
                    <path d="M17.5226601,11.0869874 C19.3924395,9.69800577 21.5801778,8.81410836 23.7969265,8.17303992 C22.0429,9.29976628 20.2116727,10.3293611 18.6984044,11.7766216 C18.1491326,12.3108453 17.6285821,12.9227743 17.3876312,13.6706875 C17.2045085,14.2243375 17.2817091,14.8362665 17.5034804,15.3607771 C17.9081816,16.2932402 18.5923859,17.0508666 19.1129364,17.9056245 C19.5561898,18.6341114 19.6333904,19.5665746 19.2960591,20.3533404 C18.7851467,21.5092063 17.7827907,22.354251 16.741979,23.0244589 C16.6070465,23.1021642 16.4914864,23.2478616 16.327447,23.2672879 C17.0215785,22.6359326 17.5612123,21.7423221 17.5418398,20.7807194 C17.5226601,20.0619457 17.1275005,19.4305904 16.6647783,18.915793 C15.7106126,17.7696403 14.9107518,16.3126666 15.0745984,14.7682744 C15.2385414,13.2238822 16.337085,11.980598 17.5226601,11.0869874 L17.5226601,11.0869874 Z" id="Stroke-5" stroke="#FFFFFF" stroke-width="0.094"></path>
                    <path d="M24.1537267,22.3153984 C24.5584279,21.8200273 25.2040801,21.6937563 25.7921932,21.616051 C26.8137288,21.4800668 27.9027308,21.7423221 28.6737738,22.4513826 C29.3100771,23.0244589 29.6665881,23.9180695 29.5315592,24.7825406 C29.3869886,25.7829959 28.721964,26.6183275 27.9702934,27.2496828 C26.6114264,28.3472697 24.9343114,28.9883381 23.2572928,29.4158142 C23.3536732,29.3087752 23.4595952,29.2116436 23.5849861,29.1340355 C24.8571107,28.4444013 26.1196937,27.6382091 27.0546798,26.5114828 C27.6234204,25.8121354 28.0666738,24.8990985 27.8835511,23.9763485 C27.6907903,22.907901 26.6596166,22.1308484 25.6089741,22.0725694 C25.1076997,22.0240036 24.6356286,22.2182668 24.1537267,22.3153984" id="Fill-6" fill="#FFFFFF"></path>
                    <path d="M24.1537267,22.3153984 C24.5584279,21.8200273 25.2040801,21.6937563 25.7921932,21.616051 C26.8137288,21.4800668 27.9027308,21.7423221 28.6737738,22.4513826 C29.3100771,23.0244589 29.6665881,23.9180695 29.5315592,24.7825406 C29.3869886,25.7829959 28.721964,26.6183275 27.9702934,27.2496828 C26.6114264,28.3472697 24.9343114,28.9883381 23.2572928,29.4158142 C23.3536732,29.3087752 23.4595952,29.2116436 23.5849861,29.1340355 C24.8571107,28.4444013 26.1196937,27.6382091 27.0546798,26.5114828 C27.6234204,25.8121354 28.0666738,24.8990985 27.8835511,23.9763485 C27.6907903,22.907901 26.6596166,22.1308484 25.6089741,22.0725694 C25.1076997,22.0240036 24.6356286,22.2182668 24.1537267,22.3153984 L24.1537267,22.3153984 Z" id="Stroke-7" stroke="#FFFFFF" stroke-width="0.094"></path>
                    <path d="M4.7811737,23.1992958 C6.55457271,22.4319563 8.48208396,21.9365852 10.419426,21.9657247 C9.29177554,22.2959721 8.13521097,22.5776537 7.07502677,23.0827379 C6.82443778,23.2187221 6.53529664,23.3449932 6.39072607,23.6072484 C6.31352538,23.8112248 6.5256586,23.947209 6.67986721,24.0152011 C7.3352538,24.2871695 8.05810666,24.3260222 8.76168344,24.3940143 C11.2290212,24.559138 13.705997,24.4620064 16.1636967,24.3065958 C18.5923859,24.1511853 21.0018955,23.8209379 23.4018634,23.4324116 C22.8717713,23.6849537 22.3320411,23.9374958 21.8405976,24.2580301 C21.5898158,24.4328669 21.281495,24.4814327 21.0018955,24.5494248 C18.0527522,25.2099196 15.0264082,25.4138959 12.0193403,25.4624617 C10.8531377,25.4721748 9.69657314,25.4527485 8.54000857,25.3750433 C7.24851146,25.2876248 5.94737631,25.1904932 4.68479332,24.8505327 C4.31854787,24.743688 3.93302634,24.6271301 3.6438852,24.3648748 C3.49931463,24.2483169 3.49931463,24.0152011 3.62460912,23.8792169 C3.94266438,23.5489695 4.38601414,23.393559 4.7811737,23.1992958" id="Fill-8" fill="#FFFFFF"></path>
                    <path d="M4.7811737,23.1992958 C6.55457271,22.4319563 8.48208396,21.9365852 10.419426,21.9657247 C9.29177554,22.2959721 8.13521097,22.5776537 7.07502677,23.0827379 C6.82443778,23.2187221 6.53529664,23.3449932 6.39072607,23.6072484 C6.31352538,23.8112248 6.5256586,23.947209 6.67986721,24.0152011 C7.3352538,24.2871695 8.05810666,24.3260222 8.76168344,24.3940143 C11.2290212,24.559138 13.705997,24.4620064 16.1636967,24.3065958 C18.5923859,24.1511853 21.0018955,23.8209379 23.4018634,23.4324116 C22.8717713,23.6849537 22.3320411,23.9374958 21.8405976,24.2580301 C21.5898158,24.4328669 21.281495,24.4814327 21.0018955,24.5494248 C18.0527522,25.2099196 15.0264082,25.4138959 12.0193403,25.4624617 C10.8531377,25.4721748 9.69657314,25.4527485 8.54000857,25.3750433 C7.24851146,25.2876248 5.94737631,25.1904932 4.68479332,24.8505327 C4.31854787,24.743688 3.93302634,24.6271301 3.6438852,24.3648748 C3.49931463,24.2483169 3.49931463,24.0152011 3.62460912,23.8792169 C3.94266438,23.5489695 4.38601414,23.393559 4.7811737,23.1992958 L4.7811737,23.1992958 Z" id="Stroke-9" stroke="#FFFFFF" stroke-width="0.094"></path>
                    <path d="M7.0557507,27.3468144 C7.55692868,26.9485749 8.15448704,26.7251723 8.75204541,26.5114828 C8.55928464,26.7445986 8.28941958,26.9680012 8.2701435,27.2885354 C8.26050546,27.4925118 8.42435211,27.6479223 8.58819876,27.7450539 C8.90625402,27.9101776 9.26286143,27.9684565 9.61946884,28.0170223 C11.4699722,28.2112855 13.3397516,28.3181302 15.2095309,28.1918592 C16.9153673,28.1044407 18.6118548,27.8227591 20.2985115,27.5216512 C20.7609445,27.9587434 21.3105055,28.2598513 21.8887877,28.5221065 C19.8549689,29.1243224 17.7636111,29.4739961 15.6624224,29.6390226 C13.6770829,29.775104 11.6627329,29.7653908 9.6869351,29.4447594 C8.90625402,29.2990621 8.10629685,29.1340355 7.39308203,28.7649355 C7.10394089,28.609525 6.77624759,28.4055486 6.68950525,28.0655881 C6.63167702,27.7741934 6.84371386,27.5119381 7.0557507,27.3468144" id="Fill-10" fill="#FFFFFF"></path>
                    <path d="M7.0557507,27.3468144 C7.55692868,26.9485749 8.15448704,26.7251723 8.75204541,26.5114828 C8.55928464,26.7445986 8.28941958,26.9680012 8.2701435,27.2885354 C8.26050546,27.4925118 8.42435211,27.6479223 8.58819876,27.7450539 C8.90625402,27.9101776 9.26286143,27.9684565 9.61946884,28.0170223 C11.4699722,28.2112855 13.3397516,28.3181302 15.2095309,28.1918592 C16.9153673,28.1044407 18.6118548,27.8227591 20.2985115,27.5216512 C20.7609445,27.9587434 21.3105055,28.2598513 21.8887877,28.5221065 C19.8549689,29.1243224 17.7636111,29.4739961 15.6624224,29.6390226 C13.6770829,29.775104 11.6627329,29.7653908 9.6869351,29.4447594 C8.90625402,29.2990621 8.10629685,29.1340355 7.39308203,28.7649355 C7.10394089,28.609525 6.77624759,28.4055486 6.68950525,28.0655881 C6.63167702,27.7741934 6.84371386,27.5119381 7.0557507,27.3468144 L7.0557507,27.3468144 Z" id="Stroke-11" stroke="#FFFFFF" stroke-width="0.094"></path>
                    <path d="M8.17376312,31.5816543 C8.61711287,31.2223645 9.16648105,31.0378145 9.70621118,30.882404 C9.53272649,31.0474306 9.22430927,31.2514069 9.35924181,31.5330885 C9.61946884,31.873049 10.1013707,31.9119988 10.4868923,31.9994172 C12.1157207,32.2033935 13.7638252,32.3393778 15.3926537,32.2130096 C16.6262262,32.1354986 17.8408117,31.9119988 19.0455665,31.6984064 C19.7394089,32.106262 20.4622617,32.4558385 21.2042943,32.7668538 C20.0671022,33.281457 18.8429749,33.6118015 17.6190405,33.8449173 C15.5564039,34.2139202 13.4264939,34.262486 11.3543157,33.9324328 C10.4387021,33.7671149 9.50381238,33.5535225 8.6749411,33.096907 C8.35688584,32.9125512 8.01955451,32.6986675 7.88462197,32.3393778 C7.77860356,32.0576962 7.95208824,31.7565883 8.17376312,31.5816543" id="Fill-12" fill="#FFFFFF"></path>
                    <path d="M8.17376312,31.5816543 C8.61711287,31.2223645 9.16648105,31.0378145 9.70621118,30.882404 C9.53272649,31.0474306 9.22430927,31.2514069 9.35924181,31.5330885 C9.61946884,31.873049 10.1013707,31.9119988 10.4868923,31.9994172 C12.1157207,32.2033935 13.7638252,32.3393778 15.3926537,32.2130096 C16.6262262,32.1354986 17.8408117,31.9119988 19.0455665,31.6984064 C19.7394089,32.106262 20.4622617,32.4558385 21.2042943,32.7668538 C20.0671022,33.281457 18.8429749,33.6118015 17.6190405,33.8449173 C15.5564039,34.2139202 13.4264939,34.262486 11.3543157,33.9324328 C10.4387021,33.7671149 9.50381238,33.5535225 8.6749411,33.096907 C8.35688584,32.9125512 8.01955451,32.6986675 7.88462197,32.3393778 C7.77860356,32.0576962 7.95208824,31.7565883 8.17376312,31.5816543 L8.17376312,31.5816543 Z" id="Stroke-13" stroke="#FFFFFF" stroke-width="0.094"></path>
                    <path d="M2.82465196,34.3305752 C3.71135147,34.0295644 4.62696509,33.7867355 5.56185479,33.7574989 C5.93773827,33.7477857 6.3232598,33.7671149 6.65095309,33.9613781 C5.53294067,34.0295644 4.41492825,34.3110518 3.41257229,34.8259463 C3.19089741,34.9523145 2.94030842,35.0980118 2.85356607,35.36017 C2.85356607,35.6611808 3.19089741,35.7583123 3.41257229,35.8554439 C4.81008781,36.3800516 6.30398372,36.5450782 7.76896552,36.700683 C12.1349968,37.0695887 16.5298458,36.9724571 20.8959734,36.5743148 C22.5439816,36.3896676 24.2019169,36.2051176 25.8017348,35.7486963 C26.3124545,35.5737623 26.8907368,35.3990226 27.2280681,34.942407 C27.4306597,34.6705357 27.2956308,34.3305752 27.0933283,34.0974594 C27.4208289,34.2820094 27.8835511,34.5152223 27.8161812,34.9619305 C27.6907903,35.428065 27.2184301,35.6708939 26.8329085,35.8943937 C25.5994324,36.525749 24.2402763,36.8463803 22.890951,37.1278677 C18.9683658,37.9049203 14.9493039,38.0798543 10.9591561,37.9633935 C7.95208824,37.8563545 4.94502035,37.5649598 1.9765046,37.0502595 C1.44641251,36.9238913 0.848854144,36.8171437 0.463332619,36.3993808 C0.212743628,36.107986 0.434418505,35.7001305 0.675369458,35.4865382 C1.28256586,34.9230779 2.06324695,34.6123539 2.82465196,34.3305752" id="Fill-14" fill="#FFFFFF"></path>
                    <path d="M2.82465196,34.3305752 C3.71135147,34.0295644 4.62696509,33.7867355 5.56185479,33.7574989 C5.93773827,33.7477857 6.3232598,33.7671149 6.65095309,33.9613781 C5.53294067,34.0295644 4.41492825,34.3110518 3.41257229,34.8259463 C3.19089741,34.9523145 2.94030842,35.0980118 2.85356607,35.36017 C2.85356607,35.6611808 3.19089741,35.7583123 3.41257229,35.8554439 C4.81008781,36.3800516 6.30398372,36.5450782 7.76896552,36.700683 C12.1349968,37.0695887 16.5298458,36.9724571 20.8959734,36.5743148 C22.5439816,36.3896676 24.2019169,36.2051176 25.8017348,35.7486963 C26.3124545,35.5737623 26.8907368,35.3990226 27.2280681,34.942407 C27.4306597,34.6705357 27.2956308,34.3305752 27.0933283,34.0974594 C27.4208289,34.2820094 27.8835511,34.5152223 27.8161812,34.9619305 C27.6907903,35.428065 27.2184301,35.6708939 26.8329085,35.8943937 C25.5994324,36.525749 24.2402763,36.8463803 22.890951,37.1278677 C18.9683658,37.9049203 14.9493039,38.0798543 10.9591561,37.9633935 C7.95208824,37.8563545 4.94502035,37.5649598 1.9765046,37.0502595 C1.44641251,36.9238913 0.848854144,36.8171437 0.463332619,36.3993808 C0.212743628,36.107986 0.434418505,35.7001305 0.675369458,35.4865382 C1.28256586,34.9230779 2.06324695,34.6123539 2.82465196,34.3305752 L2.82465196,34.3305752 Z" id="Stroke-15" stroke="#FFFFFF" stroke-width="0.094"></path>
                    <path d="M26.8425466,37.6523782 C27.8161812,37.3124177 28.8568966,36.9531279 29.5797494,36.1760753 C29.4546477,37.0210229 28.7317948,37.6038124 28.0184836,37.9827227 C26.6497858,38.7014964 25.1175305,39.0318409 23.5946241,39.3036151 C20.375423,39.8185096 17.1081281,39.9446836 13.8409295,39.8864046 C11.6145427,39.8185096 9.36887985,39.7310912 7.18094881,39.2647625 C6.66059113,39.1190651 6.10158492,39.0219335 5.64859713,38.7112096 C7.59548083,39.041457 9.57127865,39.1775383 11.5470765,39.2550493 C14.7950953,39.3521809 18.0527522,39.2261041 21.281495,38.8179572 C23.1512744,38.5557991 25.0306918,38.2351677 26.8425466,37.6523782" id="Fill-16" fill="#FFFFFF"></path>
                    <path d="M26.8425466,37.6523782 C27.8161812,37.3124177 28.8568966,36.9531279 29.5797494,36.1760753 C29.4546477,37.0210229 28.7317948,37.6038124 28.0184836,37.9827227 C26.6497858,38.7014964 25.1175305,39.0318409 23.5946241,39.3036151 C20.375423,39.8185096 17.1081281,39.9446836 13.8409295,39.8864046 C11.6145427,39.8185096 9.36887985,39.7310912 7.18094881,39.2647625 C6.66059113,39.1190651 6.10158492,39.0219335 5.64859713,38.7112096 C7.59548083,39.041457 9.57127865,39.1775383 11.5470765,39.2550493 C14.7950953,39.3521809 18.0527522,39.2261041 21.281495,38.8179572 C23.1512744,38.5557991 25.0306918,38.2351677 26.8425466,37.6523782 L26.8425466,37.6523782 Z" id="Stroke-17" stroke="#FFFFFF" stroke-width="0.094"></path>
                </g>
            </g>
        </g>
    </g>
</svg>