<?xml version="1.0" encoding="UTF-8" standalone="no"?>
<svg width="60px" height="60px" viewBox="0 0 60 60" version="1.1" xmlns="http://www.w3.org/2000/svg" xmlns:xlink="http://www.w3.org/1999/xlink" xmlns:sketch="http://www.bohemiancoding.com/sketch/ns">
    <!-- Generator: Sketch 3.2.2 (9983) - http://www.bohemiancoding.com/sketch -->
    <title>icon-tag-infrastructure</title>
    <desc>Created with Sketch.</desc>
    <defs></defs>
    <g id="Page-1" stroke="none" stroke-width="1" fill="none" fill-rule="evenodd" sketch:type="MSPage">
        <g id="comunity-tags-icons" sketch:type="MSArtboardGroup" transform="translate(-842.000000, -2851.000000)">
            <g id="icon-tag-infrastructure" sketch:type="MSLayerGroup" transform="translate(842.000000, 2851.000000)">
                <ellipse id="Oval-1" fill="#8EB43F" sketch:type="MSShapeGroup" cx="30" cy="30" rx="30" ry="30"></ellipse>
                <g id="1056-org-chart-toolbar@2x" transform="translate(10.000000, 7.000000)" fill="#FFFFFF" sketch:type="MSShapeGroup">
                    <g id="_x31_056-org-chart-toolbar_x40_2x.png">
                        <path d="M15.4545455,10.9090909 L24.5454545,10.9090909 C25.0481818,10.9090909 25.4545455,10.5027273 25.4545455,10 L25.4545455,0.909090909 C25.4545455,0.406363636 25.0481818,0 24.5454545,0 L15.4545455,0 C14.9518182,0 14.5454545,0.406363636 14.5454545,0.909090909 L14.5454545,10 C14.5454545,10.5027273 14.9518182,10.9090909 15.4545455,10.9090909 L15.4545455,10.9090909 Z M16.3636364,1.81818182 L23.6363636,1.81818182 L23.6363636,9.09090909 L16.3636364,9.09090909 L16.3636364,1.81818182 L16.3636364,1.81818182 Z M6.36363636,20.9090909 L19.0909091,20.9090909 L19.0909091,27.2727273 L20.9090909,27.2727273 L20.9090909,20.9090909 L33.6363636,20.9090909 L33.6363636,27.2727273 L35.4545455,27.2727273 L35.4545455,20 C35.4545455,19.4981818 35.0481818,19.0909091 34.5454545,19.0909091 L20.9090909,19.0909091 L20.9090909,12.7272727 L19.0909091,12.7272727 L19.0909091,19.0909091 L5.45454545,19.0909091 C4.95181818,19.0909091 4.54545455,19.4981818 4.54545455,20 L4.54545455,27.2727273 L6.36363636,27.2727273 L6.36363636,20.9090909 L6.36363636,20.9090909 Z M10,29.0909091 L0.909090909,29.0909091 C0.406363636,29.0909091 0,29.4972727 0,30 L0,39.0909091 C0,39.5936364 0.406363636,40 0.909090909,40 L10,40 C10.5027273,40 10.9090909,39.5936364 10.9090909,39.0909091 L10.9090909,30 C10.9090909,29.4972727 10.5027273,29.0909091 10,29.0909091 L10,29.0909091 Z M9.09090909,38.1818182 L1.81818182,38.1818182 L1.81818182,30.9090909 L9.09090909,30.9090909 L9.09090909,38.1818182 L9.09090909,38.1818182 Z M24.5454545,29.0909091 L15.4545455,29.0909091 C14.9518182,29.0909091 14.5454545,29.4972727 14.5454545,30 L14.5454545,39.0909091 C14.5454545,39.5936364 14.9518182,40 15.4545455,40 L24.5454545,40 C25.0481818,40 25.4545455,39.5936364 25.4545455,39.0909091 L25.4545455,30 C25.4545455,29.4972727 25.0481818,29.0909091 24.5454545,29.0909091 L24.5454545,29.0909091 Z M23.6363636,38.1818182 L16.3636364,38.1818182 L16.3636364,30.9090909 L23.6363636,30.9090909 L23.6363636,38.1818182 L23.6363636,38.1818182 Z M39.0909091,29.0909091 L30,29.0909091 C29.4972727,29.0909091 29.0909091,29.4972727 29.0909091,30 L29.0909091,39.0909091 C29.0909091,39.5936364 29.4972727,40 30,40 L39.0909091,40 C39.5936364,40 40,39.5936364 40,39.0909091 L40,30 C40,29.4972727 39.5936364,29.0909091 39.0909091,29.0909091 L39.0909091,29.0909091 Z M38.1818182,38.1818182 L30.9090909,38.1818182 L30.9090909,30.9090909 L38.1818182,30.9090909 L38.1818182,38.1818182 L38.1818182,38.1818182 Z" id="Shape"></path>
                    </g>
                </g>
            </g>
        </g>
    </g>
</svg>