<?xml version="1.0" encoding="UTF-8" standalone="no"?>
<svg xmlns:sketch="http://www.bohemiancoding.com/sketch/ns" xmlns="http://www.w3.org/2000/svg" height="60px" width="60px" version="1.1" xmlns:xlink="http://www.w3.org/1999/xlink" viewBox="0 0 60 60"><!-- Generator: Sketch 3.2.2 (9983) - http://www.bohemiancoding.com/sketch -->
 <title>icon-tag-java</title>
 <desc>Created with Sketch.</desc>
 <g id="Page-1" fill-rule="evenodd" sketch:type="MSPage" fill="none">
  <g id="comunity-tags-icons" transform="translate(-842 -509)" sketch:type="MSArtboardGroup">
   <g id="icon-tag-java" transform="translate(842 509)" sketch:type="MSLayerGroup">
    <ellipse id="Oval-1" rx="30" sketch:type="MSShapeGroup" ry="30" cy="30" cx="30" fill="#D63033"/>
    <g id="Java" sketch:type="MSShapeGroup" transform="translate(15 10)">
     <path id="Fill-1" fill="#fff" d="m18.949 0.0237c0.906 1.0393 1.205 2.5254 0.945 3.8658-0.28 1.5056-1.109 2.8363-2.082 3.9824-0.781 0.9228-1.677 1.7387-2.612 2.4961-1.089 0.884-2.159 1.836-2.843 3.079-0.579 1.01-0.714 2.254-0.318 3.351 0.645 1.885 2.149 3.283 2.968 5.061-0.906-0.806-1.793-1.642-2.621-2.526-0.868-0.932-1.687-1.923-2.227-3.088-0.366-0.816-0.5299-1.768-0.2504-2.633 0.2794-0.883 0.9064-1.593 1.5324-2.253 1.745-1.7581 3.894-3.05 5.6-4.8372 0.944-0.981 1.725-2.1563 1.995-3.5064 0.222-0.9908 0.115-2.0107-0.087-2.9917"/>
     <path id="Stroke-2" stroke="#fff" stroke-width=".094" d="m18.949 0.0237c0.906 1.0393 1.205 2.5254 0.945 3.8658-0.28 1.5056-1.109 2.8363-2.082 3.9824-0.781 0.9228-1.677 1.7387-2.612 2.4961-1.089 0.884-2.159 1.836-2.843 3.079-0.579 1.01-0.714 2.254-0.318 3.351 0.645 1.885 2.149 3.283 2.968 5.061-0.906-0.806-1.793-1.642-2.621-2.526-0.868-0.932-1.687-1.923-2.227-3.088-0.366-0.816-0.5299-1.768-0.2504-2.633 0.2794-0.883 0.9064-1.593 1.5324-2.253 1.745-1.7581 3.894-3.05 5.6-4.8372 0.944-0.981 1.725-2.1563 1.995-3.5064 0.222-0.9908 0.115-2.0107-0.087-2.9917z"/>
     <path id="Fill-4" fill="#fff" d="m17.523 11.087c1.869-1.389 4.057-2.2729 6.274-2.914-1.754 1.1268-3.585 2.156-5.099 3.604-0.549 0.534-1.069 1.146-1.31 1.894-0.183 0.553-0.106 1.165 0.115 1.69 0.405 0.932 1.089 1.69 1.61 2.545 0.443 0.728 0.52 1.661 0.183 2.447-0.511 1.156-1.513 2.001-2.554 2.671-0.135 0.078-0.251 0.224-0.415 0.243 0.695-0.631 1.234-1.525 1.215-2.486-0.019-0.719-0.414-1.35-0.877-1.865-0.954-1.146-1.754-2.603-1.59-4.148 0.164-1.544 1.262-2.787 2.448-3.681"/>
     <path id="Stroke-5" stroke="#fff" stroke-width=".094" d="m17.523 11.087c1.869-1.389 4.057-2.2729 6.274-2.914-1.754 1.1268-3.585 2.156-5.099 3.604-0.549 0.534-1.069 1.146-1.31 1.894-0.183 0.553-0.106 1.165 0.115 1.69 0.405 0.932 1.089 1.69 1.61 2.545 0.443 0.728 0.52 1.661 0.183 2.447-0.511 1.156-1.513 2.001-2.554 2.671-0.135 0.078-0.251 0.224-0.415 0.243 0.695-0.631 1.234-1.525 1.215-2.486-0.019-0.719-0.414-1.35-0.877-1.865-0.954-1.146-1.754-2.603-1.59-4.148 0.164-1.544 1.262-2.787 2.448-3.681z"/>
     <path id="Fill-6" fill="#fff" d="m24.154 22.315c0.404-0.495 1.05-0.621 1.638-0.699 1.022-0.136 2.111 0.126 2.882 0.835 0.636 0.573 0.993 1.467 0.858 2.332-0.145 1-0.81 1.835-1.562 2.467-1.359 1.097-3.036 1.738-4.713 2.166 0.097-0.107 0.203-0.204 0.328-0.282 1.272-0.69 2.535-1.496 3.47-2.623 0.568-0.699 1.012-1.612 0.829-2.535-0.193-1.068-1.224-1.845-2.275-1.903-0.501-0.049-0.973 0.145-1.455 0.242"/>
     <path id="Stroke-7" stroke="#fff" stroke-width=".094" d="m24.154 22.315c0.404-0.495 1.05-0.621 1.638-0.699 1.022-0.136 2.111 0.126 2.882 0.835 0.636 0.573 0.993 1.467 0.858 2.332-0.145 1-0.81 1.835-1.562 2.467-1.359 1.097-3.036 1.738-4.713 2.166 0.097-0.107 0.203-0.204 0.328-0.282 1.272-0.69 2.535-1.496 3.47-2.623 0.568-0.699 1.012-1.612 0.829-2.535-0.193-1.068-1.224-1.845-2.275-1.903-0.501-0.049-0.973 0.145-1.455 0.242z"/>
     <path id="Fill-8" fill="#fff" d="m4.7812 23.199c1.7734-0.767 3.7009-1.262 5.6378-1.233-1.1272 0.33-2.2838 0.612-3.344 1.117-0.2506 0.136-0.5397 0.262-0.6843 0.524-0.0772 0.204 0.135 0.34 0.2892 0.408 0.6554 0.272 1.3782 0.311 2.0818 0.379 2.4673 0.165 4.9443 0.068 7.4023-0.087 2.428-0.156 4.838-0.486 7.238-0.875-0.53 0.253-1.07 0.505-1.561 0.826-0.251 0.175-0.56 0.223-0.839 0.291-2.949 0.661-5.976 0.865-8.983 0.913-1.166 0.01-2.3224-0.009-3.479-0.087-1.2915-0.087-2.5926-0.185-3.8552-0.524-0.3663-0.107-0.7518-0.224-1.0409-0.486-0.1446-0.117-0.1446-0.35-0.0193-0.486 0.3181-0.33 0.7614-0.485 1.1566-0.68"/>
     <path id="Stroke-9" stroke="#fff" stroke-width=".094" d="m4.7812 23.199c1.7734-0.767 3.7009-1.262 5.6378-1.233-1.1272 0.33-2.2838 0.612-3.344 1.117-0.2506 0.136-0.5397 0.262-0.6843 0.524-0.0772 0.204 0.135 0.34 0.2892 0.408 0.6554 0.272 1.3782 0.311 2.0818 0.379 2.4673 0.165 4.9443 0.068 7.4023-0.087 2.428-0.156 4.838-0.486 7.238-0.875-0.53 0.253-1.07 0.505-1.561 0.826-0.251 0.175-0.56 0.223-0.839 0.291-2.949 0.661-5.976 0.865-8.983 0.913-1.166 0.01-2.3224-0.009-3.479-0.087-1.2915-0.087-2.5926-0.185-3.8552-0.524-0.3663-0.107-0.7518-0.224-1.0409-0.486-0.1446-0.117-0.1446-0.35-0.0193-0.486 0.3181-0.33 0.7614-0.485 1.1566-0.68z"/>
     <path id="Fill-10" fill="#fff" d="m7.0558 27.347c0.5011-0.398 1.0987-0.622 1.6962-0.836-0.1927 0.234-0.4626 0.457-0.4819 0.778-0.0096 0.204 0.1543 0.359 0.3181 0.456 0.3181 0.165 0.6747 0.223 1.0313 0.272 1.8505 0.194 3.7205 0.301 5.5905 0.175 1.705-0.088 3.402-0.369 5.089-0.67 0.462 0.437 1.012 0.738 1.59 1-2.034 0.602-4.125 0.952-6.227 1.117-1.985 0.136-3.999 0.126-5.9751-0.194-0.7806-0.146-1.5806-0.311-2.2938-0.68-0.2892-0.155-0.6169-0.359-0.7036-0.699-0.0578-0.292 0.1542-0.554 0.3663-0.719"/>
     <path id="Stroke-11" stroke="#fff" stroke-width=".094" d="m7.0558 27.347c0.5011-0.398 1.0987-0.622 1.6962-0.836-0.1927 0.234-0.4626 0.457-0.4819 0.778-0.0096 0.204 0.1543 0.359 0.3181 0.456 0.3181 0.165 0.6747 0.223 1.0313 0.272 1.8505 0.194 3.7205 0.301 5.5905 0.175 1.705-0.088 3.402-0.369 5.089-0.67 0.462 0.437 1.012 0.738 1.59 1-2.034 0.602-4.125 0.952-6.227 1.117-1.985 0.136-3.999 0.126-5.9751-0.194-0.7806-0.146-1.5806-0.311-2.2938-0.68-0.2892-0.155-0.6169-0.359-0.7036-0.699-0.0578-0.292 0.1542-0.554 0.3663-0.719z"/>
     <path id="Fill-12" fill="#fff" d="m8.1738 31.582c0.4433-0.36 0.9927-0.544 1.5324-0.7-0.1735 0.165-0.4819 0.369-0.347 0.651 0.2603 0.34 0.7418 0.379 1.1278 0.466 1.629 0.204 3.277 0.34 4.906 0.214 1.233-0.078 2.448-0.301 3.653-0.515 0.693 0.408 1.416 0.758 2.158 1.069-1.137 0.514-2.361 0.845-3.585 1.078-2.063 0.369-4.193 0.417-6.265 0.087-0.915-0.165-1.8502-0.378-2.6791-0.835-0.318-0.184-0.6553-0.398-0.7903-0.758-0.106-0.281 0.0675-0.582 0.2892-0.757"/>
     <path id="Stroke-13" stroke="#fff" stroke-width=".094" d="m8.1738 31.582c0.4433-0.36 0.9927-0.544 1.5324-0.7-0.1735 0.165-0.4819 0.369-0.347 0.651 0.2603 0.34 0.7418 0.379 1.1278 0.466 1.629 0.204 3.277 0.34 4.906 0.214 1.233-0.078 2.448-0.301 3.653-0.515 0.693 0.408 1.416 0.758 2.158 1.069-1.137 0.514-2.361 0.845-3.585 1.078-2.063 0.369-4.193 0.417-6.265 0.087-0.915-0.165-1.8502-0.378-2.6791-0.835-0.318-0.184-0.6553-0.398-0.7903-0.758-0.106-0.281 0.0675-0.582 0.2892-0.757z"/>
     <path id="Fill-14" fill="#fff" d="m2.8247 34.331c0.8867-0.301 1.8023-0.544 2.7372-0.574 0.3758-0.009 0.7614 0.01 1.0891 0.204-1.1181 0.069-2.2361 0.35-3.2384 0.865-0.2217 0.126-0.4723 0.272-0.559 0.534 0 0.301 0.3373 0.398 0.559 0.495 1.3975 0.525 2.8914 0.69 4.3564 0.846 4.366 0.369 8.761 0.271 13.127-0.127 1.648-0.184 3.306-0.369 4.906-0.825 0.51-0.175 1.089-0.35 1.426-0.807 0.203-0.271 0.068-0.611-0.135-0.845 0.328 0.185 0.791 0.418 0.723 0.865-0.125 0.466-0.598 0.709-0.983 0.932-1.234 0.632-2.593 0.952-3.942 1.234-3.923 0.777-7.942 0.952-11.932 0.835-3.0069-0.107-6.014-0.398-8.9825-0.913-0.5301-0.126-1.1276-0.233-1.5132-0.651-0.25056-0.291-0.02888-0.699 0.21207-0.912 0.60723-0.564 1.3878-0.875 2.1493-1.156"/>
     <path id="Stroke-15" stroke="#fff" stroke-width=".094" d="m2.8247 34.331c0.8867-0.301 1.8023-0.544 2.7372-0.574 0.3758-0.009 0.7614 0.01 1.0891 0.204-1.1181 0.069-2.2361 0.35-3.2384 0.865-0.2217 0.126-0.4723 0.272-0.559 0.534 0 0.301 0.3373 0.398 0.559 0.495 1.3975 0.525 2.8914 0.69 4.3564 0.846 4.366 0.369 8.761 0.271 13.127-0.127 1.648-0.184 3.306-0.369 4.906-0.825 0.51-0.175 1.089-0.35 1.426-0.807 0.203-0.271 0.068-0.611-0.135-0.845 0.328 0.185 0.791 0.418 0.723 0.865-0.125 0.466-0.598 0.709-0.983 0.932-1.234 0.632-2.593 0.952-3.942 1.234-3.923 0.777-7.942 0.952-11.932 0.835-3.0069-0.107-6.014-0.398-8.9825-0.913-0.5301-0.126-1.1276-0.233-1.5132-0.651-0.25056-0.291-0.02888-0.699 0.21207-0.912 0.60723-0.564 1.3878-0.875 2.1493-1.156z"/>
     <path id="Fill-16" fill="#fff" d="m26.843 37.652c0.973-0.34 2.014-0.699 2.737-1.476-0.125 0.845-0.848 1.428-1.562 1.807-1.368 0.718-2.9 1.049-4.423 1.321-3.22 0.515-6.487 0.641-9.754 0.582-2.226-0.067-4.4721-0.155-6.6601-0.621-0.5203-0.146-1.0793-0.243-1.5323-0.554 1.9469 0.33 3.9227 0.467 5.8984 0.544 3.248 0.097 6.506-0.029 9.734-0.437 1.87-0.262 3.75-0.583 5.562-1.166"/>
     <path id="Stroke-17" stroke="#fff" stroke-width=".094" d="m26.843 37.652c0.973-0.34 2.014-0.699 2.737-1.476-0.125 0.845-0.848 1.428-1.562 1.807-1.368 0.718-2.9 1.049-4.423 1.321-3.22 0.515-6.487 0.641-9.754 0.582-2.226-0.067-4.4721-0.155-6.6601-0.621-0.5203-0.146-1.0793-0.243-1.5323-0.554 1.9469 0.33 3.9227 0.467 5.8984 0.544 3.248 0.097 6.506-0.029 9.734-0.437 1.87-0.262 3.75-0.583 5.562-1.166z"/>
    </g>
   </g>
  </g>
 </g>
</svg>
