<?xml version="1.0" encoding="UTF-8" standalone="no"?>
<svg xmlns:sketch="http://www.bohemiancoding.com/sketch/ns" xmlns="http://www.w3.org/2000/svg" height="24px" width="24px" version="1.1" xmlns:xlink="http://www.w3.org/1999/xlink" viewBox="0 0 24 24"><!-- Generator: Sketch 3.2.1 (9977) - http://www.bohemiancoding.com/sketch -->
 <title>clock</title>
 <desc>Created with Sketch.</desc>
 <g id="Page-2" fill-rule="evenodd" sketch:type="MSPage" fill="none">
  <g id="single-post" transform="translate(-92 -762)" fill="#CECEB8" sketch:type="MSArtboardGroup">
   <g id="aside" transform="translate(90 183)" sketch:type="MSLayerGroup">
    <path id="clock" sketch:type="MSShapeGroup" d="m13.69 592.97c0.101 0.02 0.204 0.03 0.31 0.03 1.105 0 2-0.95 2-2.12 0-0.79-0.402-1.48-1-1.85v-6.03h-2v6.03c-0.598 0.37-1 1.06-1 1.85 0 0.28 0.054 0.56 0.151 0.81l-3.1562 3.15 1.4142 1.42 3.281-3.29zm0.31 10.03c6.627 0 12-5.37 12-12s-5.373-12-12-12c-6.6274 0-12 5.37-12 12s5.3726 12 12 12zm0-1.94c5.556 0 10.06-4.5 10.06-10.06s-4.504-10.06-10.06-10.06-10.06 4.5-10.06 10.06 4.504 10.06 10.06 10.06z"/>
   </g>
  </g>
 </g>
</svg>
