<?xml version="1.0" encoding="UTF-8" standalone="no"?>
<svg width="22px" height="440px" viewBox="0 0 22 440" version="1.1" xmlns="http://www.w3.org/2000/svg" xmlns:xlink="http://www.w3.org/1999/xlink">
    <!-- Generator: Sketch 43.2 (39069) - http://www.bohemiancoding.com/sketch -->
    <title>docs-nav-icons</title>
    <desc>Created with Sketch.</desc>
    <defs>
        <rect id="path-1" x="3" y="158" width="16" height="14" rx="2"></rect>
        <rect id="path-2" x="3" y="71" width="16" height="13" rx="2"></rect>
        <rect id="path-3" x="3" y="25" width="16" height="16" rx="2"></rect>
        <polygon id="path-4" points="10 28 16 33 10 38 10 35 7 35 7 31 10 31"></polygon>
        <path d="M10.4347989,224.452278 C10.5262183,223.905086 10.359168,223.847356 10.0652408,224.31764 L6.13541596,230.60536 C5.83989524,231.078193 6.0429887,231.4615 6.59928493,231.4615 L8.60032837,231.4615 L7.76545803,236.470722 C7.67425944,237.017913 7.84148876,237.075643 8.13541596,236.60536 L12.0652408,230.31764 C12.3607615,229.844807 12.1573108,229.4615 11.6005655,229.4615 L9.597907,229.4615 L10.4347989,224.452278 Z" id="path-5"></path>
        <path d="M16.210461,232.70184 C16.3008629,232.160739 16.1360144,232.103103 15.8394851,232.57755 L14.3283995,234.995287 C14.0331133,235.467745 14.2498878,235.850748 14.8004818,235.850748 L15.3419835,235.850748 L14.9891928,237.967492 C14.8990093,238.508593 15.0640348,238.566228 15.3605641,238.091781 L16.8716497,235.674044 C17.1669359,235.201586 16.9497933,234.818583 16.4162199,234.818583 L15.8568161,234.818583 L16.210461,232.70184 Z" id="path-6"></path>
        <rect id="path-7" x="3" y="48" width="16" height="14" rx="2"></rect>
        <path d="M5,10.9973917 C5,9.89426273 5.7477726,8.50148493 6.67133451,7.885777 L9.32866549,6.114223 C10.2517181,5.49885463 11.7477726,5.49851507 12.6713345,6.114223 L15.3286655,7.885777 C16.2517181,8.50114537 17,9.89585781 17,10.9973917 L17,16.0026083 C17,17.1057373 16.0980496,18 14.9914698,18 L7.0085302,18 C5.8992496,18 5,17.1041422 5,16.0026083 L5,10.9973917 Z" id="path-8"></path>
        <polygon id="path-9" points="11 3 19 9 17 12 11 8 5 12 3 9"></polygon>
        <path d="M9,13.9979131 C9,12.8944962 9.88772964,12 11,12 L11,12 C12.1045695,12 13,12.8982606 13,13.9979131 L13,18 L9,18 L9,13.9979131 Z" id="path-10"></path>
        <polygon id="path-11" points="3.44668208 96 6.44668208 96 6.44668208 94 8.44668208 94 8.44668208 92 12.4466821 92 12.4466821 95 14.4466821 95 14.4466821 100 3.47988294 100"></polygon>
        <rect id="path-12" x="3.10660172" y="136.106602" width="15" height="15" rx="2"></rect>
        <rect id="path-13" x="3" y="179" width="16" height="16" rx="2"></rect>
        <path d="M9,191.583956 C7.23409522,190.8124 6,189.050319 6,187 C6,184.581042 7.71775968,182.563288 10,182.100018 L10,187 L12,187 L12,182.100018 C14.2822403,182.563288 16,184.581042 16,187 C16,189.050319 14.7659048,190.8124 13,191.583956 L13,195 L9,195 L9,191.583956 Z" id="path-14"></path>
        <polygon id="path-15" points="11 200 18.7942286 204.5 18.7942286 213.5 11 218 3.20577137 213.5 3.20577137 204.5"></polygon>
        <polygon id="path-16" points="6.5 4 13 15 0 15"></polygon>
        <path d="M7.82384719,15 C9.69387518,13.265478 10.8641712,10.7870547 10.8641712,8.03529408 C10.8641712,4.65227109 9.09534838,1.6823788 6.43208559,0 C3.76882279,1.6823788 2,4.65227109 2,8.03529408 C2,10.7870547 3.17029599,13.265478 5.04032398,15 L7.82384719,15 Z" id="path-17"></path>
        <circle id="path-18" cx="6.5" cy="5.5" r="1.5"></circle>
        <rect id="path-19" x="3" y="268" width="16" height="14" rx="2"></rect>
        <rect id="path-20" x="3" y="289" width="16" height="16" rx="2"></rect>
        <rect id="path-21" x="3" y="313" width="8" height="13"></rect>
        <rect id="path-22" x="10" y="316" width="8" height="10"></rect>
        <rect id="path-23" x="3" y="333" width="16" height="16" rx="8"></rect>
        <rect id="path-24" x="7" y="337" width="8" height="8" rx="4"></rect>
        <path d="M6.03012894,359.879484 C6.56577394,357.736904 8.79535615,356 11,356 L11,356 C13.209139,356 15.4362258,357.744903 15.9698711,359.879484 L18,368 L4,368 L6.03012894,359.879484 Z" id="path-25"></path>
        <rect id="path-26" x="3" y="377" width="16" height="16" rx="2"></rect>
        <circle id="path-27" cx="8" cy="382" r="2"></circle>
        <circle id="path-28" cx="14" cy="382" r="2"></circle>
        <circle id="path-29" cx="14" cy="388" r="2"></circle>
        <circle id="path-30" cx="8" cy="388" r="2"></circle>
        <rect id="path-31" x="3" y="399" width="16" height="16" rx="2"></rect>
        <rect id="path-32" x="3" y="424" width="16" height="14" rx="2"></rect>
        <rect id="path-33" x="5" y="422" width="12" height="14" rx="1"></rect>
        <path d="M3,422.005859 C3,420.898054 3.89706013,420 5.00585866,420 L14.9941413,420 C16.1019465,420 17,420.89706 17,422.005859 L17,432.993155 C17,433.54922 16.5500512,434 15.9931545,434 L3,434 L3,422.005859 Z" id="path-34"></path>
    </defs>
    <g id="Icon-Export" stroke="none" stroke-width="1" fill="none" fill-rule="evenodd">
        <g id="docs-nav-icons">
            <g id="Rectangle-3-Copy-2">
                <use fill="#F5F5F5" fill-rule="evenodd" xlink:href="#path-1"></use>
                <rect stroke="#888888" stroke-width="1" x="3.5" y="158.5" width="15" height="13" rx="2"></rect>
            </g>
            <path d="M6.5,161.5 L7.5,161.5" id="Line-Copy-2" stroke="#888888" stroke-linecap="square"></path>
            <path d="M6.5,161.5 L7.5,161.5" id="Line-Copy-3" stroke="#888888" stroke-linecap="square"></path>
            <path d="M6.5,165.5 L7.5,165.5" id="Line-Copy-7" stroke="#888888" stroke-linecap="square"></path>
            <path d="M11.5,163.5 L13.5,163.5" id="Line-Copy-6" stroke="#888888" stroke-linecap="square"></path>
            <path d="M9.5,161.5 L12.5,161.5" id="Line-Copy-4" stroke="#888888" stroke-linecap="square"></path>
            <path d="M6.5,163.5 L9.5,163.5" id="Line-Copy-5" stroke="#888888" stroke-linecap="square"></path>
            <g id="Rectangle-3-Copy-3">
                <use fill="#F5F5F5" fill-rule="evenodd" xlink:href="#path-2"></use>
                <rect stroke="#888888" stroke-width="1" x="3.5" y="71.5" width="15" height="12" rx="2"></rect>
            </g>
            <path d="M4.5,75.5 L17.5,75.5" id="Line" stroke="#888888" stroke-linecap="square"></path>
            <path d="M4.5,79.5 L17.5,79.5" id="Line-Copy" stroke="#888888" stroke-linecap="square"></path>
            <circle id="Oval" fill="#888888" cx="16.5" cy="73.5" r="1"></circle>
            <circle id="Oval-Copy" fill="#888888" cx="16.5" cy="77.5" r="1"></circle>
            <circle id="Oval-Copy-2" fill="#888888" cx="16.5" cy="81.5" r="1"></circle>
            <circle id="Oval-Copy-5" fill="#888888" cx="5.5" cy="73.5" r="1"></circle>
            <circle id="Oval-Copy-4" fill="#888888" cx="5.5" cy="77.5" r="1"></circle>
            <circle id="Oval-Copy-3" fill="#888888" cx="5.5" cy="81.5" r="1"></circle>
            <g id="Rectangle-3-Copy">
                <use fill="#F5F5F5" fill-rule="evenodd" xlink:href="#path-3"></use>
                <rect stroke="#888888" stroke-width="1" x="3.5" y="25.5" width="15" height="15" rx="2"></rect>
            </g>
            <g id="Rectangle-5">
                <use fill="#F5F5F5" fill-rule="evenodd" xlink:href="#path-4"></use>
                <path stroke="#888888" stroke-width="1" d="M10.5,29.0675208 L15.218975,33 L10.5,36.9324792 L10.5,35 L10.5,34.5 L10,34.5 L7.5,34.5 L7.5,31.5 L10,31.5 L10.5,31.5 L10.5,31 L10.5,29.0675208 Z"></path>
            </g>
            <rect id="Rectangle-6" fill="#888888" x="4" y="28" width="6" height="1"></rect>
            <rect id="Rectangle-6-Copy" fill="#888888" x="4" y="37" width="6" height="1"></rect>
            <rect id="Rectangle-6-Copy-2" fill="#888888" x="4" y="31" width="3" height="1"></rect>
            <rect id="Rectangle-6-Copy-3" fill="#888888" x="4" y="34" width="3" height="1"></rect>
            <g id="Path-3" stroke-linecap="round">
                <use fill="#F5F5F5" fill-rule="evenodd" xlink:href="#path-5"></use>
                <path stroke="#888888" stroke-width="1" d="M8.01009816,231.9615 L7.27226107,236.388522 C7.09014951,237.481192 7.97876143,237.799405 8.55941511,236.870359 L12.4892399,230.582639 C12.9920177,229.778195 12.5517768,228.9615 11.6005655,228.9615 L10.1883722,228.9615 L10.9279635,224.534671 C11.1105187,223.441985 10.221982,223.123456 9.64124163,224.05264 L5.7114168,230.34036 C5.20874588,231.144634 5.64831204,231.9615 6.59928493,231.9615 L8.01009816,231.9615 Z"></path>
            </g>
            <g id="Path-3-Copy" stroke-linecap="round">
                <use fill="#F5F5F5" fill-rule="evenodd" xlink:href="#path-6"></use>
                <path stroke="#888888" stroke-width="1" d="M14.7518748,236.350019 L14.4959959,237.885292 C14.313474,238.980423 15.2056644,239.283019 15.7845632,238.356781 L17.2956489,235.939044 C17.7897846,235.148426 17.3593421,234.336872 16.4472305,234.318888 L16.7036257,232.784233 C16.8865933,231.689079 15.9944666,231.386182 15.415486,232.312551 L13.9044003,234.730288 C13.4104373,235.520629 13.8402973,236.322501 14.7518748,236.350019 Z"></path>
            </g>
            <g id="Rectangle-3-Copy-5">
                <use fill="#F5F5F5" fill-rule="evenodd" xlink:href="#path-7"></use>
                <rect stroke="#888888" stroke-width="1" x="3.5" y="48.5" width="15" height="13" rx="2"></rect>
            </g>
            <rect id="Rectangle-14" fill="#888888" x="11" y="57" width="4" height="1"></rect>
            <g id="Rectangle-3-Copy-20">
                <use fill="#F5F5F5" fill-rule="evenodd" xlink:href="#path-8"></use>
                <path stroke="#888888" stroke-width="1" d="M5.5,10.9973917 C5.5,10.0615025 6.16417165,8.82481078 6.9486846,8.30180214 L9.60601559,6.53024815 C10.3613059,6.02672127 11.6385596,6.02663164 12.3939844,6.53024815 L15.0513154,8.30180214 C15.83502,8.82427191 16.5,10.0627398 16.5,10.9973917 L16.5,16.0026083 C16.5,16.8279392 15.8235638,17.5 14.9914698,17.5 L7.0085302,17.5 C6.17538648,17.5 5.5,16.8279884 5.5,16.0026083 L5.5,10.9973917 Z"></path>
            </g>
            <g id="Rectangle-3-Copy-21">
                <use fill="#F5F5F5" fill-rule="evenodd" xlink:href="#path-9"></use>
                <path stroke="#888888" stroke-width="1" d="M11,3.625 L18.3216054,9.11620406 L16.861325,11.3066248 L11.2773501,7.58397485 L11,7.39907479 L10.7226499,7.58397485 L5.13867505,11.3066248 L3.67839459,9.11620406 L11,3.625 Z"></path>
            </g>
            <g id="Rectangle-3">
                <use fill="#F5F5F5" fill-rule="evenodd" xlink:href="#path-10"></use>
                <path stroke="#888888" stroke-width="1" d="M12.5,17.5 L9.5,17.5 L9.5,13.9979131 C9.5,13.1677935 10.1667131,12.5 11,12.5 C11.8270986,12.5 12.5,13.1730741 12.5,13.9979131 L12.5,17.5 Z"></path>
            </g>
            <path d="M8,56.4568542 L8,57.8284271 L10.8284271,55 L8,52.1715729 L8,53.5431458 L9.4568542,55 L8,56.4568542 Z" id="Combined-Shape" fill="#888888"></path>
            <path d="M17.2370089,98.0170458 C17.1551265,97.4182484 16.8214272,96.8990327 16.2143684,96.4296993 L15.865401,96.196915 L15.6325121,96.5463007 C15.3343684,96.9958693 15.1854533,97.618719 15.2342899,98.2160523 C15.2562507,98.4261438 15.3252703,98.8019869 15.5414272,99.1324444 C15.2342899,99.5222168 14.4462557,99.532988 13.8833276,99.5222168 L3.00185787,99.5222168 C3.00185787,99.5222168 2.73879634,105.521362 8.47317134,105.521362 C13.1991235,105.521362 15.865401,103.204102 16.904669,99.9983268 C17.4389435,100.008993 18.5892703,100.001569 19.1802246,98.8724706 C19.1955971,98.8465359 19.2310481,98.7787712 19.3342638,98.564915 L19.3908389,98.4475817 L19.0583945,98.2257778 C18.6988651,97.9852549 17.8727213,97.897098 17.2370089,98.0170458 Z" id="Path" stroke="#888888" fill="#F5F5F5" stroke-linecap="round"></path>
            <g id="Path-2">
                <use fill="#F5F5F5" fill-rule="evenodd" xlink:href="#path-11"></use>
                <path stroke="#888888" stroke-width="1" d="M3.95084941,96.5 L6.44668208,96.5 L6.94668208,96.5 L6.94668208,96 L6.94668208,94.5 L8.44668208,94.5 L8.94668208,94.5 L8.94668208,94 L8.94668208,92.5 L11.9466821,92.5 L11.9466821,95 L11.9466821,95.5 L12.4466821,95.5 L13.9466821,95.5 L13.9466821,99.5 L3.97575006,99.5 L3.95084941,96.5 Z"></path>
            </g>
            <path d="M15.5858887,115.242904 C15.7115366,115.320266 15.7846704,115.498363 15.7483212,115.640487 C15.7483212,115.640487 15.6141321,116.201822 15.4629617,116.606146 C15.3120825,117.009691 15.0457118,117.52047 15.0457118,117.52047 C14.9796854,117.651147 14.8087341,117.737431 14.6629645,117.713038 L13.4809406,117.515235 C13.3355815,117.49091 13.1452011,117.565758 13.0552923,117.681181 C13.0552923,117.681181 12.8306062,117.981902 12.6102244,118.213513 C12.3933882,118.441399 12.1128566,118.674398 12.1128566,118.674398 C12.0017787,118.769871 11.9376008,118.96347 11.9697132,119.10772 L12.230108,120.277423 C12.26213,120.421267 12.1851367,120.597365 12.0576512,120.669945 C12.0576512,120.669945 11.5606445,120.963354 11.1647866,121.135477 C10.7696914,121.30727 10.2172308,121.470476 10.2172308,121.470476 C10.0773638,121.513756 9.89655996,121.450747 9.81286774,121.328974 L9.13421998,120.341535 C9.05076344,120.220105 8.86456275,120.134977 8.71873599,120.150216 C8.71873599,120.150216 8.32040045,120.200131 7.97865607,120.200131 C7.59911566,120.200131 7.12965907,120.13549 7.12965907,120.13549 C6.98400976,120.11789 6.7968551,120.20054 6.71109804,120.32085 L6.01570679,121.29643 C5.93019122,121.416402 5.74776975,121.476956 5.60852787,121.430781 C5.60852787,121.430781 5.05792008,121.257762 4.66512653,121.078756 C4.27308963,120.900094 3.78213554,120.598742 3.78213554,120.598742 C3.65638254,120.523761 3.58223938,120.347182 3.61674922,120.203439 L3.89658434,119.037841 C3.93099699,118.894502 3.86882476,118.699214 3.75998909,118.60222 C3.75998909,118.60222 3.51493255,118.392837 3.31405544,118.178537 C3.10727456,117.957938 2.90395443,117.684665 2.90395443,117.684665 C2.81442622,117.568564 2.62434804,117.494017 2.47848551,117.518313 L1.29570786,117.715318 C1.15025608,117.739545 0.978324848,117.65326 0.912516384,117.522151 C0.912516384,117.522151 0.645520834,117.01047 0.494350444,116.606146 C0.343471259,116.202601 0.209402337,115.642356 0.209402337,115.642356 C0.173501195,115.500416 0.245914258,115.323141 0.371934081,115.245916 L1.28065018,114.689054 C1.46881163,114.573748 1.80076867,114.479985 2.02114529,114.47963 L5.67525252,114.473738 C5.96379463,115.473668 6.88582262,116.204973 7.97865607,116.204973 C9.07148952,116.204973 9.99351751,115.473668 10.2820596,114.473738 L13.9367797,114.473738 C14.1576195,114.473738 14.4891214,114.567619 14.6772957,114.683479 L15.5858887,115.242904 Z" id="Combined-Shape-Copy" stroke="#888888" fill="#F5F5F5" stroke-linecap="round" transform="translate(7.978932, 117.978932) rotate(135.000000) translate(-7.978932, -117.978932) "></path>
            <path d="M21.5858887,121.242904 C21.7115366,121.320266 21.7846704,121.498363 21.7483212,121.640487 C21.7483212,121.640487 21.6141321,122.201822 21.4629617,122.606146 C21.3120825,123.009691 21.0457118,123.52047 21.0457118,123.52047 C20.9796854,123.651147 20.8087341,123.737431 20.6629645,123.713038 L19.4809406,123.515235 C19.3355815,123.49091 19.1452011,123.565758 19.0552923,123.681181 C19.0552923,123.681181 18.8306062,123.981902 18.6102244,124.213513 C18.3933882,124.441399 18.1128566,124.674398 18.1128566,124.674398 C18.0017787,124.769871 17.9376008,124.96347 17.9697132,125.10772 L18.230108,126.277423 C18.26213,126.421267 18.1851367,126.597365 18.0576512,126.669945 C18.0576512,126.669945 17.5606445,126.963354 17.1647866,127.135477 C16.7696914,127.30727 16.2172308,127.470476 16.2172308,127.470476 C16.0773638,127.513756 15.89656,127.450747 15.8128677,127.328974 L15.13422,126.341535 C15.0507634,126.220105 14.8645627,126.134977 14.718736,126.150216 C14.718736,126.150216 14.3204004,126.200131 13.9786561,126.200131 C13.5991157,126.200131 13.1296591,126.13549 13.1296591,126.13549 C12.9840098,126.11789 12.7968551,126.20054 12.711098,126.32085 L12.0157068,127.29643 C11.9301912,127.416402 11.7477697,127.476956 11.6085279,127.430781 C11.6085279,127.430781 11.0579201,127.257762 10.6651265,127.078756 C10.2730896,126.900094 9.78213554,126.598742 9.78213554,126.598742 C9.65638254,126.523761 9.58223938,126.347182 9.61674922,126.203439 L9.89658434,125.037841 C9.93099699,124.894502 9.86882476,124.699214 9.75998909,124.60222 C9.75998909,124.60222 9.51493255,124.392837 9.31405544,124.178537 C9.10727456,123.957938 8.90395443,123.684665 8.90395443,123.684665 C8.81442622,123.568564 8.62434804,123.494017 8.47848551,123.518313 L7.29570786,123.715318 C7.15025608,123.739545 6.97832485,123.65326 6.91251638,123.522151 C6.91251638,123.522151 6.64552083,123.01047 6.49435044,122.606146 C6.34347126,122.202601 6.20940234,121.642356 6.20940234,121.642356 C6.17350119,121.500416 6.24591426,121.323141 6.37193408,121.245916 L7.28065018,120.689054 C7.46881163,120.573748 7.80076867,120.479985 8.02114529,120.47963 L11.6752525,120.473738 C11.9637946,121.473668 12.8858226,122.204973 13.9786561,122.204973 C15.0714895,122.204973 15.9935175,121.473668 16.2820596,120.473738 L19.9367797,120.473738 C20.1576195,120.473738 20.4891214,120.567619 20.6772957,120.683479 L21.5858887,121.242904 Z" id="Combined-Shape-Copy-4" stroke="#888888" fill="#F5F5F5" stroke-linecap="round" transform="translate(13.978932, 123.978932) rotate(-45.000000) translate(-13.978932, -123.978932) "></path>
            <g id="Rectangle-3-Copy-7" transform="translate(10.606602, 143.606602) rotate(45.000000) translate(-10.606602, -143.606602) ">
                <use fill="#F5F5F5" fill-rule="evenodd" xlink:href="#path-12"></use>
                <rect stroke="#888888" stroke-width="1" x="3.60660172" y="136.606602" width="14" height="14" rx="2"></rect>
            </g>
            <circle id="Oval-5" stroke="#888888" cx="14.6066017" cy="143.606602" r="1"></circle>
            <circle id="Oval-5-Copy" stroke="#888888" cx="10.6066017" cy="147.606602" r="1"></circle>
            <path d="M13.6066017,142.606602 L7.82522965,136.821262" id="Line" stroke="#888888"></path>
            <polygon id="Rectangle-8" fill="#888888" points="10.1066017 139.106602 11.1066017 140.106602 11.1066017 147.106602 10.1066017 147.106602"></polygon>
            <g id="Rectangle-3-Copy-4">
                <use fill="#F5F5F5" fill-rule="evenodd" xlink:href="#path-13"></use>
                <rect stroke="#888888" stroke-width="1" x="3.5" y="179.5" width="15" height="15" rx="2"></rect>
            </g>
            <g id="Combined-Shape">
                <use fill="#F5F5F5" fill-rule="evenodd" xlink:href="#path-14"></use>
                <path stroke="#888888" stroke-width="1" d="M9.5,182.755657 L9.5,187 L9.5,187.5 L10,187.5 L12,187.5 L12.5,187.5 L12.5,187 L12.5,182.755657 C14.2663294,183.378666 15.5,185.062717 15.5,187 C15.5,188.806016 14.4264254,190.415083 12.7998142,191.12578 L12.5,191.256774 L12.5,191.583956 L12.5,194.5 L9.5,194.5 L9.5,191.583956 L9.5,191.256774 L9.2001858,191.12578 C7.57357457,190.415083 6.5,188.806016 6.5,187 C6.5,185.062717 7.73367063,183.378666 9.5,182.755657 Z"></path>
            </g>
            <g id="Polygon">
                <use fill="#F5F5F5" fill-rule="evenodd" xlink:href="#path-15"></use>
                <path stroke="#888888" stroke-width="1" d="M11,200.57735 L18.2942286,204.788675 L18.2942286,213.211325 L11,217.42265 L3.70577137,213.211325 L3.70577137,204.788675 L11,200.57735 Z"></path>
            </g>
            <rect id="Rectangle-15-Copy-5" fill="#888888" x="6" y="206" width="1" height="3"></rect>
            <rect id="Rectangle-15-Copy-8" fill="#888888" x="9" y="208" width="1" height="1"></rect>
            <rect id="Rectangle-15-Copy-9" fill="#888888" x="9" y="203" width="1" height="3"></rect>
            <rect id="Rectangle-15-Copy-10" fill="#888888" x="12" y="208" width="1" height="3"></rect>
            <rect id="Rectangle-15-Copy-11" fill="#888888" x="15" y="205" width="1" height="1"></rect>
            <rect id="Rectangle-15-Copy-12" fill="#888888" x="15" y="208" width="1" height="2"></rect>
            <rect id="Rectangle-15-Copy-13" fill="#888888" x="12" y="204" width="1" height="2"></rect>
            <rect id="Rectangle-15-Copy-15" fill="#888888" x="9" y="211" width="1" height="3"></rect>
            <rect id="Rectangle-15-Copy-16" fill="#888888" x="6" y="211" width="1" height="1"></rect>
            <rect id="Rectangle-15-Copy-17" fill="#888888" x="15" y="212" width="1" height="1"></rect>
            <rect id="Rectangle-15-Copy-14" fill="#888888" x="12" y="213" width="1" height="2"></rect>
            <g id="Group" transform="translate(10.960155, 252.960155) rotate(45.000000) translate(-10.960155, -252.960155) translate(4.460155, 243.960155)">
                <g id="Rectangle-10">
                    <use fill="#F5F5F5" fill-rule="evenodd" xlink:href="#path-16"></use>
                    <path stroke="#888888" stroke-width="1" d="M6.5,4.98284095 L12.1237758,14.5 L0.876224197,14.5 L6.5,4.98284095 Z"></path>
                </g>
                <g id="Combined-Shape">
                    <use fill="#F5F5F5" fill-rule="evenodd" xlink:href="#path-17"></use>
                    <path stroke="#888888" stroke-width="1" d="M7.62462906,14.5 L5.23954211,14.5 C3.50150822,12.8177211 2.5,10.5073503 2.5,8.03529408 C2.5,5.01899183 3.99559777,2.25973901 6.43208559,0.598042375 C8.8685734,2.25973901 10.3641712,5.01899183 10.3641712,8.03529408 C10.3641712,10.5073503 9.36266295,12.8177211 7.62462906,14.5 Z"></path>
                </g>
                <g id="Oval-4">
                    <use fill="#F5F5F5" fill-rule="evenodd" xlink:href="#path-18"></use>
                    <circle stroke="#888888" stroke-width="1" cx="6.5" cy="5.5" r="1"></circle>
                </g>
                <polygon id="Rectangle-9" fill="#888888" points="5 16 8 16 6.5 18"></polygon>
            </g>
            <g id="Rectangle-3-Copy-12">
                <use fill="#F5F5F5" fill-rule="evenodd" xlink:href="#path-19"></use>
                <rect stroke="#888888" stroke-width="1" x="3.5" y="268.5" width="15" height="13" rx="2"></rect>
            </g>
            <rect id="Rectangle-15" fill="#888888" x="6" y="276" width="1" height="6"></rect>
            <rect id="Rectangle-15-Copy-4" fill="#888888" x="12" y="275" width="1" height="7"></rect>
            <rect id="Rectangle-15-Copy-5" fill="#888888" x="15" y="273" width="1" height="9"></rect>
            <rect id="Rectangle-15-Copy-2" fill="#888888" x="9" y="277" width="1" height="5"></rect>
            <g id="Rectangle-3-Copy-6">
                <use fill="#F5F5F5" fill-rule="evenodd" xlink:href="#path-20"></use>
                <rect stroke="#888888" stroke-width="1" x="3.5" y="289.5" width="15" height="15" rx="2"></rect>
            </g>
            <path d="M11.4869385,289.592773 C11.4869385,289.592773 11.4869385,292.239746 12.0334473,293.089478 C12.6942139,294.446045 14.592041,295.866577 14.592041,298.110474 C14.6571045,299.475342 11.663208,298.717041 11.663208,298.717041 C11.663208,298.717041 12.494873,302.266968 11.4869385,304.333252" id="Path-5" stroke="#888888" stroke-linecap="round" stroke-linejoin="round"></path>
            <path d="M7.57653809,299.972686 C7.57653809,299.972686 8.64953613,301.599854 11.8931885,301.089844" id="Path-6" stroke="#888888" stroke-linecap="round"></path>
            <path d="M9.32531738,292.771729 C9.32531738,292.771729 8.32781982,292.911987 7.33032227,293.850586" id="Path-7" stroke="#888888" stroke-linecap="round"></path>
            <g id="Rectangle-3-Copy-23">
                <use fill="#F5F5F5" fill-rule="evenodd" xlink:href="#path-21"></use>
                <rect stroke="#888888" stroke-width="1" x="3.5" y="313.5" width="7" height="12"></rect>
            </g>
            <rect id="Rectangle-4-Copy" fill="#888888" x="5" y="316" width="4" height="1"></rect>
            <rect id="Rectangle-4-Copy-2" fill="#888888" x="5" y="319" width="4" height="1"></rect>
            <rect id="Rectangle-4-Copy-4" fill="#888888" x="5" y="322" width="4" height="1"></rect>
            <g id="Rectangle-3-Copy-24">
                <use fill="#F5F5F5" fill-rule="evenodd" xlink:href="#path-22"></use>
                <rect stroke="#888888" stroke-width="1" x="10.5" y="316.5" width="7" height="9"></rect>
            </g>
            <rect id="Rectangle-4-Copy-5" fill="#888888" x="12" y="319" width="4" height="1"></rect>
            <rect id="Rectangle-4-Copy-7" fill="#888888" x="12" y="322" width="4" height="1"></rect>
            <g id="Rectangle-3-Copy-15">
                <use fill="#F5F5F5" fill-rule="evenodd" xlink:href="#path-23"></use>
                <rect stroke="#888888" stroke-width="1" x="3.5" y="333.5" width="15" height="15" rx="7.5"></rect>
            </g>
            <circle id="Oval-Copy-12" fill="#888888" cx="11" cy="335.5" r="1"></circle>
            <circle id="Oval-Copy-14" fill="#888888" cx="5.5" cy="341" r="1"></circle>
            <circle id="Oval-Copy-15" fill="#888888" cx="16.5" cy="341" r="1"></circle>
            <circle id="Oval-Copy-13" fill="#888888" cx="11" cy="346.5" r="1"></circle>
            <circle id="Oval-Copy-17" fill="#888888" transform="translate(13.750000, 336.236860) rotate(30.000000) translate(-13.750000, -336.236860) " cx="13.75" cy="336.23686" r="1"></circle>
            <circle id="Oval-Copy-16" fill="#888888" transform="translate(8.250000, 345.763140) rotate(30.000000) translate(-8.250000, -345.763140) " cx="8.25" cy="345.76314" r="1"></circle>
            <circle id="Oval-Copy-17" fill="#888888" transform="translate(15.763140, 338.250000) rotate(60.000000) translate(-15.763140, -338.250000) " cx="15.7631397" cy="338.25" r="1"></circle>
            <circle id="Oval-Copy-16" fill="#888888" transform="translate(6.236860, 343.750000) rotate(60.000000) translate(-6.236860, -343.750000) " cx="6.23686028" cy="343.75" r="1"></circle>
            <circle id="Oval-Copy-17" fill="#888888" transform="translate(15.763140, 343.750000) rotate(120.000000) translate(-15.763140, -343.750000) " cx="15.7631397" cy="343.75" r="1"></circle>
            <circle id="Oval-Copy-16" fill="#888888" transform="translate(6.236860, 338.250000) rotate(120.000000) translate(-6.236860, -338.250000) " cx="6.23686028" cy="338.25" r="1"></circle>
            <circle id="Oval-Copy-17" fill="#888888" transform="translate(13.750000, 345.763140) rotate(150.000000) translate(-13.750000, -345.763140) " cx="13.75" cy="345.76314" r="1"></circle>
            <circle id="Oval-Copy-16" fill="#888888" transform="translate(8.250000, 336.236860) rotate(150.000000) translate(-8.250000, -336.236860) " cx="8.25" cy="336.23686" r="1"></circle>
            <g id="Rectangle-3-Copy-25">
                <use fill="#F5F5F5" fill-rule="evenodd" xlink:href="#path-24"></use>
                <rect stroke="#888888" stroke-width="1" x="7.5" y="337.5" width="7" height="7" rx="3.5"></rect>
            </g>
            <g id="Rectangle-3-Copy-16">
                <use fill="#F5F5F5" fill-rule="evenodd" xlink:href="#path-25"></use>
                <path stroke="#888888" stroke-width="1" d="M17.3596118,367.5 L4.6403882,367.5 L6.51520019,360.000752 L6.51520019,360.000752 C6.99480255,358.082343 9.02315256,356.5 11,356.5 C12.9767688,356.5 15.0060874,358.085903 15.4847998,360.000752 L17.3596118,367.5 Z"></path>
            </g>
            <path d="M11,371 C12.1045695,371 13,370.104569 13,369 C11.9335938,369 10.1491699,369 9,369 C9,370.104569 9.8954305,371 11,371 Z" id="Oval-2" fill="#888888"></path>
            <path d="M5.5,364.5 L16.5,364.5" id="Line" stroke="#888888" stroke-linecap="square"></path>
            <g id="Rectangle-3-Copy-17">
                <use fill="#F5F5F5" fill-rule="evenodd" xlink:href="#path-26"></use>
                <rect stroke="#888888" stroke-width="1" x="3.5" y="377.5" width="15" height="15" rx="2"></rect>
            </g>
            <g id="Oval-3">
                <use fill="#F5F5F5" fill-rule="evenodd" xlink:href="#path-27"></use>
                <circle stroke="#888888" stroke-width="1" cx="8" cy="382" r="1.5"></circle>
            </g>
            <g id="Oval-3-Copy">
                <use fill="#F5F5F5" fill-rule="evenodd" xlink:href="#path-28"></use>
                <circle stroke="#888888" stroke-width="1" cx="14" cy="382" r="1.5"></circle>
            </g>
            <g id="Oval-3-Copy-2">
                <use fill="#F5F5F5" fill-rule="evenodd" xlink:href="#path-29"></use>
                <circle stroke="#888888" stroke-width="1" cx="14" cy="388" r="1.5"></circle>
            </g>
            <g id="Oval-3-Copy-3">
                <use fill="#F5F5F5" fill-rule="evenodd" xlink:href="#path-30"></use>
                <circle stroke="#888888" stroke-width="1" cx="8" cy="388" r="1.5"></circle>
            </g>
            <g id="Rectangle-3-Copy-18">
                <use fill="#F5F5F5" fill-rule="evenodd" xlink:href="#path-31"></use>
                <rect stroke="#888888" stroke-width="1" x="3.5" y="399.5" width="15" height="15" rx="2"></rect>
            </g>
            <text id="$" font-family="SourceSansPro-Regular, Source Sans Pro" font-size="12" font-weight="normal" fill="#888888">
                <tspan x="8" y="411">$</tspan>
            </text>
            <g id="Rectangle-3-Copy-27">
                <use fill="#F5F5F5" fill-rule="evenodd" xlink:href="#path-32"></use>
                <rect stroke="#888888" stroke-width="1" x="3.5" y="424.5" width="15" height="13" rx="2"></rect>
            </g>
            <g id="Rectangle-3-Copy-26">
                <use fill="#F5F5F5" fill-rule="evenodd" xlink:href="#path-33"></use>
                <rect stroke="#888888" stroke-width="1" x="5.5" y="422.5" width="11" height="13" rx="1"></rect>
            </g>
            <g id="Rectangle-3-Copy-19">
                <use fill="#F5F5F5" fill-rule="evenodd" xlink:href="#path-34"></use>
                <path stroke="#888888" stroke-width="1" d="M3.5,433.5 L3.5,422.005859 C3.5,421.173814 4.17358389,420.5 5.00585866,420.5 L14.9941413,420.5 C15.8261856,420.5 16.5,421.173584 16.5,422.005859 L16.5,432.993155 C16.5,433.273429 16.2735579,433.5 15.9931545,433.5 L3.5,433.5 Z"></path>
            </g>
            <rect id="Rectangle-4-Copy-8" fill="#888888" x="6" y="424" width="8" height="1"></rect>
            <rect id="Rectangle-4-Copy-9" fill="#888888" x="6" y="426" width="8" height="1"></rect>
        </g>
    </g>
</svg>