<svg width="320" height="80" viewBox="0 0 320 80" xmlns="http://www.w3.org/2000/svg"><title>docs-classic-link-bg</title><g fill="none" fill-rule="evenodd"><path d="M102.13 53.483c-7.96.1-40.802-1.587-58.256-1.413-7.45.074-31.601-2.19-30.857 14.029.564 12.307 14.108 13.57 20.406 13.413 8.88-.223 47.644 2.159 61.199 1.3 9.534-.601 31.015 2.44 29.143-16.713-1.127-11.535-15.11-10.7-21.634-10.616z" fill="#0DE888"/><path d="M203.478 2.616c-13.207-13.132-38.31.788-26.324 18.413 12.597 18.524 42.079-2.75 26.324-18.413" fill="#FFD40D"/><path d="M300.357 62.445c9.388-6.391 19.111-23.233 12.436-31.816-4.274-5.495-13.13-7.574-18.317 1.463-17.758 30.938-37.846 13.354-39.43 28.403-1.239 11.778 22.575 17.426 45.31 1.95z" fill="#9DE0FF"/></g></svg>
