<svg width="27" height="26" viewBox="0 0 27 26" xmlns="http://www.w3.org/2000/svg" xmlns:sketch="http://www.bohemiancoding.com/sketch/ns"><title>icon 3</title><desc>Created with Sketch.</desc><g sketch:type="MSShapeGroup" fill="none"><path d="M13.222 4.942c0-2.004-1.618-3.628-3.611-3.628-1.996 0-3.611 1.624-3.611 3.628 0 .562.128 1.091.357 1.563" id="Shape" stroke="#CECEB8" stroke-width="2"/><path d="M24.542 12.737h-.904c-.471 0-.694-.21-.729-.425-.246-1.557-1.253-3.579-3.783-4.467-.024-1.408.288-2.424.897-4.077-1.415.357-2.978 1.131-3.904 3.181-1.043-.256-2.157-.395-3.321-.395-3.047 0-5.346.929-7.186 2.368-1.662 1.3-2.706 3.477-2.582 6.446.093 2.24 1.646 3.949 2.837 4.906.172.136.514.354.335.911-.179.555-.502 1.331-.502 1.331-.188.495.062 1.05.553 1.238l1.788.679c.492.189 1.045-.061 1.232-.556l.431-1.141c.367-.976.592-.184 3.092-.184 2.598 0 2.861-.509 3.132.29.174.522.391 1.035.391 1.035.186.495.739.745 1.233.556l1.786-.679c.493-.188.743-.743.555-1.238l-.287-.762s-.292-.502.333-.843c1.246-.681 2.184-1.714 2.793-2.99.129-.273.321-.645.903-.645h.904c.498 0 .903-.407.903-.906v-2.723c0-.501-.405-.909-.903-.909z" id="Shape" stroke="#CECEB8" stroke-width="2"/><path d="M19.6 14.352c-.588 0-1.064-.478-1.064-1.068 0-.589.476-1.067 1.064-1.067.587 0 1.061.478 1.061 1.067.001.589-.474 1.068-1.061 1.068z" id="Shape" fill="#CECEB8"/><path d="M3.126 12.216s-2.126-.489-2.126-2.415c0-.79.397-1.516 1.091-1.817" stroke="#CECEB8" stroke-width="2"/></g></svg>