<?xml version="1.0" encoding="UTF-8" standalone="no"?>
<svg width="60px" height="60px" viewBox="0 0 60 60" version="1.1" xmlns="http://www.w3.org/2000/svg" xmlns:xlink="http://www.w3.org/1999/xlink" xmlns:sketch="http://www.bohemiancoding.com/sketch/ns">
    <!-- Generator: Sketch 3.2.2 (9983) - http://www.bohemiancoding.com/sketch -->
    <title>icon</title>
    <desc>Created with Sketch.</desc>
    <defs>
        <rect id="path-1" x="0" y="0" width="60" height="60" rx="44"></rect>
    </defs>
    <g id="Page-1" stroke="none" stroke-width="1" fill="none" fill-rule="evenodd" sketch:type="MSPage">
        <g id="listing---tutorials" sketch:type="MSArtboardGroup" transform="translate(-116.000000, -1424.000000)">
            <g id="thread-8" sketch:type="MSLayerGroup" transform="translate(90.000000, 1421.000000)">
                <g id="icon" transform="translate(26.000000, 3.000000)">
                    <mask id="mask-2" sketch:name="Rectangle 33" fill="white">
                        <use xlink:href="#path-1"></use>
                    </mask>
                    <use id="Rectangle-33" fill="#8892BF" sketch:type="MSShapeGroup" xlink:href="#path-1"></use>
                    <g id="logo" mask="url(#mask-2)" fill="#FFFFFF" sketch:type="MSShapeGroup">
                        <g transform="translate(11.724138, 21.379310)" id="Shape">
                            <path d="M7.72886078,6.23723853 C8.93402435,6.23723853 9.73721281,6.46191793 10.138807,6.91135366 C10.5400204,7.3607894 10.6356199,8.13223995 10.4256818,9.22539755 C10.2063742,10.3637988 9.7840604,11.176338 9.15805482,11.663169 C8.53204924,12.1500769 7.57940556,12.3932231 6.30050466,12.3932231 L4.37099367,12.3932231 L5.55543767,6.23723853 L7.72886078,6.23723853 L7.72886078,6.23723853 Z M0,18.6250755 L3.17215262,18.6250755 L3.92453241,14.7144999 L6.641616,14.7144999 C7.84053322,14.7144999 8.82677005,14.5875406 9.60101204,14.3328527 C10.3753302,14.0785494 11.078958,13.6520433 11.7123526,13.0532573 C12.2439012,12.5596552 12.6739849,12.0152693 13.0033653,11.4199459 C13.3323648,10.8250841 13.5661457,10.1682816 13.704327,9.45007694 C14.0399538,7.70650328 13.7866721,6.34842405 12.9452438,5.37545455 C12.1038155,4.40248504 10.7651935,3.91603876 8.93013943,3.91603876 L2.83020336,3.91603876 L0,18.6250755 L0,18.6250755 Z"></path>
                            <path d="M16.0340611,0.0054630949 L19.1811521,0.0054630949 L18.4286962,3.91603876 L21.2323907,3.91603876 C22.9963735,3.91603876 24.213268,4.22705044 24.882998,4.84838131 C25.5526518,5.47009689 25.7532966,6.47730693 25.4855417,7.86970362 L24.1687819,14.7144999 L20.9717201,14.7144999 L22.2237312,8.20633799 C22.3661783,7.46597321 22.3139223,6.96098319 22.0665062,6.69175264 C21.81909,6.42244514 21.292645,6.28771445 20.487476,6.28771445 L17.9721798,6.28771445 L16.3509488,14.7144229 L13.2037815,14.7144229 L16.0340611,0.0054630949 L16.0340611,0.0054630949 Z"></path>
                            <path d="M32.487846,6.23723853 C33.6930096,6.23723853 34.4961981,6.46191793 34.8977923,6.91135366 C35.299158,7.3607894 35.3946814,8.13223995 35.1846671,9.22539755 C34.9653595,10.3637988 34.543198,11.176338 33.9170401,11.663169 C33.2910345,12.1500769 32.3383908,12.3932231 31.0594899,12.3932231 L29.1300551,12.3932231 L30.3144991,6.23723853 L32.487846,6.23723853 L32.487846,6.23723853 Z M24.7590614,18.6250755 L27.931214,18.6250755 L28.6835176,14.7144999 L31.4006012,14.7144999 C32.5995185,14.7144999 33.5857553,14.5875406 34.3600735,14.3328527 C35.1343154,14.0785494 35.8379433,13.6520433 36.471414,13.0532573 C37.0030388,12.5596552 37.4330463,12.0152693 37.7624267,11.4199459 C38.0913501,10.8250841 38.3252071,10.1682816 38.4633122,9.45007694 C38.798939,7.70650328 38.5457335,6.34842405 37.7042291,5.37545455 C36.8628008,4.40248504 35.5241787,3.91603876 33.6891247,3.91603876 L27.589341,3.91603876 L24.7590614,18.6250755 L24.7590614,18.6250755 Z"></path>
                        </g>
                    </g>
                </g>
            </g>
        </g>
    </g>
</svg>