<svg width="87" height="87" viewBox="0 0 87 87" xmlns="http://www.w3.org/2000/svg" xmlns:sketch="http://www.bohemiancoding.com/sketch/ns"><title>icon</title><desc>Created with Sketch.</desc><g transform="translate(0 0)" sketch:type="MSShapeGroup" fill="none"><circle fill="#8EB43F" cx="43.5" cy="43.5" r="43.5"/><path d="M35.571 36.286h-9.432c-1.734 0-3.14 1.399-3.14 3.143v20.428c0 1.736 1.393 3.143 3.14 3.143h30.632000000000005c2.177 0 3.942-1.744 3.942-3.929 0-.884-.291-1.701-.785-2.357 2.17-.008 3.927-1.749 3.927-3.929 0-.999-.372-1.911-.986-2.604 1.494-.555 2.558-1.985 2.558-3.681 0-.999-.372-1.911-.986-2.604 1.494-.555 2.558-1.985 2.558-3.681 0-2.17-1.753-3.929-3.942-3.929h-9.416c1.649-7.884.859-17.286-5.5-17.286s-3.039 7.523-5.5 12.199c-2.461 4.675-7.071 5.087-7.071 5.087zm-9.443 1.571c-.86 0-1.557.705-1.557 1.583v20.405c0 .874.709 1.583 1.557 1.583h7.872v-23.571h-7.872zm3.157 20.429c.868 0 1.571-.704 1.571-1.571 0-.868-.704-1.571-1.571-1.571-.868 0-1.571.704-1.571 1.571 0 .868.704 1.571 1.571 1.571zm22.471-20.429h11.325c1.303 0 2.346 1.055 2.346 2.357 0 1.311-1.05 2.357-2.346 2.357h-5.511v1.571h3.939c1.303 0 2.346 1.055 2.346 2.357 0 1.311-1.05 2.357-2.346 2.357h-5.511v1.571h3.939c1.303 0 2.346 1.055 2.346 2.357 0 1.311-1.05 2.357-2.346 2.357h-5.511v1.571h2.355c1.305 0 2.36 1.055 2.36 2.357 0 1.311-1.057 2.357-2.36 2.357h-21.212v-23.571c2.357 0 4.409-1.571 4.409-1.571 1.43-.893 2.98-2.244 4.031-4.241 2.461-4.675-.38-11.473 4.131-11.473 4.652 0 5.418 7.626 3.93 15.714l-.316 1.571z" fill="#fff"/></g></svg>