<?xml version="1.0" encoding="UTF-8" standalone="no"?>
<svg width="60px" height="60px" viewBox="0 0 60 60" version="1.1" xmlns="http://www.w3.org/2000/svg" xmlns:xlink="http://www.w3.org/1999/xlink" xmlns:sketch="http://www.bohemiancoding.com/sketch/ns">
    <!-- Generator: Sketch 3.4 (15575) - http://www.bohemiancoding.com/sketch -->
    <title>icon-tag-docker</title>
    <desc>Created with Sketch.</desc>
    <defs></defs>
    <g id="Page-1" stroke="none" stroke-width="1" fill="none" fill-rule="evenodd" sketch:type="MSPage">
        <g id="comunity-tags-icons-copy" sketch:type="MSArtboardGroup" transform="translate(-2852.000000, -3575.000000)">
            <g id="icon-tag-docker" sketch:type="MSLayerGroup" transform="translate(2852.000000, 3575.000000)">
                <ellipse id="Oval-1" fill="#0099C9" sketch:type="MSShapeGroup" cx="30" cy="30" rx="30" ry="30"></ellipse>
                <g id="Group" transform="translate(10.000000, 17.000000)" sketch:type="MSShapeGroup">
                    <path d="M20.7907359,8.18017316 L24.8726407,8.18017316 L24.8726407,12.3528139 L26.9364502,12.3528139 C27.8895238,12.3528139 28.8697835,12.1829437 29.772381,11.8771429 C30.2159307,11.7268398 30.7136797,11.5174892 31.1512554,11.2543723 C30.5749784,10.5020779 30.2808658,9.55212121 30.1941991,8.61575758 C30.0766234,7.3421645 30.3335065,5.68458874 31.1954113,4.68779221 L31.6245022,4.19151515 L32.1357576,4.60251082 C33.4229437,5.63679654 34.5056277,7.08199134 34.6965368,8.72935065 C36.2464069,8.27341991 38.0663203,8.3812987 39.4325541,9.16987013 L39.9931602,9.49316017 L39.6980952,10.0690909 C38.542684,12.3241558 36.127013,13.0225974 33.7652814,12.8991342 C30.231342,21.7011255 22.5375758,25.8683117 13.2087446,25.8683117 C8.38917749,25.8683117 3.96735931,24.0665801 1.44935065,19.7906494 L1.40805195,19.7207792 L1.04112554,18.9743723 C0.19004329,17.0922078 -0.0926406926,15.030303 0.0991341991,12.9699567 L0.156623377,12.3529004 L3.64709957,12.3529004 L3.64709957,8.18025974 L7.72874459,8.18025974 L7.72874459,4.09844156 L15.8925541,4.09844156 L15.8925541,0.0165367965 L20.7907359,0.0165367965 L20.7907359,8.18017316 L20.7907359,8.18017316 Z" id="outline_7_" fill="#FFFFFF"></path>
                    <path d="M5.11627706,21.2891775 C5.63774892,21.2891775 6.13471861,21.2755844 6.60709957,21.2490043 C6.64831169,21.2467532 6.68779221,21.2435498 6.72848485,21.241039 C6.72891775,21.2408658 6.72917749,21.2408658 6.72952381,21.2408658 C7.93056277,21.1668398 8.96987013,21.0064069 9.83792208,20.7586147 C9.83809524,20.7584416 9.8382684,20.7584416 9.83844156,20.7584416 C9.99627706,20.7133333 10.1490909,20.6658009 10.2957576,20.6150649 C10.4597403,20.5581818 10.5464935,20.3791342 10.4897835,20.2152381 C10.432987,20.0511688 10.2541126,19.9642424 10.0899567,20.0212987 C8.98744589,20.40329 7.53281385,20.6136797 5.75012987,20.6531602 L5.74969697,20.6531602 C4.8425974,20.6732468 3.85099567,20.6493506 2.77549784,20.5801732 C2.77549784,20.5801732 2.77549784,20.5801732 2.77541126,20.5801732 C2.7204329,20.5768831 2.66640693,20.5736797 2.61090909,20.5699567 C2.43818182,20.5588745 2.28787879,20.6889177 2.27593074,20.8621645 C2.26415584,21.0352381 2.39506494,21.1851082 2.56813853,21.1968831 C2.78779221,21.2118615 3.00363636,21.2246753 3.21662338,21.2361039 C3.25056277,21.2379221 3.28329004,21.2390476 3.31688312,21.2407792 L3.31688312,21.2407792 C3.94510823,21.2724675 4.54580087,21.2891775 5.11627706,21.2891775 L5.11627706,21.2891775 Z" id="Shape" fill="#FFFFFF"></path>
                    <g id="Containers_8_" transform="translate(4.242424, 0.692641)" fill="#0099C9">
                        <path d="M3.04839827,8.46268398 L3.32779221,8.46268398 L3.32779221,11.4109091 L3.04839827,11.4109091 L3.04839827,8.46268398 L3.04839827,8.46268398 Z M2.51255411,8.46268398 L2.80294372,8.46268398 L2.80294372,11.4109091 L2.51255411,11.4109091 L2.51255411,8.46268398 L2.51255411,8.46268398 Z M1.97645022,8.46268398 L2.26683983,8.46268398 L2.26683983,11.4109091 L1.97645022,11.4109091 L1.97645022,8.46268398 L1.97645022,8.46268398 Z M1.44034632,8.46268398 L1.73073593,8.46268398 L1.73073593,11.4109091 L1.44034632,11.4109091 L1.44034632,8.46268398 L1.44034632,8.46268398 Z M0.904415584,8.46268398 L1.19480519,8.46268398 L1.19480519,11.4109091 L0.904415584,11.4109091 L0.904415584,8.46268398 L0.904415584,8.46268398 Z M0.3795671,8.46268398 L0.658701299,8.46268398 L0.658701299,11.4109091 L0.3795671,11.4109091 L0.3795671,8.46268398 L0.3795671,8.46268398 Z M0.0849350649,8.16779221 L3.62242424,8.16779221 L3.62242424,11.7054545 L0.0849350649,11.7054545 L0.0849350649,8.16779221 L0.0849350649,8.16779221 Z" id="Shape"></path>
                        <path d="M7.13021645,4.38077922 L7.40978355,4.38077922 L7.40978355,7.32891775 L7.13021645,7.32891775 L7.13021645,4.38077922 L7.13021645,4.38077922 Z M6.59437229,4.38077922 L6.8847619,4.38077922 L6.8847619,7.32891775 L6.59437229,7.32891775 L6.59437229,4.38077922 L6.59437229,4.38077922 Z M6.0582684,4.38077922 L6.34865801,4.38077922 L6.34865801,7.32891775 L6.0582684,7.32891775 L6.0582684,4.38077922 L6.0582684,4.38077922 Z M5.5221645,4.38077922 L5.81255411,4.38077922 L5.81255411,7.32891775 L5.5221645,7.32891775 L5.5221645,4.38077922 L5.5221645,4.38077922 Z M4.98640693,4.38077922 L5.27662338,4.38077922 L5.27662338,7.32891775 L4.98640693,7.32891775 L4.98640693,4.38077922 L4.98640693,4.38077922 Z M4.46155844,4.38077922 L4.74051948,4.38077922 L4.74051948,7.32891775 L4.46155844,7.32891775 L4.46155844,4.38077922 L4.46155844,4.38077922 Z M4.16658009,4.08597403 L7.70450216,4.08597403 L7.70450216,7.62354978 L4.16658009,7.62354978 L4.16658009,4.08597403 L4.16658009,4.08597403 Z" id="Shape"></path>
                        <path d="M7.13021645,8.46268398 L7.40978355,8.46268398 L7.40978355,11.4109091 L7.13021645,11.4109091 L7.13021645,8.46268398 L7.13021645,8.46268398 Z M6.59437229,8.46268398 L6.8847619,8.46268398 L6.8847619,11.4109091 L6.59437229,11.4109091 L6.59437229,8.46268398 L6.59437229,8.46268398 Z M6.0582684,8.46268398 L6.34865801,8.46268398 L6.34865801,11.4109091 L6.0582684,11.4109091 L6.0582684,8.46268398 L6.0582684,8.46268398 Z M5.5221645,8.46268398 L5.81255411,8.46268398 L5.81255411,11.4109091 L5.5221645,11.4109091 L5.5221645,8.46268398 L5.5221645,8.46268398 Z M4.98640693,8.46268398 L5.27662338,8.46268398 L5.27662338,11.4109091 L4.98640693,11.4109091 L4.98640693,8.46268398 L4.98640693,8.46268398 Z M4.46155844,8.46268398 L4.74051948,8.46268398 L4.74051948,11.4109091 L4.46155844,11.4109091 L4.46155844,8.46268398 L4.46155844,8.46268398 Z M4.16658009,8.16779221 L7.70450216,8.16779221 L7.70450216,11.7054545 L4.16658009,11.7054545 L4.16658009,8.16779221 L4.16658009,8.16779221 Z" id="Shape"></path>
                        <path d="M11.2122078,8.46268398 L11.4914286,8.46268398 L11.4914286,11.4109091 L11.2122078,11.4109091 L11.2122078,8.46268398 L11.2122078,8.46268398 Z M10.6761905,8.46268398 L10.9666667,8.46268398 L10.9666667,11.4109091 L10.6761905,11.4109091 L10.6761905,8.46268398 L10.6761905,8.46268398 Z M10.1402597,8.46268398 L10.4306494,8.46268398 L10.4306494,11.4109091 L10.1402597,11.4109091 L10.1402597,8.46268398 L10.1402597,8.46268398 Z M9.60415584,8.46268398 L9.89454545,8.46268398 L9.89454545,11.4109091 L9.60415584,11.4109091 L9.60415584,8.46268398 L9.60415584,8.46268398 Z M9.06805195,8.46268398 L9.35844156,8.46268398 L9.35844156,11.4109091 L9.06805195,11.4109091 L9.06805195,8.46268398 L9.06805195,8.46268398 Z M8.54337662,8.46268398 L8.82233766,8.46268398 L8.82233766,11.4109091 L8.54337662,11.4109091 L8.54337662,8.46268398 L8.54337662,8.46268398 Z M8.24857143,8.16779221 L11.7863203,8.16779221 L11.7863203,11.7054545 L8.24857143,11.7054545 L8.24857143,8.16779221 L8.24857143,8.16779221 Z" id="Shape"></path>
                        <path d="M11.2122078,4.38077922 L11.4914286,4.38077922 L11.4914286,7.32891775 L11.2122078,7.32891775 L11.2122078,4.38077922 L11.2122078,4.38077922 Z M10.6761905,4.38077922 L10.9666667,4.38077922 L10.9666667,7.32891775 L10.6761905,7.32891775 L10.6761905,4.38077922 L10.6761905,4.38077922 Z M10.1402597,4.38077922 L10.4306494,4.38077922 L10.4306494,7.32891775 L10.1402597,7.32891775 L10.1402597,4.38077922 L10.1402597,4.38077922 Z M9.60415584,4.38077922 L9.89454545,4.38077922 L9.89454545,7.32891775 L9.60415584,7.32891775 L9.60415584,4.38077922 L9.60415584,4.38077922 Z M9.06805195,4.38077922 L9.35844156,4.38077922 L9.35844156,7.32891775 L9.06805195,7.32891775 L9.06805195,4.38077922 L9.06805195,4.38077922 Z M8.54337662,4.38077922 L8.82233766,4.38077922 L8.82233766,7.32891775 L8.54337662,7.32891775 L8.54337662,4.38077922 L8.54337662,4.38077922 Z M8.24857143,4.08597403 L11.7863203,4.08597403 L11.7863203,7.62354978 L8.24857143,7.62354978 L8.24857143,4.08597403 L8.24857143,4.08597403 Z" id="Shape"></path>
                        <path d="M15.2941126,8.46268398 L15.5734199,8.46268398 L15.5734199,11.4109091 L15.2941126,11.4109091 L15.2941126,8.46268398 L15.2941126,8.46268398 Z M14.7581818,8.46268398 L15.0485714,8.46268398 L15.0485714,11.4109091 L14.7581818,11.4109091 L14.7581818,8.46268398 L14.7581818,8.46268398 Z M14.2220779,8.46268398 L14.5124675,8.46268398 L14.5124675,11.4109091 L14.2220779,11.4109091 L14.2220779,8.46268398 L14.2220779,8.46268398 Z M13.685974,8.46268398 L13.9763636,8.46268398 L13.9763636,11.4109091 L13.685974,11.4109091 L13.685974,8.46268398 L13.685974,8.46268398 Z M13.1501299,8.46268398 L13.4405195,8.46268398 L13.4405195,11.4109091 L13.1501299,11.4109091 L13.1501299,8.46268398 L13.1501299,8.46268398 Z M12.6251948,8.46268398 L12.904329,8.46268398 L12.904329,11.4109091 L12.6251948,11.4109091 L12.6251948,8.46268398 L12.6251948,8.46268398 Z M12.3303896,8.16779221 L15.8681385,8.16779221 L15.8681385,11.7054545 L12.3303896,11.7054545 L12.3303896,8.16779221 L12.3303896,8.16779221 Z" id="Shape"></path>
                        <path d="M15.2941126,4.38077922 L15.5734199,4.38077922 L15.5734199,7.32891775 L15.2941126,7.32891775 L15.2941126,4.38077922 L15.2941126,4.38077922 Z M14.7581818,4.38077922 L15.0485714,4.38077922 L15.0485714,7.32891775 L14.7581818,7.32891775 L14.7581818,4.38077922 L14.7581818,4.38077922 Z M14.2220779,4.38077922 L14.5124675,4.38077922 L14.5124675,7.32891775 L14.2220779,7.32891775 L14.2220779,4.38077922 L14.2220779,4.38077922 Z M13.685974,4.38077922 L13.9763636,4.38077922 L13.9763636,7.32891775 L13.685974,7.32891775 L13.685974,4.38077922 L13.685974,4.38077922 Z M13.1501299,4.38077922 L13.4405195,4.38077922 L13.4405195,7.32891775 L13.1501299,7.32891775 L13.1501299,4.38077922 L13.1501299,4.38077922 Z M12.6251948,4.38077922 L12.904329,4.38077922 L12.904329,7.32891775 L12.6251948,7.32891775 L12.6251948,4.38077922 L12.6251948,4.38077922 Z M12.3303896,4.08597403 L15.8681385,4.08597403 L15.8681385,7.62354978 L12.3303896,7.62354978 L12.3303896,4.08597403 L12.3303896,4.08597403 Z" id="Shape"></path>
                        <path d="M15.2941126,0.298787879 L15.5734199,0.298787879 L15.5734199,3.24709957 L15.2941126,3.24709957 L15.2941126,0.298787879 L15.2941126,0.298787879 Z M14.7581818,0.298787879 L15.0485714,0.298787879 L15.0485714,3.24709957 L14.7581818,3.24709957 L14.7581818,0.298787879 L14.7581818,0.298787879 Z M14.2220779,0.298787879 L14.5124675,0.298787879 L14.5124675,3.24709957 L14.2220779,3.24709957 L14.2220779,0.298787879 L14.2220779,0.298787879 Z M13.685974,0.298787879 L13.9763636,0.298787879 L13.9763636,3.24709957 L13.685974,3.24709957 L13.685974,0.298787879 L13.685974,0.298787879 Z M13.1501299,0.298787879 L13.4405195,0.298787879 L13.4405195,3.24709957 L13.1501299,3.24709957 L13.1501299,0.298787879 L13.1501299,0.298787879 Z M12.6251948,0.298787879 L12.904329,0.298787879 L12.904329,3.24709957 L12.6251948,3.24709957 L12.6251948,0.298787879 L12.6251948,0.298787879 Z M12.3303896,0.00415584416 L15.8681385,0.00415584416 L15.8681385,3.54181818 L12.3303896,3.54181818 L12.3303896,0.00415584416 L12.3303896,0.00415584416 Z" id="Shape"></path>
                        <path d="M19.3759307,8.46268398 L19.6550649,8.46268398 L19.6550649,11.4109091 L19.3759307,11.4109091 L19.3759307,8.46268398 L19.3759307,8.46268398 Z M18.84,8.46268398 L19.1302165,8.46268398 L19.1302165,11.4109091 L18.84,11.4109091 L18.84,8.46268398 L18.84,8.46268398 Z M18.3037229,8.46268398 L18.5941126,8.46268398 L18.5941126,11.4109091 L18.3037229,11.4109091 L18.3037229,8.46268398 L18.3037229,8.46268398 Z M17.7677922,8.46268398 L18.0581818,8.46268398 L18.0581818,11.4109091 L17.7677922,11.4109091 L17.7677922,8.46268398 L17.7677922,8.46268398 Z M17.2316883,8.46268398 L17.5220779,8.46268398 L17.5220779,11.4109091 L17.2316883,11.4109091 L17.2316883,8.46268398 L17.2316883,8.46268398 Z M16.7068398,8.46268398 L16.9862338,8.46268398 L16.9862338,11.4109091 L16.7068398,11.4109091 L16.7068398,8.46268398 L16.7068398,8.46268398 Z M16.4122078,8.16779221 L19.9498701,8.16779221 L19.9498701,11.7054545 L16.4122078,11.7054545 L16.4122078,8.16779221 L16.4122078,8.16779221 Z" id="Shape"></path>
                    </g>
                    <path d="M11.725368,18.1337662 C12.264329,18.1337662 12.7012121,18.5709091 12.7012121,19.109697 C12.7012121,19.648658 12.264329,20.0855411 11.725368,20.0855411 C11.1863203,20.0855411 10.7494372,19.648658 10.7494372,19.109697 C10.7494372,18.5709091 11.1863203,18.1337662 11.725368,18.1337662" id="Shape" fill="#0099C9"></path>
                    <path d="M11.725368,18.4107359 C11.814632,18.4107359 11.8998268,18.4275325 11.9784416,18.4580087 C11.8932468,18.5072727 11.8355844,18.5995671 11.8355844,18.7051082 C11.8355844,18.862684 11.9633766,18.9902165 12.1209524,18.9902165 C12.2289177,18.9902165 12.3225974,18.9302165 12.3711688,18.8417316 C12.405368,18.9242424 12.4244156,19.0148052 12.4244156,19.1098701 C12.4244156,19.4958442 12.1114286,19.8088312 11.7254545,19.8088312 C11.3394805,19.8088312 11.0264069,19.4958442 11.0264069,19.1098701 C11.0263203,18.7236364 11.3394805,18.4107359 11.725368,18.4107359" id="Shape" fill="#FFFFFF"></path>
                    <path d="M14.3198268,25.1668398 C11.9028571,24.0199134 10.5761905,22.4606926 9.83800866,20.7586147 C8.94017316,21.0149784 7.86095238,21.1787013 6.60709957,21.2490043 C6.13463203,21.2755844 5.63774892,21.2891775 5.11627706,21.2891775 C4.5152381,21.2891775 3.88164502,21.2714286 3.21670996,21.2361039 C5.43316017,23.4512554 8.15991342,25.15671 13.2087446,25.1880519 C13.5814719,25.1879654 13.9515152,25.1806926 14.3198268,25.1668398 L14.3198268,25.1668398 Z" id="Shape" fill="#0099C9"></path>
                </g>
            </g>
        </g>
    </g>
</svg>