<?xml version="1.0" encoding="UTF-8" standalone="no"?>
<svg width="60px" height="60px" viewBox="0 0 60 60" version="1.1" xmlns="http://www.w3.org/2000/svg" xmlns:xlink="http://www.w3.org/1999/xlink" xmlns:sketch="http://www.bohemiancoding.com/sketch/ns">
    <!-- Generator: Sketch 3.2.2 (9983) - http://www.bohemiancoding.com/sketch -->
    <title>icon</title>
    <desc>Created with Sketch.</desc>
    <defs>
        <rect id="path-1" x="0" y="0" width="60" height="60" rx="44"></rect>
    </defs>
    <g id="Page-1" stroke="none" stroke-width="1" fill="none" fill-rule="evenodd" sketch:type="MSPage">
        <g id="listing---tutorials" sketch:type="MSArtboardGroup" transform="translate(-116.000000, -1526.000000)">
            <g id="thread-7" sketch:type="MSLayerGroup" transform="translate(116.000000, 1523.000000)">
                <g id="icon" transform="translate(0.000000, 3.000000)">
                    <mask id="mask-2" sketch:name="Rectangle 33" fill="white">
                        <use xlink:href="#path-1"></use>
                    </mask>
                    <use id="Rectangle-33" fill="#27547B" sketch:type="MSShapeGroup" xlink:href="#path-1"></use>
                    <path d="M29.8267317,15.2810962 C28.6261627,15.2867861 27.4795897,15.3890301 26.4706775,15.5676233 C23.4987496,16.0927198 22.9591961,17.1915673 22.9591961,19.218275 L22.9591961,21.8950248 L29.982333,21.8950248 L29.982333,22.787178 L22.959138,22.787178 L20.3234368,22.787178 C18.2823302,22.787178 16.4951208,24.0139902 15.9362333,26.3477202 C15.2913585,29.0228443 15.2625607,30.6923656 15.9362333,33.4855842 C16.435493,35.5646041 17.6275271,37.0460684 19.6686918,37.0460684 L22.0833578,37.0460684 L22.0833578,33.8371387 C22.0833578,31.5193172 24.0889897,29.4743205 26.4706194,29.4743205 L33.4855699,29.4743205 C35.4382508,29.4743205 36.9969932,27.8666914 36.9969932,25.9055917 L36.9969932,19.218217 C36.9969932,17.3152356 35.3914543,15.8852126 33.4855699,15.5675652 C32.2791368,15.3666769 31.0272426,15.2753482 29.8267317,15.2810962 L29.8267317,15.2810962 Z M26.0287232,17.4337945 C26.7541274,17.4337945 27.3466318,18.0358789 27.3466318,18.7761465 C27.3466318,19.5138015 26.7541274,20.1104862 26.0287232,20.1104862 C25.300532,20.1104862 24.7108145,19.5138015 24.7108145,18.7761465 C24.7108145,18.0358789 25.300532,17.4337945 26.0287232,17.4337945 Z M37.8727734,22.7870618 L37.8727734,25.9055917 C37.8727734,28.3236833 35.8230739,30.3583452 33.4856279,30.3583452 L26.4706194,30.3583452 C24.5491749,30.3583452 22.959138,32.0030168 22.959138,33.9272482 L22.959138,40.6149713 C22.959138,42.5180108 24.6140281,43.63776 26.4706194,44.1835259 C28.6938028,44.8372258 30.8253673,44.9557267 33.4855699,44.1835259 C35.2535613,43.6718994 36.9969932,42.6413887 36.9969932,40.6149713 L36.9969932,37.9381054 L29.982275,37.9381054 L29.982275,37.0460684 L36.9969352,37.0460684 L40.5083585,37.0460684 C42.5495812,37.0460684 43.3103442,35.6224901 44.019956,33.4855842 C44.7531984,31.2853926 44.7220781,29.1696786 44.019956,26.3477202 C43.515587,24.3160194 42.5521359,22.787178 40.5083585,22.787178 L37.8727734,22.787178 L37.8727734,22.7870618 Z M33.9276403,39.7225279 C34.6556573,39.7225279 35.2454909,40.3187482 35.2454909,41.0564612 C35.2454909,41.7966708 34.6556573,42.3990454 33.9276403,42.3990454 C33.2022941,42.3990454 32.6099058,41.7966708 32.6099058,41.0564612 C32.6098478,40.3187482 33.2022361,39.7225279 33.9276403,39.7225279 L33.9276403,39.7225279 Z" id="path1948_1_" fill="#FFFFFF" sketch:type="MSShapeGroup" mask="url(#mask-2)"></path>
                </g>
            </g>
        </g>
    </g>
</svg>