<?xml version="1.0" encoding="UTF-8" standalone="no"?>
<svg xmlns:sketch="http://www.bohemiancoding.com/sketch/ns" xmlns="http://www.w3.org/2000/svg" height="60px" width="60px" version="1.1" xmlns:xlink="http://www.w3.org/1999/xlink" viewBox="0 0 60 60"><!-- Generator: Sketch 3.2.2 (9983) - http://www.bohemiancoding.com/sketch -->
 <title>icon</title>
 <desc>Created with Sketch.</desc>
 <defs>
  <rect id="path-1" rx="44" height="60" width="60" y="0" x="0"/>
 </defs>
 <g id="Page-1" fill-rule="evenodd" sketch:type="MSPage" fill="none">
  <g id="listing---tutorials" transform="translate(-116 -1526)" sketch:type="MSArtboardGroup">
   <g id="thread-7" transform="translate(116 1523)" sketch:type="MSLayerGroup">
    <g id="icon" transform="translate(0 3)">
     <mask id="mask-2" sketch:name="Rectangle 33" fill="white">
      <use xlink:href="#path-1"/>
     </mask>
     <use id="Rectangle-33" xlink:href="#path-1" sketch:type="MSShapeGroup" fill="#27547B"/>
     <path id="path1948_1_" sketch:type="MSShapeGroup" fill="#fff" mask="url(#mask-2)" d="m29.827 15.281c-1.201 0.006-2.347 0.108-3.356 0.287-2.972 0.525-3.512 1.624-3.512 3.65v2.677h7.023v0.892h-7.023-2.636c-2.041 0-3.828 1.227-4.387 3.561-0.645 2.675-0.673 4.344 0 7.138 0.499 2.079 1.692 3.56 3.733 3.56h2.414v-3.209c0-2.318 2.006-4.363 4.388-4.363h7.015c1.952 0 3.511-1.607 3.511-3.568v-6.688c0-1.903-1.606-3.333-3.511-3.65-1.207-0.201-2.459-0.293-3.659-0.287zm-3.798 2.153c0.725 0 1.318 0.602 1.318 1.342 0 0.738-0.593 1.334-1.318 1.334-0.728 0-1.318-0.596-1.318-1.334 0-0.74 0.59-1.342 1.318-1.342zm11.844 5.353v3.119c0 2.418-2.05 4.452-4.387 4.452h-7.015c-1.922 0-3.512 1.645-3.512 3.569v6.688c0 1.903 1.655 3.023 3.512 3.569 2.223 0.653 4.354 0.772 7.015 0 1.768-0.512 3.511-1.543 3.511-3.569v-2.677h-7.015v-0.892h7.015 3.511c2.042 0 2.802-1.424 3.512-3.56 0.733-2.201 0.702-4.316 0-7.138-0.504-2.032-1.468-3.561-3.512-3.561h-2.635zm-3.945 16.936c0.728 0 1.317 0.596 1.317 1.333 0 0.741-0.589 1.343-1.317 1.343-0.726 0-1.318-0.602-1.318-1.343 0-0.737 0.592-1.333 1.318-1.333z"/>
    </g>
   </g>
  </g>
 </g>
</svg>
