<?xml version="1.0" encoding="UTF-8" standalone="no"?>
<svg width="87px" height="87px" viewBox="0 0 87 87" version="1.1" xmlns="http://www.w3.org/2000/svg" xmlns:xlink="http://www.w3.org/1999/xlink" xmlns:sketch="http://www.bohemiancoding.com/sketch/ns">
    <!-- Generator: Sketch 3.2.2 (9983) - http://www.bohemiancoding.com/sketch -->
    <title>icon 3</title>
    <desc>Created with Sketch.</desc>
    <defs></defs>
    <g id="Page-7" stroke="none" stroke-width="1" fill="none" fill-rule="evenodd" sketch:type="MSPage">
        <g id="open-source" sketch:type="MSArtboardGroup" transform="translate(-679.000000, -1434.000000)">
            <g id="header" sketch:type="MSLayerGroup" transform="translate(410.000000, 1434.000000)">
                <g id="icon-3" transform="translate(269.000000, 0.000000)" sketch:type="MSShapeGroup">
                    <circle id="Oval-21" fill="#CECEB8" cx="43.5" cy="43.5" r="43.5"></circle>
                    <path d="M30.4142136,41 L57.5857864,41 L57.5857864,41 L44,27.4142136 L30.4142136,41 Z M27.5857864,41 L21.0053395,41 C18.7937742,41 17,42.7905786 17,44.9993692 L17,58.0006308 C17,60.2095518 18.7932516,62 21.0053395,62 L65.9946605,62 C68.2062258,62 70,60.2094214 70,58.0006308 L70,44.9993692 C70,42.7904482 68.2067484,41 65.9946605,41 L60.4142136,41 L44.2218254,24.8076118 L44,25.0294373 L43.7781746,24.8076118 L27.5857864,41 Z M28.4142136,43 L59.5857864,43 L59.5857864,43 L59.7781746,43.1923882 L59.9705627,43 L66.0031484,43 C67.1059791,43 68,43.8900584 68,45.0001062 L68,57.9998938 C68,59.104522 67.1076847,60 66.0031484,60 L20.9968516,60 C19.8940209,60 19,59.1099416 19,57.9998938 L19,45.0001062 C19,43.895478 19.8923153,43 20.9968516,43 L28.0294373,43 L28.2218254,43.1923882 L28.4142136,43 Z M27.362,56.168 C30.148,56.168 32.136,54.124 32.136,51.338 C32.136,48.552 30.148,46.508 27.362,46.508 C24.562,46.508 22.588,48.552 22.588,51.338 C22.588,54.124 24.562,56.168 27.362,56.168 Z M27.362,54.712 C25.472,54.712 24.268,53.256 24.268,51.338 C24.268,49.406 25.472,47.964 27.362,47.964 C29.238,47.964 30.456,49.406 30.456,51.338 C30.456,53.256 29.238,54.712 27.362,54.712 Z M37.0920002,56 L37.0920002,52.5 L39.5700002,52.5 C41.5160002,52.5 42.6080002,51.17 42.6080002,49.588 C42.6080002,47.992 41.5300002,46.662 39.5700002,46.662 L35.4540002,46.662 L35.4540002,56 L37.0920002,56 Z M39.3460002,51.058 L37.0920002,51.058 L37.0920002,48.104 L39.3460002,48.104 C40.2700002,48.104 40.9280002,48.692 40.9280002,49.588 C40.9280002,50.47 40.2700002,51.058 39.3460002,51.058 Z M52.1280005,56 L52.1280005,54.558 L47.3680005,54.558 L47.3680005,51.954 L52.0300005,51.954 L52.0300005,50.512 L47.3680005,50.512 L47.3680005,48.104 L52.1280005,48.104 L52.1280005,46.662 L45.7300005,46.662 L45.7300005,56 L52.1280005,56 Z M63.6500007,56 L63.6500007,46.662 L62.0120007,46.662 L62.0120007,53.13 L57.2380007,46.662 L55.5580007,46.662 L55.5580007,56 L57.1960007,56 L57.1960007,49.322 L62.0680007,56 L63.6500007,56 Z" id="open-source" fill="#FFFFFF"></path>
                </g>
            </g>
        </g>
    </g>
</svg>