<?xml version="1.0" encoding="UTF-8" standalone="no"?>
<svg width="28px" height="31px" viewBox="0 0 28 31" version="1.1" xmlns="http://www.w3.org/2000/svg" xmlns:xlink="http://www.w3.org/1999/xlink" xmlns:sketch="http://www.bohemiancoding.com/sketch/ns">
    <!-- Generator: Sketch 3.2.2 (9983) - http://www.bohemiancoding.com/sketch -->
    <title>icon-share</title>
    <desc>Created with Sketch.</desc>
    <defs></defs>
    <g id="Page-1" stroke="none" stroke-width="1" fill="none" fill-rule="evenodd" sketch:type="MSPage">
        <g id="01.1---blog-single---hover" sketch:type="MSArtboardGroup" transform="translate(-706.000000, -2494.000000)" fill="#CECFB7">
            <g id="icon-share" sketch:type="MSLayerGroup" transform="translate(706.000000, 2494.000000)">
                <path d="M15.4213234,2.00710983 L18.8284271,5.41421356 L17.4142136,6.82842712 L15,4.41421356 L15,21 L13,21 L13,4.41421356 L10.5857864,6.82842712 L9.17157288,5.41421356 L13.4142136,1.17157288 L13.4213234,1.17868271 L14.0142197,0.585786438 L15.4284332,2 L15.4213234,2.00710983 L15.4213234,2.00710983 Z" id="Rectangle-29" sketch:type="MSShapeGroup"></path>
                <path d="M1.99124431,9 L26.0087557,9 C27.1084896,9 28,9.88967395 28,10.991155 L28,29.008845 C28,30.1085295 27.1001025,31 26.0087557,31 L1.99124431,31 C0.891510444,31 0,30.1103261 0,29.008845 L0,10.991155 C0,9.89147046 0.899897516,9 1.99124431,9 L1.99124431,9 Z M2,11 L26,11 L26,29 L2,29 L2,11 Z M11,9 L17,9 L17,11 L11,11 L11,9 Z" id="Rectangle-210" sketch:type="MSShapeGroup"></path>
            </g>
        </g>
    </g>
</svg>