<?xml version="1.0" encoding="UTF-8" standalone="no"?>
<svg width="20px" height="20px" viewBox="0 0 20 20" version="1.1" xmlns="http://www.w3.org/2000/svg" xmlns:xlink="http://www.w3.org/1999/xlink" xmlns:sketch="http://www.bohemiancoding.com/sketch/ns">
    <!-- Generator: Sketch 3.2.2 (9983) - http://www.bohemiancoding.com/sketch -->
    <title>Fill 19</title>
    <desc>Created with Sketch.</desc>
    <defs></defs>
    <g id="Page-1" stroke="none" stroke-width="1" fill="none" fill-rule="evenodd" sketch:type="MSPage">
        <path d="M12.8005936,8.81864659 C13.4156987,10.3809118 12.6535096,12.1481961 11.0981433,12.7660295 C10.2330972,13.1094327 9.30563862,13.0238011 8.54621371,12.6128863 L5.03016362,16.1445322 C5.01081429,16.3011825 4.95029307,16.7211573 4.95029307,16.7211573 L4.57465415,18.7242937 C5.01037784,19.1100743 5.3454268,19.3640466 5.90728485,19.6085204 C6.50915092,19.8702374 6.96393297,19.9494394 7.58340257,19.9951777 L8.74378057,18.3149864 L8.68093161,18.2886832 C9.5200816,18.4216606 10.3857096,18.4269212 11.2498828,18.2943822 L11.1964903,18.3164477 L12.3408651,20 C12.9200357,19.9631755 13.3362646,19.9047239 13.9055423,19.6785162 C14.51541,19.4363804 14.8926492,19.1689643 15.3628525,18.7615566 L15.0003071,16.7495063 L14.9358579,16.7759557 C15.6436361,16.2599741 16.2543766,15.6415562 16.7589141,14.9521195 L16.7356367,15.0085253 L18.7302183,15.3861227 C19.1142952,14.948174 19.3670004,14.611785 19.6103946,14.0477271 C19.8711014,13.4430452 19.9496626,12.9860998 19.99549,12.3640286 L18.3225729,11.1982114 L18.2969678,11.2594394 C18.429358,10.4232892 18.4372141,9.56142035 18.3100613,8.70057435 L18.3240278,8.73520693 L20,7.58531775 C19.9631926,7.00343204 19.9051446,6.58594146 19.6802268,6.01399252 C19.4388694,5.40098132 19.1729252,5.02236106 18.7671711,4.54992597 L16.764006,4.91393333 C16.764006,4.91393333 16.2728531,4.99313526 16.113112,5.01242429 L12.6476902,8.49307116 C12.7039924,8.59769953 12.7559301,8.70539661 12.8005936,8.81864659 Z M11.1322673,7.23148628 C9.57675558,6.6135067 7.8172757,7.37907658 7.2023161,8.94148795 C6.86028392,9.81022491 6.94539188,10.7417973 7.35463754,11.5044446 L3.83844197,15.0362367 C3.68262892,15.0556718 3.26450877,15.1164615 3.26450877,15.1164615 L1.27007271,15.4937666 C0.886141223,15.0561102 0.633145067,14.7195751 0.390041802,14.155371 C0.12933501,13.5506892 0.0507738116,13.094036 0.00494644583,12.4715264 L1.67786352,11.3064398 L1.70405059,11.3694214 C1.57166042,10.5265493 1.56627752,9.65693558 1.69823124,8.78892927 L1.67640869,8.84270474 L0,7.69310783 C0.0368073763,7.11122211 0.0951463404,6.69343927 0.320500593,6.12163646 C0.561276118,5.50891752 0.827511291,5.130005 1.23311985,4.65756991 L3.23628493,5.02186953 L3.20980689,5.08660469 C3.72380081,4.37583318 4.33948783,3.7623836 5.02573445,3.25531594 L4.96957774,3.27869658 L4.59364786,1.27541399 C5.02980799,0.889779538 5.36471147,0.635953449 5.92642404,0.391625745 C6.52829011,0.129616431 6.98307216,0.0505606372 7.60239628,0.00452999929 L8.76321073,1.68501361 L8.70225306,1.71073231 C9.53456531,1.57760878 10.3926282,1.56971782 11.2498181,1.6975807 L11.215193,1.68340619 L12.3600043,0 C12.9393204,0.0369706394 13.3552583,0.0954222431 13.924536,0.321483821 C14.5346946,0.563619589 14.9117884,0.831035676 15.3819917,1.2381511 L15.0197373,3.25049368 C15.0197373,3.25049368 14.9410306,3.74382522 14.9213903,3.90412874 L11.4562595,7.38492174 C11.3522387,7.32866208 11.2448717,7.27620176 11.1322673,7.23148628 Z" id="Fill-19" fill="#CECEB8" sketch:type="MSShapeGroup"></path>
    </g>
</svg>