<?xml version="1.0" encoding="UTF-8" standalone="no"?>
<svg width="15px" height="16px" viewBox="0 0 15 16" version="1.1" xmlns="http://www.w3.org/2000/svg" xmlns:xlink="http://www.w3.org/1999/xlink" xmlns:sketch="http://www.bohemiancoding.com/sketch/ns">
    <!-- Generator: Sketch 3.2.2 (9983) - http://www.bohemiancoding.com/sketch -->
    <title>log out</title>
    <desc>Created with Sketch.</desc>
    <defs></defs>
    <g id="Page-1" stroke="none" stroke-width="1" fill="none" fill-rule="evenodd" sketch:type="MSPage">
        <path d="M7.5,13.8666667 C10.4586686,13.8666667 12.8571429,11.4788523 12.8571429,8.53333333 C12.8571429,6.78846507 12.0154832,5.23930453 10.7142857,4.26627627 L10.7142857,1.7852064 C13.2481554,2.9835648 15,5.55477547 15,8.53333333 C15,12.6570592 11.6421354,16 7.5,16 C3.35786464,16 0,12.6570592 0,8.53333333 C0,5.55477547 1.75184464,2.9835648 4.28571429,1.7852064 L4.28571429,4.26627627 C2.98451679,5.23930453 2.14285714,6.78846507 2.14285714,8.53333333 C2.14285714,11.4788523 4.54133143,13.8666667 7.5,13.8666667 L7.5,13.8666667 Z M6.42857143,7.46983467 L6.42857143,1.06349867 C6.42857143,0.4832384 6.90826607,0 7.5,0 C8.09585893,0 8.57142857,0.476145067 8.57142857,1.06349867 L8.57142857,7.46983467 C8.57142857,8.05009493 8.09173393,8.53333333 7.5,8.53333333 C6.90414107,8.53333333 6.42857143,8.05718827 6.42857143,7.46983467 Z" id="log-out" fill="#BABA9F" sketch:type="MSShapeGroup"></path>
    </g>
</svg>