<?xml version="1.0" encoding="UTF-8" standalone="no"?>
<svg xmlns:sketch="http://www.bohemiancoding.com/sketch/ns" xmlns="http://www.w3.org/2000/svg" height="18px" width="18px" version="1.1" xmlns:xlink="http://www.w3.org/1999/xlink" viewBox="0 0 18 18"><!-- Generator: Sketch 3.2.2 (9983) - http://www.bohemiancoding.com/sketch -->
 <title>icon-gplus</title>
 <desc>Created with Sketch.</desc>
 <g id="Page-1" fill-rule="evenodd" sketch:type="MSPage" fill="none">
  <g id="01---blog-single" stroke="#CECFB7" transform="translate(-753 -413)" fill="#CECFB7" sketch:type="MSArtboardGroup">
   <g id="icon-gplus" transform="translate(754 414)" sketch:type="MSLayerGroup">
    <path id="Shape" sketch:type="MSShapeGroup" d="m8.4722 9.0874l-0.7587-0.5754c-0.231-0.1872-0.547-0.4342-0.547-0.8865 0-0.4542 0.316-0.7429 0.5903-1.0102 0.8838-0.6795 1.7668-1.4026 1.7668-2.9266 0-1.567-1.0095-2.3914-1.4933-2.7825l1.3046 0.00003 1.3691-0.84037h-4.1482c-1.1383 0-2.7787 0.26307-3.9796 1.2314-0.9052 0.7628-1.3467 1.8145-1.3467 2.7613 0 1.6073 1.2635 3.2365 3.4945 3.2365 0.2107 0 0.4411-0.0203 0.6731-0.0413-0.1041 0.2476-0.2095 0.4537-0.2095 0.8037 0 0.6383 0.3358 1.0298 0.6318 1.4005-0.948 0.0637-2.7177 0.1662-4.0223 0.949-1.2424 0.722-1.6205 1.773-1.6205 2.514-0.00003 1.526 1.4725 2.947 4.5261 2.947 3.6209 0 5.5383-1.957 5.5383-3.894 0-1.423-0.8421-2.1241-1.7688-2.8866zm-2.7579-2.3698c-1.8114 0-2.632-2.2873-2.632-3.6674 0-0.5373 0.1042-1.0921 0.4625-1.5254 0.3377-0.4126 0.9259-0.68033 1.475-0.68033 1.7463 0 2.652 2.3077 2.652 3.792 0 0.3713-0.0419 1.0294-0.5261 1.5051-0.3387 0.33-0.9053 0.576-1.4314 0.576zm0.0207 8.2874c-2.2525 0-3.7051-1.053-3.7051-2.516s1.3469-1.958 1.8103-2.122c0.8838-0.291 2.0211-0.331 2.2108-0.331 0.2105 0 0.3159 0 0.4835 0.021 1.6013 1.113 2.2964 1.667 2.2964 2.721 0 1.276-1.0741 2.227-3.0959 2.227z"/>
    <path id="Shape" sketch:type="MSShapeGroup" d="m13.789 6.6861v-2.0604h-1.042v2.0604h-2.106v1.0291h2.106v2.0731h1.042v-2.0731h2.117v-1.0291h-2.117z"/>
   </g>
  </g>
 </g>
</svg>
