<svg width="87" height="87" viewBox="0 0 87 87" xmlns="http://www.w3.org/2000/svg" xmlns:sketch="http://www.bohemiancoding.com/sketch/ns"><title>icon 3</title><desc>Created with Sketch.</desc><g transform="translate(0 0)" sketch:type="MSShapeGroup" fill="none"><circle fill="#CECEB8" cx="43.5" cy="43.5" r="43.5"/><path d="M62 27.273c0-1.255-1.017-2.273-2.273-2.273l-13.524.002c-1.209 0-2.366-.064-3.037.607l-20.663 20.662c-.672.671-.672 1.76 0 2.431l15.794 15.795c.671.671 1.76.671 2.431 0l20.662-20.663c.671-.67.607-1.8.607-3.036l.002-13.525zm-10.473 10.927c1.506 0 2.727-1.221 2.727-2.727 0-1.506-1.221-2.727-2.727-2.727-1.506 0-2.727 1.221-2.727 2.727 0 1.506 1.221 2.727 2.727 2.727z" stroke="#fff" stroke-width="2"/></g></svg>