<?xml version="1.0" encoding="UTF-8" standalone="no"?>
<svg width="29px" height="24px" viewBox="0 0 29 24" version="1.1" xmlns="http://www.w3.org/2000/svg" xmlns:xlink="http://www.w3.org/1999/xlink" xmlns:sketch="http://www.bohemiancoding.com/sketch/ns">
    <!-- Generator: Sketch 3.2.2 (9983) - http://www.bohemiancoding.com/sketch -->
    <title>icon-twitter</title>
    <desc>Created with Sketch.</desc>
    <defs></defs>
    <g id="Page-1" stroke="none" stroke-width="1" fill="none" fill-rule="evenodd" sketch:type="MSPage">
        <g id="01---blog-single" sketch:type="MSArtboardGroup" transform="translate(-1004.000000, -414.000000)" fill="#CECFB7">
            <g id="Group" sketch:type="MSLayerGroup" transform="translate(335.000000, 398.000000)">
                <path d="M683.101503,22.3843758 L683.164456,23.4224435 L682.115237,23.2953331 C678.29608,22.8080769 674.959564,21.1556426 672.126673,18.3804004 L670.741704,17.0033719 L670.384969,18.0202545 C669.629531,20.2870554 670.112172,22.6809665 671.686001,24.2910307 C672.525376,25.180803 672.336516,25.3079133 670.888594,24.778287 C670.384969,24.6088065 669.944297,24.4816962 669.902328,24.5452514 C669.755438,24.6935467 670.259063,26.6213867 670.657766,27.3840487 C671.20336,28.4433014 672.315532,29.4813691 673.532626,30.0957357 L674.560861,30.582992 L673.343767,30.604177 C672.168641,30.604177 672.126673,30.6253621 672.252579,31.0702482 C672.672266,32.4472768 674.330032,33.9090455 676.176658,34.5445972 L677.477689,34.9894833 L676.344533,35.6674051 C674.665783,36.6419176 672.693251,37.192729 670.720719,37.2350991 C669.776422,37.2562842 669,37.3410244 669,37.4045796 C669,37.6164301 671.560094,38.8027932 673.049985,39.2688644 C677.519658,40.645893 682.828706,40.0527114 686.815739,37.7011703 C689.64863,36.027551 692.481521,32.7014974 693.803537,29.4813691 C694.517006,27.7653797 695.230475,24.6299916 695.230475,23.1258527 C695.230475,22.1513402 695.293428,22.0242299 696.468553,20.8590518 C697.161038,20.1811301 697.811554,19.4396532 697.93746,19.2278026 C698.147304,18.8252866 698.126319,18.8252866 697.056116,19.1854325 C695.272444,19.8209842 695.020631,19.7362439 695.901975,18.7829165 C696.552491,18.1049947 697.328913,16.8762616 697.328913,16.5161156 C697.328913,16.4525605 697.014147,16.5584857 696.657413,16.7491512 C696.279694,16.9610018 695.440319,17.2787776 694.810787,17.4694431 L693.677631,17.829589 L692.649396,17.1304822 C692.082818,16.7491512 691.285411,16.3254501 690.865724,16.1983398 C689.79552,15.901749 688.158739,15.9441191 687.193457,16.28308 C684.57041,17.2364075 682.912644,19.6938738 683.101503,22.3843758 Z" id="icon-twitter" sketch:type="MSShapeGroup"></path>
            </g>
        </g>
    </g>
</svg>