<?xml version="1.0" encoding="UTF-8" standalone="no"?>
<svg xmlns:sketch="http://www.bohemiancoding.com/sketch/ns" xmlns="http://www.w3.org/2000/svg" height="16px" width="15px" version="1.1" xmlns:xlink="http://www.w3.org/1999/xlink" viewBox="0 0 15 16"><!-- Generator: Sketch 3.2.2 (9983) - http://www.bohemiancoding.com/sketch -->
 <title>log out</title>
 <desc>Created with Sketch.</desc>
 <g id="Page-1" fill-rule="evenodd" sketch:type="MSPage" fill="none">
  <path id="log-out" sketch:type="MSShapeGroup" fill="#BABA9F" d="m7.5 13.867c2.959 0 5.357-2.388 5.357-5.3337 0-1.7448-0.842-3.294-2.143-4.267v-2.4811c2.534 1.1984 4.286 3.7696 4.286 6.7481 0 4.1237-3.358 7.4667-7.5 7.4667-4.1421 0-7.5-3.343-7.5-7.4667 0-2.9785 1.7518-5.5497 4.2857-6.7481v2.4811c-1.3012 0.973-2.1428 2.5222-2.1428 4.267 0 2.9457 2.3984 5.3337 5.3571 5.3337zm-1.0714-6.3972v-6.4063c0-0.58026 0.4797-1.0635 1.0714-1.0635 0.5959 0 1.0714 0.47615 1.0714 1.0635v6.4063c0 0.5803-0.4797 1.0635-1.0714 1.0635-0.5959 0-1.0714-0.4761-1.0714-1.0635z"/>
 </g>
</svg>
