<?xml version="1.0" encoding="UTF-8" standalone="no"?>
<svg width="18px" height="18px" viewBox="0 0 18 18" version="1.1" xmlns="http://www.w3.org/2000/svg" xmlns:xlink="http://www.w3.org/1999/xlink" xmlns:sketch="http://www.bohemiancoding.com/sketch/ns">
    <!-- Generator: Sketch 3.2.2 (9983) - http://www.bohemiancoding.com/sketch -->
    <title>icon-gplus</title>
    <desc>Created with Sketch.</desc>
    <defs></defs>
    <g id="Page-1" stroke="none" stroke-width="1" fill="none" fill-rule="evenodd" sketch:type="MSPage">
        <g id="01---blog-single" sketch:type="MSArtboardGroup" transform="translate(-753.000000, -413.000000)" stroke="#CECFB7" fill="#CECFB7">
            <g id="icon-gplus" sketch:type="MSLayerGroup" transform="translate(754.000000, 414.000000)">
                <path d="M8.47219048,9.08744186 L7.71352381,8.512 C7.48247619,8.32483721 7.16647619,8.07776744 7.16647619,7.62548837 C7.16647619,7.17134884 7.48247619,6.88260465 7.7567619,6.61525581 C8.64057143,5.93581395 9.52361905,5.21265116 9.52361905,3.68874419 C9.52361905,2.12167442 8.51409524,1.29730233 8.03028571,0.906232558 L9.33485714,0.906232558 L10.7041905,0.0658604651 L6.55580952,0.0658604651 C5.41752381,0.0658604651 3.77714286,0.328930233 2.57619048,1.29730233 C1.67104762,2.06009302 1.22952381,3.11181395 1.22952381,4.05860465 C1.22952381,5.66586047 2.49295238,7.29506977 4.724,7.29506977 C4.93466667,7.29506977 5.16514286,7.2747907 5.39714286,7.25376744 C5.29295238,7.50139535 5.18761905,7.70753488 5.18761905,8.05748837 C5.18761905,8.69581395 5.52342857,9.08725581 5.81942857,9.45804651 C4.87142857,9.52167442 3.10171429,9.62418605 1.79714286,10.4074419 C0.554666667,11.1291163 0.176571429,12.1795349 0.176571429,12.9209302 C0.176571429,14.4468837 1.64914286,15.8682791 4.70266667,15.8682791 C8.32361905,15.8682791 10.2405714,13.9112558 10.2405714,11.9739535 C10.2407619,10.5505116 9.39885714,9.84986047 8.47219048,9.08744186 Z M5.71428571,6.7175814 C3.90285714,6.7175814 3.08228571,4.43032558 3.08228571,3.05023256 C3.08228571,2.51293023 3.18647619,1.95813953 3.5447619,1.52483721 C3.88247619,1.11218605 4.47066667,0.844465116 5.01980952,0.844465116 C6.76609524,0.844465116 7.67180952,3.15218605 7.67180952,4.63646512 C7.67180952,5.00781395 7.62990476,5.66586047 7.14571429,6.1415814 C6.80704762,6.47162791 6.24038095,6.7175814 5.71428571,6.7175814 Z M5.73504762,15.0046512 C3.48247619,15.0046512 2.02990476,13.952186 2.02990476,12.4887442 C2.02990476,11.0256744 3.3767619,10.5307907 3.84019048,10.3668837 C4.724,10.0764651 5.86133333,10.035907 6.05104762,10.035907 C6.26152381,10.035907 6.36685714,10.035907 6.53447619,10.0565581 C8.13580952,11.1696744 8.83085714,11.7244651 8.83085714,12.7782326 C8.83085714,14.0543256 7.7567619,15.0046512 5.73504762,15.0046512 Z" id="Shape" sketch:type="MSShapeGroup"></path>
                <path d="M13.7891429,6.68613953 L13.7891429,4.62567442 L12.7472381,4.62567442 L12.7472381,6.68613953 L10.6411429,6.68613953 L10.6411429,7.71516279 L12.7472381,7.71516279 L12.7472381,9.78827907 L13.7891429,9.78827907 L13.7891429,7.71516279 L15.9059048,7.71516279 L15.9059048,6.68613953 L13.7891429,6.68613953 Z" id="Shape" sketch:type="MSShapeGroup"></path>
            </g>
        </g>
    </g>
</svg>