<?xml version="1.0" encoding="UTF-8" standalone="no"?>
<svg width="24px" height="25px" viewBox="0 0 24 25" version="1.1" xmlns="http://www.w3.org/2000/svg" xmlns:xlink="http://www.w3.org/1999/xlink" xmlns:sketch="http://www.bohemiancoding.com/sketch/ns">
    <!-- Generator: Sketch 3.2.2 (9983) - http://www.bohemiancoding.com/sketch -->
    <title>icon-rss</title>
    <desc>Created with Sketch.</desc>
    <defs></defs>
    <g id="finals" stroke="none" stroke-width="1" fill="none" fill-rule="evenodd" sketch:type="MSPage">
        <g id="01---blog-single" sketch:type="MSArtboardGroup" transform="translate(-659.000000, -3446.000000)" fill="#CECFB7">
            <g id="Group" sketch:type="MSLayerGroup" transform="translate(335.000000, 3144.000000)">
                <g id="Rectangle-6-+-or-find-us-elswhere-+-Path-+-Group-5-+-Path-2" transform="translate(324.000000, 302.000000)" sketch:type="MSShapeGroup">
                    <g id="Path-+-Group-5-+-Path">
                        <path d="M6.39577545,20.9854184 C6.39577545,19.2340472 4.96587467,17.7969268 3.19575585,17.7969268 C1.43254726,17.7969268 0,19.2340472 0,20.9854184 C0,22.7460453 1.43254726,24.167152 3.19575585,24.167152 C4.96580115,24.167152 6.39570194,22.7461187 6.39577545,20.9854184 Z M15.8466764,24.1603205 C15.8466764,15.4257955 8.73525223,8.32092284 2.57571742e-14,8.32092284 L2.57571742e-14,12.918915 C2.99668273,12.918915 5.8145084,14.089679 7.93587219,16.2106878 C10.0550306,18.3272157 11.2241809,21.1556192 11.2241809,24.160394 L15.8466764,24.1603205 Z M24,24.1580433 C24,10.9332147 13.2324082,0.167152031 0,0.167152031 L0,4.76734792 C10.6857719,4.76734792 19.3844882,13.4675683 19.3844882,24.1578964 L24,24.1580433 Z" id="icon-rss"></path>
                    </g>
                </g>
            </g>
        </g>
    </g>
</svg>