<?xml version="1.0" encoding="UTF-8" standalone="no"?>
<svg xmlns:sketch="http://www.bohemiancoding.com/sketch/ns" width="87" xmlns="http://www.w3.org/2000/svg" viewBox="0 0 87 87" height="87">
 <title>icon</title>
 <desc>Created with Sketch.</desc>
 <g fill="none" transform="translate(0)" sketch:type="MSShapeGroup">
  <circle cy="43.5" cx="43.5" r="43.5" fill="#237FC6"/>
  <path id="Shape" stroke="#fff" stroke-width="2" d="m42.933 27.047c0-4.091-3.301-7.407-7.367-7.407-4.072 0-7.367 3.316-7.367 7.407 0 1.148 0.261 2.228 0.728 3.191"/>
  <path id="Shape" stroke="#fff" stroke-width="2" d="m66.025 42.963h-1.844c-0.961 0-1.417-0.43-1.487-0.868-0.502-3.178-2.556-7.308-7.717-9.12-0.05-2.875 0.588-4.949 1.83-8.323-2.887 0.728-6.076 2.309-7.964 6.495-2.127-0.523-4.401-0.806-6.775-0.806-6.216 0-10.905 1.896-14.659 4.834-3.39 2.654-5.519 7.098-5.267 13.16 0.19 4.573 3.358 8.062 5.788 10.017 0.35 0.278 1.048 0.724 0.683 1.86-0.366 1.134-1.023 2.717-1.023 2.717-0.383 1.01 0.126 2.143 1.129 2.527l3.647 1.386c1.004 0.385 2.132-0.124 2.514-1.135 0 0 0.485-1.271 0.879-2.33 0.749-1.992 1.207-0.376 6.308-0.376 5.301 0 5.836-1.039 6.39 0.593 0.355 1.065 0.797 2.114 0.797 2.114 0.379 1.011 1.507 1.52 2.515 1.135l3.643-1.386c1.006-0.384 1.516-1.518 1.132-2.527l-0.585-1.555s-0.595-1.026 0.68-1.722c2.541-1.39 4.456-3.5 5.698-6.104 0.264-0.558 0.654-1.317 1.843-1.317h1.844c1.015 0 1.842-0.831 1.842-1.851v-5.56c0-1.022-0.826-1.856-1.842-1.856z"/>
  <path id="Shape" fill="#fff" d="m55.944 46.26c-1.2 0-2.171-0.977-2.171-2.181 0-1.202 0.971-2.179 2.171-2.179 1.197 0 2.165 0.977 2.165 2.179 0.001 1.203-0.968 2.181-2.165 2.181z"/>
  <path stroke="#fff" stroke-width="2" d="m22.336 41.9s-4.336-0.998-4.336-4.931c0-1.612 0.809-3.096 2.225-3.71"/>
 </g>
</svg>
