<svg width="24" height="23" viewBox="0 0 24 23" xmlns="http://www.w3.org/2000/svg" xmlns:sketch="http://www.bohemiancoding.com/sketch/ns"><title>like - inactive</title><desc>Created with Sketch.</desc><path d="M21.898 2.673c-2.722-2.826-7.075-2.885-9.894-.226-2.82-2.658-7.172-2.599-9.895.226-2.806 2.911-2.806 7.629 0 10.541l8.291 8.597c.887.921 2.322.921 3.209 0 0 0 8.2-8.504 8.291-8.597 2.807-2.912 2.807-7.631-.001-10.541zm-1.694 9.389l-7.704 7.989c-.274.285-.721.285-.993 0l-7.704-7.989c-2.056-2.132-2.056-5.601 0-7.733 1.982-2.055 5.169-2.128 7.255-.162l.945.891.944-.891c2.087-1.966 5.273-1.894 7.256.162 2.056 2.131 2.056 5.6.001 7.733z" sketch:type="MSShapeGroup" fill="#CECEB8"/></svg>