<svg width="28" height="24" viewBox="0 0 28 24" xmlns="http://www.w3.org/2000/svg" xmlns:sketch="http://www.bohemiancoding.com/sketch/ns"><title>Shape</title><desc>Created with Sketch.</desc><path d="M16.167 21.756c-1.197 0-2.167 1.013-2.167 2.244v-20.756c0-1.239.97-2.244 2.167-2.244h8.667c1.197 0 2.167 1.005 2.167 2.244v16.268c0 1.239-.97 2.244-2.167 2.244h-8.667zm-4.333 0c1.197 0 2.167 1.013 2.167 2.244v-20.756c0-1.239-.97-2.244-2.167-2.244h-8.667c-1.197 0-2.167 1.005-2.167 2.244v16.268c0 1.239.97 2.244 2.167 2.244h8.667z" sketch:type="MSShapeGroup" stroke="#CECEB8" stroke-width="2" fill="none"/></svg>