<?xml version="1.0" encoding="UTF-8" standalone="no"?>
<svg xmlns:sketch="http://www.bohemiancoding.com/sketch/ns" xmlns="http://www.w3.org/2000/svg" height="45px" width="181px" version="1.1" xmlns:xlink="http://www.w3.org/1999/xlink" viewBox="0 0 181 45"><!-- Generator: Sketch 3.2.2 (9983) - http://www.bohemiancoding.com/sketch -->
 <title>logo-semaphore</title>
 <desc>Created with Sketch.</desc>
 <g id="Page-1" fill-rule="evenodd" sketch:type="MSPage" fill="none">
  <g id="logo-semaphore" sketch:type="MSLayerGroup">
   <g id="Page-2" sketch:type="MSShapeGroup">
    <g id="single-post-2">
     <g id="nav">
      <g id="logo-horizontal">
       <path id="Fill-1" fill="#4A4A4A" d="m57.783 29.8c-1.46 0-3.583-0.4-4.883-0.8l0.64-3c1.102 0.4 2.56 0.6 4.06 0.6 1.175 0 1.4-0.3 1.4-1.1-0.032-0.9-0.1-1-2.2-1.5-3.26-0.8-3.6-1.7-3.6-4.2 0.037-2.9 1.1-4.1 5.2-4.1 0.98 0 2.9 0.1 4 0.4l-0.319 3.2c-1.185-0.3-2.681-0.4-3.681-0.4-1.168 0-1.4 0.3-1.4 0.9-0.044 0.8 0.1 0.9 1.7 1.3 3.794 0.9 4.1 1.7 4.1 4.4-0.03 2.8-1.2 4.3-5 4.3"/>
       <path id="Fill-3" fill="#4A4A4A" d="m72.276 20.6c0-1-0.276-1.8-1.676-1.8-1.354 0-1.8 0.8-1.8 1.8l0.004 0.5h3.472v-0.5zm-3.472 3.6v0.3c0 1.6 0.596 2 2.396 2 1.268 0 2.9-0.2 4.1-0.6l0.585 3c-1.212 0.5-3.185 0.9-5.085 0.9-4.309 0-6-2.2-6-5.5l0.038-3.2c0-2.9 1.262-5.4 5.762-5.4 4.459 0 5.4 2.7 5.4 5.6l0.023 2.9h-7.219z"/>
       <path id="Fill-5" fill="#4A4A4A" d="m86.742 29.5v-8.9c0-0.6-0.242-1-0.942-1-0.738 0-2.1 0.5-2.9 1l-0.015 8.9h-3.967v-13.5h2.948l0.413 1c1.653-0.8 3.821-1.3 5.321-1.3 1.209 0 2 0.5 2.5 1.3 1.491-0.7 3.5-1.3 5.3-1.3 2.335 0 3.1 1.7 3.1 4.3l0.034 9.5h-3.967v-8.9c0-0.6-0.267-1-0.967-1-0.714 0-2 0.5-2.9 1l0.01 8.9h-3.968z"/>
       <path id="Fill-7" fill="#4A4A4A" d="m108.46 24.7h-1.91c-0.85 0-1.15 0.2-1.15 0.9-0.03 0.8 0.3 1.1 1 1.1 0.87 0 1.4-0.2 2.1-0.5l-0.04-1.5zm0.71 4.8l-0.27-0.8c-1.55 0.8-2.9 1.1-3.8 1.1-2.51 0-3.5-1.8-3.5-4.1-0.03-2.7 1.2-3.8 4-3.8h2.86v-1.1c0-1.3-0.26-1.8-2.36-1.8-1.2 0-2.4 0.1-3.7 0.4l-0.47-3c1.26-0.4 3.27-0.7 4.77-0.7 4.7 0 5.7 1.4 5.7 5.2l0.02 8.6h-3.25z"/>
       <path id="Fill-9" fill="#4A4A4A" d="m119.7 26c0.69 0.2 1.7 0.3 2.5 0.3 1.08 0 1.5-0.6 1.5-1.5l-0.03-4.1c0-0.9-0.37-1.5-1.47-1.5-0.88 0-1.9 0.5-2.5 1v5.8zm7.93-1.2c0 3.2-1.33 5-4.53 5-1.09 0-2.5-0.2-3.4-0.4v5.6l-3.97 0.6v-19.6h3.11l0.42 1.1c0.93-0.7 2.64-1.4 4.14-1.4 2.72 0 4.2 1.7 4.2 5l0.03 4.1z"/>
       <path id="Fill-11" fill="#4A4A4A" d="m138.35 29.5v-8.9c0-0.6-0.25-1-0.95-1-0.73 0-2.1 0.5-2.9 1l-0.01 8.9h-3.96v-19.1l3.91-0.5v7c1.62-0.7 3.26-1.2 4.76-1.2 2.32 0 3.1 1.7 3.1 4.3l0.02 9.5h-3.97z"/>
       <path id="Fill-13" fill="#4A4A4A" d="m153.23 24.4v-3.3c0-1.3-0.63-2-2.13-2-1.4 0-2.1 0.7-2.1 2l0.04 3.3c0 1.3 0.66 2 2.06 2 1.47 0 2.1-0.7 2.1-2m-8.12-0.1v-3.1c0-2.8 1.32-5.5 6.02-5.5 4.8 0 6.1 2.7 6.1 5.5v3.1c0 2.8-1.3 5.5-6.1 5.5-4.73 0-6-2.7-6-5.5"/>
       <path id="Fill-15" fill="#4A4A4A" d="m164.06 21.3v8.2h-3.97v-13.5h3.31l0.27 1.3c0.83-0.6 2.53-1.4 3.63-1.6l0.31 3.8c-1.18 0.5-2.71 1.1-3.51 1.8"/>
       <path id="Fill-17" fill="#4A4A4A" d="m176.35 20.6c0-1-0.25-1.8-1.65-1.8-1.38 0-1.8 0.8-1.8 1.8l-0.02 0.5h3.47v-0.5zm-3.47 3.6v0.3c0 1.6 0.62 2 2.42 2 1.24 0 2.9-0.2 4.1-0.6l0.56 3c-1.21 0.5-3.16 0.9-5.06 0.9-4.34 0-6-2.2-6-5.5l0.01-3.2c0-2.9 1.29-5.4 5.79-5.4 4.43 0 5.4 2.7 5.4 5.6v2.9h-7.22z"/>
       <path id="Fill-19" fill="#8EB43F" d="m27.984 20.4c1.345 3.4-0.284 7.3-3.684 8.6-1.928 0.8-4 0.6-5.6-0.3l-7.701 7.8c-0.043 0.3-0.199 1.2-0.199 1.2l-0.797 4.4c0.952 0.9 1.697 1.4 2.897 2 1.332 0.5 2.3 0.7 3.7 0.8l2.516-3.7h-0.137c1.834 0.3 3.721 0.3 5.621 0h-0.122l2.502 3.7c1.266-0.1 2.22-0.2 3.42-0.7 1.333-0.5 2.2-1.1 3.2-2l-0.807-4.4h-0.141c1.547-1.1 2.848-2.5 3.948-4l-0.014 0.2 4.36 0.8c0.84-1 1.354-1.7 1.954-3 0.54-1.3 0.7-2.3 0.8-3.7l-3.645-2.5-0.056 0.1c0.29-1.8 0.301-3.7 0.001-5.6l0.058 0.1 3.664-2.6c-0.08-1.2-0.222-2.2-0.722-3.4-0.505-1.4-1.1-2.2-2-3.2l-4.352 0.8s-1.048 0.1-1.448 0.2l-7.55 7.6c0.123 0.3 0.25 0.5 0.35 0.8"/>
       <path id="Fill-21" fill="#BF1919" d="m24.45 16.8c-3.4-1.4-7.25 0.3-8.55 3.7-0.788 1.9-0.6 4 0.3 5.7l-7.6938 7.7c-0.3406 0.1-1.2062 0.2-1.2062 0.2l-4.4081 0.8c-0.8393-0.9-1.3919-1.7-1.8919-2.9-0.60174-1.3-0.8-2.3-0.9-3.7l3.6833-2.6 0.0572 0.2c-0.2894-1.9-0.3405-3.8-0.0405-5.7l-0.0199 0.1-3.6646-2.5c0.0805-1.3 0.1845-2.2 0.6845-3.5 0.5425-1.3 1.1-2.1 2-3.2l4.3899 0.8-0.0579 0.2c1.1236-1.6 2.468-2.9 3.968-4.1l-0.121 0.1-0.822-4.4c0.953-0.9 1.643-1.4 2.943-2 1.286-0.5 2.3-0.7 3.6-0.8l2.572 3.7h-0.134c1.82-0.2 3.662-0.3 5.562 0h-0.069l2.503-3.7c1.266 0.1 2.166 0.2 3.466 0.7 1.288 0.5 2.1 1.1 3.1 2l-0.752 4.4s-0.148 1.1-0.248 1.5l-7.542 7.6c-0.227-0.1-0.458-0.2-0.658-0.3"/>
      </g>
     </g>
    </g>
   </g>
  </g>
 </g>
</svg>
