<svg xmlns="http://www.w3.org/2000/svg" xmlns:sketch="http://www.bohemiancoding.com/sketch/ns" width="44" height="45" viewBox="0 0 44 45"><title>logo</title><desc>Semaphore</desc><g sketch:type="MSShapeGroup" fill="none"><path d="M27.984 20.35c1.345 3.434-.322 7.318-3.721 8.676-1.891.755-3.918.567-5.578-.337l-7.686 7.762c-.042.344-.175 1.267-.175 1.267l-.821 4.403c.952.848 1.7 1.4 2.9 1.9 1.316.575 2.31.749 3.664.85l2.537-3.693-.137-.058c1.834.292 3.727.304 5.616.013l-.117.048 2.5 3.7c1.266-.081 2.176-.209 3.42-.707 1.333-.532 2.158-1.12 3.186-2.015l-.793-4.422-.141.058c1.547-1.134 2.882-2.493 3.985-4.008l-.051.124 4.36.83c.84-.963 1.392-1.702 1.924-2.942.57-1.329.742-2.333.842-3.7l-3.657-2.562-.056.135c.289-1.838.307-3.732.029-5.624l.031.076 3.664-2.527c-.08-1.279-.207-2.196-.699-3.454-.528-1.347-1.109-2.179-1.996-3.218l-4.379.8s-1.074.174-1.423.216l-7.575 7.65c.123.23.237.467.334.716" fill="#8EB43F"/><path d="M24.45 16.781c-3.4-1.358-7.246.324-8.591 3.758-.748 1.909-.562 3.957.333 5.633l-7.686 7.762c-.341.043-1.255.176-1.255.176l-4.36.829c-.839-.962-1.392-1.702-1.924-2.942-.57-1.329-.742-2.333-.842-3.701l3.657-2.561.057.138c-.289-1.852-.301-3.764-.013-5.672l-.048.118-3.665-2.527c.08-1.279.208-2.197.701-3.454.526-1.347 1.108-2.179 1.995-3.218l4.379.801-.058.142c1.124-1.562 2.469-2.91 3.97-4.025l-.123.051-.822-4.403c.953-.848 1.686-1.405 2.913-1.942 1.316-.576 2.31-.75 3.664-.851l2.537 3.693-.133.057c1.819-.293 3.695-.31 5.569-.029l-.076-.031 2.503-3.7c1.266.081 2.176.21 3.42.707 1.334.532 2.2 1.1 3.2 2.015l-.792 4.423s-.172 1.084-.215 1.437l-7.575 7.65c-.227-.124-.462-.239-.708-.337" fill="#BF1919"/></g></svg>