<?xml version="1.0" encoding="UTF-8" standalone="no"?>
<svg xmlns:sketch="http://www.bohemiancoding.com/sketch/ns" xmlns="http://www.w3.org/2000/svg" height="46px" width="181px" version="1.1" xmlns:xlink="http://www.w3.org/1999/xlink" viewBox="0 0 181 46"><!-- Generator: Sketch 3.2.1 (9971) - http://www.bohemiancoding.com/sketch -->
 <title>logo-horizontal</title>
 <desc>Created with Sketch.</desc>
 <g id="Page-2" fill-rule="evenodd" sketch:type="MSPage" fill="none">
  <g id="single-post-2" transform="translate(-50 -24)" sketch:type="MSArtboardGroup">
   <g id="nav" sketch:type="MSLayerGroup">
    <g id="logo-horizontal" sketch:type="MSShapeGroup">
     <path id="Fill-1" fill="#4A4A4A" d="m107.8 53.8c-1.5 0-3.6-0.4-4.9-0.8l0.6-3c1.1 0.4 2.6 0.6 4.1 0.6 1.2 0 1.4-0.3 1.4-1.1 0-0.9-0.1-1-2.2-1.5-3.3-0.8-3.6-1.7-3.6-4.2 0-2.9 1.1-4.1 5.2-4.1 1 0 2.9 0.1 4 0.4l-0.3 3.2c-1.2-0.3-2.7-0.4-3.7-0.4-1.2 0-1.4 0.3-1.4 0.9 0 0.8 0.1 0.9 1.7 1.3 3.8 0.9 4.1 1.7 4.1 4.4 0 2.8-1.2 4.3-5 4.3"/>
     <path id="Fill-3" fill="#4A4A4A" d="m122.3 44.6c0-1-0.3-1.8-1.7-1.8s-1.8 0.8-1.8 1.8v0.5h3.5v-0.5zm-3.5 3.6v0.3c0 1.6 0.6 2 2.4 2 1.3 0 2.9-0.2 4.1-0.6l0.6 3c-1.2 0.5-3.2 0.9-5.1 0.9-4.3 0-6-2.2-6-5.5v-3.2c0-2.9 1.3-5.4 5.8-5.4s5.4 2.7 5.4 5.6v2.9h-7.2z"/>
     <path id="Fill-5" fill="#4A4A4A" d="m136.7 53.5v-8.9c0-0.6-0.2-1-0.9-1s-2.1 0.5-2.9 1v8.9h-4v-13.5h3l0.4 1c1.6-0.8 3.8-1.3 5.3-1.3 1.2 0 2 0.5 2.5 1.3 1.5-0.7 3.5-1.3 5.3-1.3 2.3 0 3.1 1.7 3.1 4.3v9.5h-3.9v-8.9c0-0.6-0.3-1-1-1s-2 0.5-2.9 1v8.9h-4z"/>
     <path id="Fill-7" fill="#4A4A4A" d="m158.5 48.7h-1.9c-0.9 0-1.2 0.2-1.2 0.9 0 0.8 0.3 1.1 1 1.1 0.9 0 1.4-0.2 2.1-0.5v-1.5zm0.7 4.8l-0.3-0.8c-1.5 0.8-2.9 1.1-3.8 1.1-2.5 0-3.5-1.8-3.5-4.1 0-2.7 1.2-3.8 4-3.8h2.9v-1.1c0-1.3-0.3-1.8-2.4-1.8-1.2 0-2.4 0.1-3.7 0.4l-0.5-3c1.3-0.4 3.3-0.7 4.8-0.7 4.7 0 5.7 1.4 5.7 5.2v8.6h-3.2z"/>
     <path id="Fill-9" fill="#4A4A4A" d="m169.7 50c0.7 0.2 1.7 0.3 2.5 0.3 1.1 0 1.5-0.6 1.5-1.5v-4.1c0-0.9-0.4-1.5-1.5-1.5-0.9 0-1.9 0.5-2.5 1v5.8zm7.9-1.2c0 3.2-1.3 5-4.5 5-1.1 0-2.5-0.2-3.4-0.4v5.6l-4 0.6v-19.6h3.1l0.5 1.1c0.9-0.7 2.6-1.4 4.1-1.4 2.7 0 4.2 1.7 4.2 5v4.1z"/>
     <path id="Fill-11" fill="#4A4A4A" d="m188.4 53.5v-8.9c0-0.6-0.3-1-1-1s-2.1 0.5-2.9 1v8.9h-4v-19.1l3.9-0.5v7c1.7-0.7 3.3-1.2 4.8-1.2 2.3 0 3.1 1.7 3.1 4.3v9.5h-3.9z"/>
     <path id="Fill-13" fill="#4A4A4A" d="m203.2 48.4v-3.3c0-1.3-0.6-2-2.1-2-1.4 0-2.1 0.7-2.1 2v3.3c0 1.3 0.7 2 2.1 2 1.5 0 2.1-0.7 2.1-2m-8.1-0.1v-3.1c0-2.8 1.3-5.5 6-5.5 4.8 0 6.1 2.7 6.1 5.5v3.1c0 2.8-1.3 5.5-6.1 5.5-4.7 0-6-2.7-6-5.5"/>
     <path id="Fill-15" fill="#4A4A4A" d="m214.1 45.3v8.2h-4v-13.5h3.3l0.3 1.3c0.8-0.6 2.5-1.4 3.6-1.6l0.3 3.8c-1.2 0.5-2.7 1.1-3.5 1.8"/>
     <path id="Fill-17" fill="#4A4A4A" d="m226.3 44.6c0-1-0.2-1.8-1.6-1.8s-1.8 0.8-1.8 1.8v0.5h3.4v-0.5zm-3.4 3.6v0.3c0 1.6 0.6 2 2.4 2 1.2 0 2.9-0.2 4.1-0.6l0.6 3c-1.3 0.5-3.2 0.9-5.1 0.9-4.3 0-6-2.2-6-5.5v-3.2c0-2.9 1.3-5.4 5.8-5.4 4.4 0 5.4 2.7 5.4 5.6v2.9h-7.2z"/>
     <path id="Fill-19" fill="#8EB43F" d="m78 44.4c1.3 3.4-0.3 7.3-3.7 8.6-1.9 0.8-4 0.6-5.6-0.3l-7.7 7.8c0 0.3-0.2 1.2-0.2 1.2l-0.8 4.4c1 0.9 1.7 1.4 2.9 2 1.3 0.5 2.3 0.7 3.7 0.8l2.5-3.7h-0.1c1.8 0.3 3.7 0.3 5.6 0h-0.1l2.5 3.7c1.2-0.1 2.2-0.2 3.4-0.7 1.3-0.5 2.2-1.1 3.2-2l-0.8-4.4h-0.1c1.5-1.1 2.8-2.5 3.9-4v0.2l4.3 0.8c0.9-1 1.4-1.7 2-3 0.5-1.3 0.7-2.3 0.8-3.7l-3.6-2.5-0.1 0.1c0.3-1.8 0.3-3.7 0-5.6l0.1 0.1 3.6-2.6c-0.1-1.2-0.2-2.2-0.7-3.4-0.5-1.4-1.1-2.2-2-3.2l-4.4 0.8s-1 0.1-1.4 0.2l-7.5 7.6c0.1 0.3 0.2 0.5 0.3 0.8"/>
     <path id="Fill-21" fill="#BF1919" d="m74.5 40.8c-3.5-1.4-7.3 0.3-8.6 3.7-0.8 1.9-0.6 4 0.3 5.7l-7.7 7.7c-0.3 0.1-1.2 0.2-1.2 0.2l-4.4 0.8c-0.8-0.9-1.4-1.7-1.9-2.9-0.6-1.3-0.8-2.3-0.9-3.7l3.7-2.6v0.2c-0.2-1.9-0.3-3.8 0-5.7v0.1l-3.7-2.5c0.1-1.3 0.2-2.2 0.7-3.5s1.1-2.1 2-3.2l4.4 0.8-0.1 0.2c1.2-1.6 2.5-2.9 4-4.1l-0.1 0.1-0.8-4.4c0.9-0.9 1.6-1.4 2.9-2 1.3-0.5 2.3-0.7 3.6-0.8l2.6 3.7h-0.2c1.9-0.2 3.7-0.3 5.6 0h-0.1l2.5-3.7c1.3 0.1 2.2 0.2 3.5 0.7s2.1 1.1 3.1 2l-0.8 4.4s-0.1 1.1-0.2 1.5l-7.5 7.6c-0.3-0.1-0.5-0.2-0.7-0.3"/>
     <path id="COMMUNITY" fill="#A6A68C" d="m105.9 69.1c1.5 0 2.3-0.8 2.8-1.6l-1.2-0.6c-0.3 0.5-0.9 1-1.6 1-1.2 0-2.1-1-2.1-2.2 0-1.3 0.9-2.2 2.1-2.2 0.7 0 1.3 0.4 1.6 1l1.2-0.6c-0.5-0.9-1.3-1.7-2.8-1.7-2 0-3.6 1.4-3.6 3.5 0 2 1.6 3.4 3.6 3.4zm8.2 0c2 0 3.5-1.4 3.5-3.4s-1.5-3.5-3.5-3.5-3.5 1.5-3.5 3.5 1.5 3.4 3.5 3.4zm0-1.2c-1.2 0-2-1-2-2.2 0-1.3 0.8-2.2 2-2.2 1.3 0 2 0.9 2 2.2 0 1.2-0.7 2.2-2 2.2zm13.2 1.1v-6.7h-2l-1.7 4.2-1.6-4.2h-2v6.7h1.5v-4.8l1.8 4.8h0.7l1.8-4.8v4.8h1.5zm9.9 0v-6.7h-2l-1.6 4.2-1.6-4.2h-2v6.7h1.4v-4.8l1.9 4.8h0.6l1.9-4.8v4.8h1.4zm5.8 0.1c2 0 3-1.1 3-2.8v-4h-1.4v4c0 0.9-0.6 1.6-1.6 1.6s-1.6-0.7-1.6-1.6v-4h-1.4v4c0 1.7 1 2.8 3 2.8zm11.7-0.1v-6.7h-1.4v4.2l-3.1-4.2h-1.4v6.7h1.4v-4.4l3.2 4.4h1.3zm4.2 0v-6.7h-1.4v6.7h1.4zm5.7 0v-5.4h2v-1.3h-5.4v1.3h2v5.4h1.4zm7.6 0v-2.7l2.5-4h-1.6l-1.6 2.7-1.7-2.7h-1.6l2.6 4v2.7h1.4z"/>
    </g>
   </g>
  </g>
 </g>
</svg>
