<?xml version="1.0" encoding="UTF-8" standalone="no"?>
<svg width="16px" height="16px" viewBox="0 0 16 16" version="1.1" xmlns="http://www.w3.org/2000/svg" xmlns:xlink="http://www.w3.org/1999/xlink">
    <!-- Generator: Sketch 3.6.1 (26313) - http://www.bohemiancoding.com/sketch -->
    <title>social-g-plus</title>
    <desc>Created with Sketch.</desc>
    <defs></defs>
    <g id="Page-2" stroke="none" stroke-width="1" fill="none" fill-rule="evenodd">
        <g id="01-home-page-copy-2" transform="translate(-369.000000, -4292.000000)" stroke="#9B9B9B" fill="#9B9B9B">
            <g id="Group-14" transform="translate(261.000000, 4280.000000)">
                <g id="social-g-plus" transform="translate(109.000000, 13.000000)">
                    <path d="M7.41316667,7.95151163 L6.74933333,7.448 C6.54716667,7.28423256 6.27066667,7.06804651 6.27066667,6.67230233 C6.27066667,6.27493023 6.54716667,6.02227907 6.78716667,5.78834884 C7.5605,5.19383721 8.33316667,4.56106977 8.33316667,3.22765116 C8.33316667,1.85646512 7.44983333,1.13513953 7.0265,0.792953488 L8.168,0.792953488 L9.36616667,0.057627907 L5.73633333,0.057627907 C4.74033333,0.057627907 3.305,0.287813953 2.25416667,1.13513953 C1.46216667,1.8025814 1.07583333,2.72283721 1.07583333,3.55127907 C1.07583333,4.95762791 2.18133333,6.38318605 4.1335,6.38318605 C4.31783333,6.38318605 4.5195,6.36544186 4.7225,6.34704651 C4.63133333,6.56372093 4.53916667,6.74409302 4.53916667,7.05030233 C4.53916667,7.60883721 4.833,7.95134884 5.092,8.2757907 C4.2625,8.33146512 2.714,8.42116279 1.5725,9.10651163 C0.485333333,9.73797674 0.1545,10.657093 0.1545,11.305814 C0.1545,12.6410233 1.443,13.8847442 4.11483333,13.8847442 C7.28316667,13.8847442 8.9605,12.1723488 8.9605,10.4772093 C8.96066667,9.23169767 8.224,8.61862791 7.41316667,7.95151163 Z M5,5.87788372 C3.415,5.87788372 2.697,3.87653488 2.697,2.66895349 C2.697,2.19881395 2.78816667,1.71337209 3.10166667,1.33423256 C3.39716667,0.973162791 3.91183333,0.738906977 4.39233333,0.738906977 C5.92033333,0.738906977 6.71283333,2.75816279 6.71283333,4.05690698 C6.71283333,4.38183721 6.67616667,4.95762791 6.2525,5.37388372 C5.95616667,5.66267442 5.46033333,5.87788372 5,5.87788372 Z M5.01816667,13.1290698 C3.04716667,13.1290698 1.77616667,12.2081628 1.77616667,10.9276512 C1.77616667,9.64746512 2.95466667,9.21444186 3.36016667,9.07102326 C4.1335,8.81690698 5.12866667,8.7814186 5.29466667,8.7814186 C5.47883333,8.7814186 5.571,8.7814186 5.71766667,8.79948837 C7.11883333,9.77346512 7.727,10.258907 7.727,11.1809535 C7.727,12.2975349 6.78716667,13.1290698 5.01816667,13.1290698 Z" id="Shape"></path>
                    <path d="M12.0655,5.85037209 L12.0655,4.04746512 L11.1538333,4.04746512 L11.1538333,5.85037209 L9.311,5.85037209 L9.311,6.75076744 L11.1538333,6.75076744 L11.1538333,8.56474419 L12.0655,8.56474419 L12.0655,6.75076744 L13.9176667,6.75076744 L13.9176667,5.85037209 L12.0655,5.85037209 Z" id="Shape"></path>
                </g>
            </g>
        </g>
    </g>
</svg>