<?xml version="1.0" encoding="UTF-8" standalone="no"?>
<svg width="14px" height="14px" viewBox="0 0 14 14" version="1.1" xmlns="http://www.w3.org/2000/svg" xmlns:xlink="http://www.w3.org/1999/xlink">
    <!-- Generator: Sketch 3.6.1 (26313) - http://www.bohemiancoding.com/sketch -->
    <title>icon-rss</title>
    <desc>Created with Sketch.</desc>
    <defs></defs>
    <g id="Page-2" stroke="none" stroke-width="1" fill="none" fill-rule="evenodd">
        <g id="01-home-page" transform="translate(-578.000000, -3642.000000)" fill="#9B9B8F">
            <path d="M581.730869,3654.14399 C581.730869,3653.12236 580.89676,3652.28404 579.864191,3652.28404 C578.835653,3652.28404 578,3653.12236 578,3654.14399 C578,3655.17102 578.835653,3656 579.864191,3656 C580.896717,3656 581.730826,3655.17106 581.730869,3654.14399 Z M587.243895,3655.99601 C587.243895,3650.90088 583.095564,3646.75637 578,3646.75637 L578,3649.43853 C579.748065,3649.43853 581.391797,3650.12147 582.629259,3651.35873 C583.865435,3652.59337 584.547439,3654.24327 584.547439,3655.99606 L587.243895,3655.99601 Z M592,3655.99469 C592,3648.2802 585.718905,3642 578,3642 L578,3644.68345 C584.233367,3644.68345 589.307618,3649.75858 589.307618,3655.9946 L592,3655.99469 Z" id="icon-rss"></path>
        </g>
    </g>
</svg>