<?xml version="1.0" encoding="UTF-8" standalone="no"?>
<svg width="14px" height="12px" viewBox="0 0 14 12" version="1.1" xmlns="http://www.w3.org/2000/svg" xmlns:xlink="http://www.w3.org/1999/xlink">
    <!-- Generator: Sketch 3.6.1 (26313) - http://www.bohemiancoding.com/sketch -->
    <title>social-twitter</title>
    <desc>Created with Sketch.</desc>
    <defs></defs>
    <g id="Page-2" stroke="none" stroke-width="1" fill="none" fill-rule="evenodd">
        <g id="01-home-page-copy-2" transform="translate(-273.000000, -4293.000000)" fill="#9B9B9B">
            <g id="Group-14" transform="translate(261.000000, 4280.000000)">
                <path d="M18.7977989,16.077665 L18.8281462,16.5780779 L18.3223576,16.5168029 C16.481287,16.2819152 14.8728793,15.4853394 13.50725,14.1475006 L12.8396091,13.4836875 L12.667641,13.9738879 C12.3034732,15.0666265 12.5361359,16.2206401 13.2948188,16.9967908 C13.6994497,17.4257163 13.6084078,17.4869913 12.9104195,17.2316786 C12.667641,17.1499785 12.4552097,17.0887034 12.4349782,17.119341 C12.3641678,17.1908285 12.6069463,18.1201669 12.799146,18.4878173 C13.0621561,18.9984428 13.598292,19.4988557 14.1850068,19.7950185 L14.6806796,20.0299063 L14.0939648,20.0401188 C13.5274816,20.0401188 13.50725,20.0503313 13.5679447,20.264794 C13.7702601,20.9286071 14.5694061,21.6332703 15.4595941,21.9396456 L16.0867719,22.1541083 L15.5405202,22.4809086 C14.7312585,22.9506841 13.7803759,23.2162093 12.8294933,23.2366343 C12.3742836,23.2468469 12,23.2876969 12,23.3183344 C12,23.4204595 13.2341242,23.9923601 13.952344,24.2170353 C16.1070035,24.8808484 18.6662938,24.5948982 20.5882905,23.4613096 C21.9539198,22.6545213 23.319549,21.0511572 23.9568426,19.4988557 C24.3007789,18.6716425 24.6447151,17.160191 24.6447151,16.4351028 C24.6447151,15.9653273 24.6750625,15.9040523 25.2415457,15.3423642 C25.5753662,15.0155639 25.8889551,14.6581261 25.9496498,14.556001 C26.0508075,14.3619633 26.0406917,14.3619633 25.5247873,14.535576 C24.6649467,14.8419513 24.5435574,14.8011012 24.9684199,14.3415383 C25.2820088,14.014738 25.6562924,13.4224124 25.6562924,13.2487997 C25.6562924,13.2181622 25.5045558,13.2692248 25.3325877,13.3611373 C25.1505038,13.4632624 24.7458729,13.6164501 24.4423997,13.7083627 L23.896148,13.8819753 L23.4004752,13.5449625 C23.1273493,13.3611373 22.74295,13.1568871 22.5406345,13.0956121 C22.0247302,12.9526369 21.2356999,12.973062 20.7703744,13.1364621 C19.5059029,13.5960251 18.7067569,14.7806762 18.7977989,16.077665 Z" id="social-twitter"></path>
            </g>
        </g>
    </g>
</svg>