<svg width="27" height="27" viewBox="0 0 27 27" xmlns="http://www.w3.org/2000/svg" xmlns:sketch="http://www.bohemiancoding.com/sketch/ns"><title>tag</title><desc>Created with Sketch.</desc><path d="M26 2.42c0-.785-.636-1.42-1.42-1.42l-8.452.001c-.756 0-1.479-.04-1.898.38l-12.914 12.914c-.42.419-.42 1.1 0 1.519l9.872 9.872c.419.419 1.1.419 1.519 0l12.914-12.914c.419-.419.38-1.125.38-1.898l.001-8.453zm-6.545 6.83c.941 0 1.705-.763 1.705-1.705 0-.941-.763-1.705-1.705-1.705-.941 0-1.705.763-1.705 1.705 0 .941.763 1.705 1.705 1.705z" sketch:type="MSShapeGroup" stroke="#CECEB8" stroke-width="2" fill="none"/></svg>